<svg width="20" height="20" viewBox="0 0 20 20" fill="none" xmlns="http://www.w3.org/2000/svg">
<mask id="mask0_2366_7789" style="mask-type:alpha" maskUnits="userSpaceOnUse" x="0" y="0" width="20" height="20">
<rect width="20" height="20" fill="#FF0000"/>
</mask>
<g mask="url(#mask0_2366_7789)">
<path d="M11.8701 2.5C12.4887 2.5 12.9949 3.00643 12.9951 3.625V16.3936C12.9951 16.6325 12.9205 16.8674 12.7754 17.0596C12.5973 17.3033 12.3344 17.458 12.0391 17.5049C11.9922 17.5143 11.9359 17.5186 11.875 17.5186C11.6359 17.5186 11.4059 17.4441 11.209 17.2988C11.1997 17.2896 11.1906 17.2846 11.1768 17.2754L6.89844 13.7686V6.25L11.1719 2.74414C11.1812 2.7348 11.1911 2.72537 11.2051 2.7207C11.3972 2.58023 11.6312 2.50004 11.8701 2.5ZM5.89844 13.7598H3.625C3.00632 13.7598 2.50011 13.2534 2.5 12.6348V7.38477C2.50011 6.7661 3.00632 6.25977 3.625 6.25977H5.89844V13.7598ZM15.6621 6.34375C16.0322 6.15639 16.4823 6.30195 16.6699 6.67188C17.2277 7.76869 17.5 8.8616 17.5 10.0146C17.4999 11.1301 17.2182 12.2549 16.6699 13.3516C16.5434 13.6093 16.2767 13.7597 16.0049 13.7598C15.8924 13.7598 15.7748 13.7359 15.667 13.6797C15.2969 13.4921 15.1465 13.0421 15.334 12.6719C15.7792 11.7861 16.0049 10.8909 16.0049 10.0098C16.0049 9.10046 15.784 8.23275 15.334 7.35156C15.1469 6.98142 15.2921 6.53123 15.6621 6.34375Z" fill="#6D7882"/>
</g>
</svg>
