<svg width="20" height="20" viewBox="0 0 20 20" fill="none" xmlns="http://www.w3.org/2000/svg">
<g clip-path="url(#clip0_748_4379)">
<path d="M14.8681 9.43881C13.2681 8.35172 11.2197 8.79688 10.1423 10.4324C9.24228 11.8001 7.88744 11.9678 7.36164 11.9678C5.65196 11.9678 4.47777 10.7646 4.1326 9.51946C4.1326 9.51946 4.12615 9.49688 4.12293 9.48397C4.1197 9.47107 4.11648 9.45494 4.11325 9.44204C3.97777 8.92268 3.94228 8.6743 3.94228 8.12268C3.94228 5.14204 7.00035 1.82591 11.4036 1.82591C15.8068 1.82591 18.4907 5.25817 19.1552 7.16462C19.1455 7.12913 19.1358 7.09688 19.1229 7.06462C17.8423 3.32913 14.3036 0.645264 10.1391 0.645264C4.89712 0.645264 0.645508 4.89688 0.645508 10.1388C0.645508 14.8259 4.02615 18.8388 8.71325 18.8388C12.452 18.8388 14.9681 16.742 16.1197 13.8517C16.752 12.2711 16.3036 10.413 14.8681 9.43881Z" fill="#003668"/>
<path d="M19.2166 7.34514C18.6617 5.48385 16.0617 1.81934 11.4037 1.81934C7.00045 1.81934 3.94238 5.13546 3.94238 8.11611C3.94238 8.66772 3.97464 8.91611 4.11335 9.43546C4.05529 9.20643 4.02625 8.98062 4.02625 8.75804C4.02625 5.65482 7.1327 3.50321 10.3295 3.50321C14.6521 3.50321 18.1585 7.00966 18.1585 11.3322C18.1585 14.7226 16.2069 17.6548 13.3746 19.0645C17.0295 17.7451 19.6359 14.2451 19.6359 10.1355C19.6359 9.1645 19.5037 8.30643 19.2198 7.34192L19.2166 7.34514Z" fill="#E6002D"/>
</g>
<defs>
<clipPath id="clip0_748_4379">
<rect width="20" height="20" fill="white"/>
</clipPath>
</defs>
</svg>
