<svg width="14" height="14" viewBox="0 0 14 14" fill="none" xmlns="http://www.w3.org/2000/svg">
<path d="M7.18336 0.241637C6.86118 -0.0805457 6.33882 -0.0805457 6.01664 0.241637L0.241637 6.01664C-0.0805457 6.33882 -0.0805457 6.86118 0.241637 7.18336C0.563819 7.50555 1.08618 7.50555 1.40836 7.18336L1.65 6.94173V12.375C1.65 12.8306 2.01937 13.2 2.475 13.2H4.125C4.58063 13.2 4.95 12.8306 4.95 12.375V10.725C4.95 10.2694 5.31937 9.9 5.775 9.9H7.425C7.88064 9.9 8.25 10.2694 8.25 10.725V12.375C8.25 12.8306 8.61936 13.2 9.075 13.2H10.725C11.1806 13.2 11.55 12.8306 11.55 12.375V6.94173L11.7916 7.18336C12.1138 7.50555 12.6362 7.50555 12.9584 7.18336C13.2805 6.86118 13.2805 6.33882 12.9584 6.01664L7.18336 0.241637Z" fill="#8A949E"/>
</svg>
