<svg width="32" height="32" viewBox="0 0 32 32" fill="none" xmlns="http://www.w3.org/2000/svg">
<path d="M6.24999 28.5703C6.24999 29.1226 5.80227 29.5703 5.24999 29.5703H4C3.44772 29.5703 3 29.1226 3 28.5703V19.737C3 19.1847 3.44772 18.737 4 18.737H5.24999C5.80227 18.737 6.24999 19.1847 6.24999 19.737V28.5703Z" fill="#6D7882"/>
<path d="M10.6719 18.8037C12.4703 18.72 13.7015 19.3797 14.7871 19.9629C15.1457 20.1558 15.485 20.3376 15.8262 20.4844C17.16 21.0573 19.1493 21.3305 19.3701 21.3594C19.9779 21.5272 20.3605 22.1965 20.2422 22.8906C20.183 23.2391 20.006 23.5403 19.7451 23.7383C19.4848 23.9361 19.1699 24.007 18.8613 23.9375L12.9014 22.5977L12.792 23.2178L18.5625 24.5146C20.0647 25.0893 21.4669 24.5564 22.8213 23.9023L23.9814 23.3301C24.1013 23.2721 24.222 23.2156 24.3428 23.1602L26.4258 22.4902C27.0334 22.4066 27.66 22.4389 28.3115 22.6592C28.5954 22.7554 28.8283 22.9464 28.9336 23.1689C29.0067 23.3241 29.0182 23.4886 28.9678 23.6709C28.8645 24.0467 27.7798 24.6216 26.8232 25.1289C26.4058 25.3502 25.9737 25.5792 25.5498 25.8242C24.0662 26.6814 22.3671 27.8208 21.2432 28.5752C20.6452 28.9766 20.1276 29.3233 19.9902 29.3916C19.3193 29.7251 16.8026 29.3534 13.041 28.748C10.9307 28.4085 9.09041 28.2684 7.42188 28.3174V20.252C7.42186 20.1651 7.41741 20.0791 7.41016 19.9941C8.1593 19.4415 9.20776 18.8739 10.6719 18.8037ZM20.6738 21.8193L20.6689 21.834C20.6659 21.8264 20.6623 21.819 20.6592 21.8115L20.6738 21.8193Z" fill="#6D7882"/>
<path d="M25.7486 10.5833C25.7486 12.5945 24.9497 14.5234 23.5275 15.9455C22.1054 17.3677 20.1766 18.1666 18.1653 18.1666C16.1541 18.1666 14.2253 17.3677 12.8031 15.9455C11.381 14.5234 10.582 12.5945 10.582 10.5833C10.582 8.57209 11.381 6.64324 12.8031 5.2211C14.2253 3.79895 16.1541 3 18.1653 3C20.1766 3 22.1054 3.79895 23.5275 5.2211C24.9497 6.64324 25.7486 8.57209 25.7486 10.5833ZM15.0631 12.4061C15.1582 13.5573 16.0916 14.4535 17.771 14.5597V15.409H18.5155V14.5542C20.2514 14.4356 21.2676 13.5339 21.2676 12.2241C21.2676 11.0314 20.4913 10.4179 19.1029 10.1007L18.5155 9.96285V7.65201C19.2601 7.73474 19.7344 8.13045 19.8475 8.67921H21.1545C21.058 7.57067 20.0805 6.70341 18.5155 6.60827V5.75757H17.771V6.62482C16.2874 6.76683 15.2782 7.63409 15.2782 8.86121C15.2782 9.94631 16.0282 10.6371 17.2774 10.9197L17.771 11.0369V13.4912C17.0072 13.3809 16.5025 12.9727 16.3881 12.4061H15.0631ZM17.7655 9.79326C17.032 9.62781 16.6349 9.29139 16.6349 8.78399C16.6349 8.21869 17.0637 7.79265 17.771 7.66856V9.79188H17.7641L17.7655 9.79326ZM18.6231 11.2327C19.5124 11.4326 19.9233 11.7566 19.9233 12.3302C19.9233 12.9838 19.4131 13.4333 18.5169 13.516V11.2079L18.6231 11.2327Z" fill="#6D7882"/>
</svg>
