<svg width="32" height="32" viewBox="0 0 32 32" fill="none" xmlns="http://www.w3.org/2000/svg">
<path d="M15.3252 4.04004C15.539 3.97746 15.769 3.98793 15.9775 4.07129L25.584 7.91406C25.9634 8.06596 26.2118 8.43409 26.2119 8.84277V14.6064C26.2118 15.1586 25.7641 15.6064 25.2119 15.6064C24.6599 15.6062 24.2121 15.1584 24.2119 14.6064V10.3193L15.9775 13.6133C15.7391 13.7086 15.4728 13.7086 15.2344 13.6133L5.62891 9.77051C5.24945 9.61864 5.00013 9.25148 5 8.84277C5.00012 8.43399 5.24934 8.06589 5.62891 7.91406L15.2344 4.07129L15.3252 4.04004Z" fill="#6D7882"/>
<path d="M22.3711 16.0557C22.3703 17.3897 21.3342 18.3851 20.1299 18.9873C18.8785 19.613 17.2509 19.9374 15.6074 19.9375C13.9642 19.9375 12.3364 19.6127 11.085 18.9873C9.8806 18.3851 8.84454 17.3898 8.84375 16.0557V12.7676L14.6758 15.1016H14.6768C15.2724 15.3397 15.9375 15.3396 16.5332 15.1016L22.3711 12.7656V16.0557Z" fill="#6D7882"/>
<path d="M8.97656 22.1641C8.10714 22.1641 7.273 22.5093 6.6582 23.124C6.0434 23.7388 5.69824 24.5729 5.69824 25.4424C5.69835 26.3117 6.0435 27.146 6.6582 27.7607C7.27296 28.3752 8.10733 28.7207 8.97656 28.7207H24.25C24.6639 28.7205 24.9998 28.3846 25 27.9707C25 27.5566 24.664 27.2209 24.25 27.2207H8.97656C8.50516 27.2207 8.0522 27.0334 7.71875 26.7002C7.63532 26.6168 7.56056 26.5255 7.49609 26.4287C7.30297 26.1387 7.19832 25.7959 7.19824 25.4424C7.19824 25.1476 7.27103 24.86 7.40723 24.6045C7.46177 24.5022 7.52642 24.405 7.60059 24.3145C7.63755 24.2693 7.67715 24.2262 7.71875 24.1846C8.01064 23.8927 8.39351 23.7131 8.80078 23.6729L8.97656 23.6641H24.25C24.6639 23.6638 24.9998 23.328 25 22.9141C25 22.5 24.664 22.1643 24.25 22.1641H8.97656Z" fill="#6D7882"/>
<path d="M23.25 25.4375H9.47266" stroke="#6D7882" stroke-width="1.5" stroke-linecap="round"/>
</svg>
