<svg width="32" height="32" viewBox="0 0 32 32" fill="none" xmlns="http://www.w3.org/2000/svg">
<path fill-rule="evenodd" clip-rule="evenodd" d="M19.8021 7.16458C18.3742 8.59247 18.3742 10.9075 19.8021 12.3354C21.23 13.7633 23.545 13.7633 24.9729 12.3354C26.4008 10.9075 26.4008 8.59247 24.9729 7.16458C23.545 5.7367 21.23 5.7367 19.8021 7.16458ZM19.1937 12.9437C17.4299 11.1799 17.4299 8.32011 19.1938 6.55625C20.9576 4.79239 23.8174 4.79239 25.5813 6.55625C27.3451 8.32011 27.3451 11.1799 25.5812 12.9437C23.8174 14.7076 20.9576 14.7076 19.1937 12.9437Z" fill="#6D7882"/>
<path fill-rule="evenodd" clip-rule="evenodd" d="M24.9729 12.3354C25.1409 12.1674 25.4133 12.1674 25.5812 12.3354L28.3188 15.0729C28.4867 15.2409 28.4867 15.5133 28.3188 15.6813C28.1508 15.8492 27.8784 15.8492 27.7104 15.6813L24.9729 12.9437C24.8049 12.7758 24.8049 12.5034 24.9729 12.3354Z" fill="#6D7882"/>
<path fill-rule="evenodd" clip-rule="evenodd" d="M25.3911 15.5672C25.2232 15.3992 25.2232 15.1268 25.3911 14.9589L27.5964 12.7536C27.7643 12.5857 28.0367 12.5857 28.2047 12.7536C28.3727 12.9216 28.3727 13.194 28.2047 13.362L25.9995 15.5672C25.8315 15.7352 25.5591 15.7352 25.3911 15.5672Z" fill="#6D7882"/>
<path d="M24.9729 12.3354C23.545 13.7633 21.23 13.7633 19.8021 12.3354C18.3742 10.9075 18.3742 8.59247 19.8021 7.16458C21.23 5.7367 23.545 5.7367 24.9729 7.16458C26.4008 8.59247 26.4008 10.9075 24.9729 12.3354ZM24.9729 12.3354C25.1409 12.1674 25.4133 12.1674 25.5813 12.3354L28.3188 15.0729C28.4867 15.2409 28.4867 15.5133 28.3188 15.6812C28.1508 15.8492 27.8784 15.8492 27.7104 15.6812L24.9729 12.9437C24.8049 12.7758 24.8049 12.5034 24.9729 12.3354ZM19.1938 6.55625C17.4299 8.32011 17.4299 11.1799 19.1938 12.9438C20.9576 14.7076 23.8174 14.7076 25.5813 12.9437C27.3451 11.1799 27.3451 8.32011 25.5813 6.55625C23.8174 4.79239 20.9576 4.79239 19.1938 6.55625ZM25.3911 14.9589C25.2232 15.1268 25.2232 15.3992 25.3911 15.5672C25.5591 15.7352 25.8315 15.7352 25.9995 15.5672L28.2047 13.362C28.3727 13.194 28.3727 12.9216 28.2047 12.7536C28.0367 12.5857 27.7643 12.5857 27.5964 12.7536L25.3911 14.9589Z" stroke="#6D7882" stroke-width="0.7" stroke-linecap="round" stroke-linejoin="round"/>
<path fill-rule="evenodd" clip-rule="evenodd" d="M6.84615 7.98077C4.6795 7.98077 2.92308 9.73719 2.92308 11.9038C2.92308 14.0705 4.6795 15.8269 6.84615 15.8269C9.01281 15.8269 10.7692 14.0705 10.7692 11.9038C10.7692 9.73719 9.01281 7.98077 6.84615 7.98077ZM2 11.9038C2 9.22739 4.1697 7.05769 6.84615 7.05769C9.52261 7.05769 11.6923 9.22739 11.6923 11.9038C11.6923 14.5803 9.52261 16.75 6.84615 16.75C4.1697 16.75 2 14.5803 2 11.9038Z" fill="#6D7882"/>
<path fill-rule="evenodd" clip-rule="evenodd" d="M10.3077 5.21154C10.3077 4.95664 10.5143 4.75 10.7692 4.75H13.5385C13.7934 4.75 14 4.95664 14 5.21154V7.98077C14 8.23567 13.7934 8.44231 13.5385 8.44231C13.2836 8.44231 13.0769 8.23567 13.0769 7.98077V5.67308H10.7692C10.5143 5.67308 10.3077 5.46644 10.3077 5.21154Z" fill="#6D7882"/>
<path fill-rule="evenodd" clip-rule="evenodd" d="M13.8648 4.88518C14.0451 5.06542 14.0451 5.35765 13.8648 5.5379L10.2879 9.11482C10.1077 9.29506 9.81542 9.29506 9.63518 9.11482C9.45494 8.93458 9.45494 8.64235 9.63518 8.46211L13.2121 4.88518C13.3923 4.70494 13.6846 4.70494 13.8648 4.88518Z" fill="#6D7882"/>
<path fill-rule="evenodd" clip-rule="evenodd" d="M6.84615 7.98077C4.6795 7.98077 2.92308 9.73719 2.92308 11.9038C2.92308 14.0705 4.6795 15.8269 6.84615 15.8269C9.01281 15.8269 10.7692 14.0705 10.7692 11.9038C10.7692 9.73719 9.01281 7.98077 6.84615 7.98077ZM2 11.9038C2 9.22739 4.1697 7.05769 6.84615 7.05769C9.52261 7.05769 11.6923 9.22739 11.6923 11.9038C11.6923 14.5803 9.52261 16.75 6.84615 16.75C4.1697 16.75 2 14.5803 2 11.9038Z" stroke="#6D7882" stroke-width="0.7" stroke-linecap="round" stroke-linejoin="round"/>
<path fill-rule="evenodd" clip-rule="evenodd" d="M10.3077 5.21154C10.3077 4.95664 10.5143 4.75 10.7692 4.75H13.5385C13.7934 4.75 14 4.95664 14 5.21154V7.98077C14 8.23567 13.7934 8.44231 13.5385 8.44231C13.2836 8.44231 13.0769 8.23567 13.0769 7.98077V5.67308H10.7692C10.5143 5.67308 10.3077 5.46644 10.3077 5.21154Z" stroke="#6D7882" stroke-width="0.7" stroke-linecap="round" stroke-linejoin="round"/>
<path fill-rule="evenodd" clip-rule="evenodd" d="M13.8648 4.88518C14.0451 5.06542 14.0451 5.35765 13.8648 5.5379L10.2879 9.11482C10.1077 9.29506 9.81542 9.29506 9.63518 9.11482C9.45494 8.93458 9.45494 8.64235 9.63518 8.46211L13.2121 4.88518C13.3923 4.70494 13.6846 4.70494 13.8648 4.88518Z" stroke="#6D7882" stroke-width="0.7" stroke-linecap="round" stroke-linejoin="round"/>
<rect x="1" y="19.9922" width="30" height="1.5" rx="0.75" fill="#6D7882"/>
<path d="M10 27.9922C10 26.8876 10.8954 25.9922 12 25.9922H20C21.1046 25.9922 22 26.8876 22 27.9922V28.9922H10V27.9922Z" fill="#6D7882"/>
<path d="M14.5 16.9922H17.5L19 26.9922H13L14.5 16.9922Z" fill="#6D7882"/>
</svg>
