<svg width="14" height="14" viewBox="0 0 14 14" fill="none" xmlns="http://www.w3.org/2000/svg">
<path d="M13.8116 0.238689C13.745 0.165661 13.6643 0.106882 13.5743 0.0658952C13.4844 0.0249088 13.3871 0.00256401 13.2882 0.000207984C13.1894 -0.00214804 13.0911 0.0155335 12.9993 0.0521866C12.9075 0.0888398 12.8241 0.143705 12.7541 0.213476L12.1467 0.818934L13.181 1.8507L13.7781 1.25652C13.914 1.12401 13.9934 0.944061 13.9996 0.754347C14.0058 0.564634 13.9385 0.379857 13.8116 0.238689Z" fill="white"/>
<path d="M6.79219 9.7535H4.24595V7.20693L9.14006 2.32213H0V14H11.6764V4.85875L6.79219 9.7535Z" fill="white"/>
<path d="M11.6764 3.35588L12.764 2.26573L11.7327 1.23429L10.6431 2.32212H11.6764V3.35588Z" fill="white"/>
<path d="M5.30743 8.69188H6.352L11.6764 3.35588V2.32212H10.6431L5.30743 7.64717V8.69188Z" fill="white"/>
</svg>
