<svg width="24" height="24" viewBox="0 0 24 24" fill="none" xmlns="http://www.w3.org/2000/svg">
<mask id="path-1-inside-1_542_3369" fill="white">
<path fill-rule="evenodd" clip-rule="evenodd" d="M16.4706 2L21 5.5V22H3V2H16.4706Z"/>
</mask>
<path fill-rule="evenodd" clip-rule="evenodd" d="M16.4706 2L21 5.5V22H3V2H16.4706Z" fill="white"/>
<path d="M21 5.5H22V5.00896L21.6114 4.70872L21 5.5ZM16.4706 2L17.082 1.20872L16.8119 1H16.4706V2ZM21 22V23H22V22H21ZM3 22H2V23H3V22ZM3 2V1H2V2H3ZM21 5.5L21.6114 4.70872L17.082 1.20872L16.4706 2L15.8591 2.79128L20.3886 6.29128L21 5.5ZM21 5.5H20V22H21H22V5.5H21ZM21 22V21H3V22V23H21V22ZM3 22H4V2H3H2V22H3ZM3 2V3H16.4706V2V1H3V2Z" fill="#BDC2CA" mask="url(#path-1-inside-1_542_3369)"/>
<circle cx="6.5" cy="7.5" r="1.5" fill="#BDC2CA"/>
<path d="M14.0909 6L7 14H20L14.0909 6Z" fill="#D0D7E1"/>
<path d="M9 9L3 16H14L9 9Z" fill="#AFB6C2"/>
<rect width="18" height="9" transform="translate(3 14)" fill="#0E7D69"/>
<path d="M6.24858 16.7965V15.9091H10.4297V16.7965H8.87109V21H7.80717V16.7965H6.24858ZM12.1946 15.9091V21H11.1183V15.9091H12.1946ZM13.0802 21V15.9091H16.4509V16.7965H14.1565V18.0096H16.2272V18.897H14.1565V21H13.0802Z" fill="white"/>
</svg>
