<svg width="20" height="21" viewBox="0 0 20 21" fill="none" xmlns="http://www.w3.org/2000/svg">
<mask id="mask0_2667_30523" style="mask-type:alpha" maskUnits="userSpaceOnUse" x="0" y="0" width="20" height="21">
<rect y="0.5" width="20" height="20" fill="#D9D9D9"/>
</mask>
<g mask="url(#mask0_2667_30523)">
<path d="M17.654 5.86873L17.6275 5.44882L17.2133 5.37476C14.3145 4.85465 13.1043 4.47864 10.3992 3.25679L10.1784 3.15625L9.95753 3.25679C7.25242 4.47864 6.04229 4.85465 3.14348 5.37476L2.72927 5.44882L2.70279 5.86873C2.57377 7.91667 2.84891 9.82486 3.5215 11.5403C4.07228 12.9396 4.8874 14.2198 5.92232 15.3108C7.71422 17.212 9.61671 18.0377 9.97965 18.1838L10.1807 18.2646L10.3818 18.1838C10.7447 18.0377 12.6472 17.212 14.4391 15.3108C15.4724 14.2194 16.2859 12.9393 16.8352 11.5403C17.5078 9.82486 17.783 7.91667 17.654 5.86873ZM9.17837 13.1074L6.73901 10.7159L7.48969 9.94986L9.11403 11.5414L12.8047 7.27859L13.6157 7.98034L9.17837 13.1074Z" fill="white"/>
</g>
</svg>
