<svg width="24" height="24" viewBox="0 0 24 24" fill="none" xmlns="http://www.w3.org/2000/svg">
<mask id="path-1-inside-1_542_3395" fill="white">
<path fill-rule="evenodd" clip-rule="evenodd" d="M16.4704 2L20.9998 5.49995V2H21V22H3V2H16.4704Z"/>
</mask>
<path fill-rule="evenodd" clip-rule="evenodd" d="M16.4704 2L20.9998 5.49995V2H21V22H3V2H16.4704Z" fill="white"/>
<path d="M20.9998 5.49995L20.3884 6.29124L21.9998 7.53645V5.49995H20.9998ZM16.4704 2L17.0819 1.20872L16.8118 1H16.4704V2ZM20.9998 2V1H19.9998V2H20.9998ZM21 2H22V1H21V2ZM21 22V23H22V22H21ZM3 22H2V23H3V22ZM3 2V1H2V2H3ZM20.9998 5.49995L21.6112 4.70867L17.0819 1.20872L16.4704 2L15.859 2.79128L20.3884 6.29124L20.9998 5.49995ZM20.9998 2H19.9998V5.49995H20.9998H21.9998V2H20.9998ZM20.9998 2V3H21V2V1H20.9998V2ZM21 2H20V22H21H22V2H21ZM21 22V21H3V22V23H21V22ZM3 22H4V2H3H2V22H3ZM3 2V3H16.4704V2V1H3V2Z" fill="#BDC2CA" mask="url(#path-1-inside-1_542_3395)"/>
<rect width="18" height="9" transform="translate(3 14)" fill="#012ACC"/>
<path d="M5.44247 21V15.9091H8.87287V16.7965H6.51882V18.0096H8.69638V18.897H6.51882V20.1126H8.88281V21H5.44247ZM10.7378 15.9091L11.7645 17.6442H11.8042L12.8358 15.9091H14.0514L12.4978 18.4545L14.0862 21H12.8483L11.8042 19.2624H11.7645L10.7204 21H9.48748L11.0809 18.4545L9.51731 15.9091H10.7378ZM14.7325 21V15.9091H18.1629V16.7965H15.8089V18.0096H17.9864V18.897H15.8089V20.1126H18.1729V21H14.7325Z" fill="white"/>
<path d="M12.5916 13H11.4084C11.1473 13 10.9365 12.7857 10.9365 12.5227V11.7994C10.9222 11.7702 10.8743 11.719 10.8359 11.6849C10.8216 11.6922 10.8 11.7044 10.7832 11.7215L10.2587 12.2451C10.0766 12.4253 9.76766 12.4228 9.59042 12.2426L8.75449 11.4097C8.66347 11.3196 8.61557 11.2003 8.61557 11.0712C8.61557 10.9422 8.66587 10.8228 8.75449 10.7303L9.27904 10.2043C9.27904 10.1921 9.28144 10.1239 9.27904 10.0728C9.26228 10.0679 9.23832 10.063 9.21437 10.063H8.47186C8.21317 10.0679 8 9.85358 8 9.59056V8.40944C8 8.14642 8.21317 7.93212 8.47425 7.93212H9.21677C9.22874 7.92481 9.27904 7.8761 9.31497 7.83714C9.30778 7.82253 9.29581 7.80548 9.28144 7.79087L8.75449 7.26728C8.66347 7.1723 8.61317 7.05297 8.61317 6.9239C8.61317 6.79726 8.66347 6.67793 8.75449 6.58782L9.59042 5.75251C9.76766 5.57717 10.0766 5.57473 10.2539 5.75251L10.7808 6.27854C10.7713 6.2688 10.8072 6.27854 10.8743 6.27854C10.8934 6.27854 10.9102 6.27854 10.9246 6.2761C10.9293 6.26149 10.9341 6.24201 10.9341 6.22009V5.47732C10.9341 5.21431 11.1473 5 11.406 5H12.5892C12.8503 5 13.0635 5.21431 13.0635 5.47732V6.20304C13.0778 6.23227 13.1257 6.28341 13.1617 6.31507C13.176 6.30776 13.1952 6.29559 13.2144 6.27854L13.7437 5.75251C13.9186 5.57717 14.2299 5.57473 14.4072 5.75251L15.2455 6.58782C15.3341 6.67549 15.3868 6.79483 15.3868 6.9239C15.3868 7.05297 15.3389 7.17473 15.2455 7.26728L14.7329 7.77869C14.7234 7.80791 14.7186 7.87367 14.721 7.92237C14.7377 7.92725 14.7593 7.93212 14.7832 7.93212H15.5281C15.7892 7.93212 16 8.14642 16 8.40944V9.59056C16 9.85358 15.7868 10.0679 15.5281 10.0679H14.7832C14.7713 10.0752 14.721 10.1239 14.685 10.1653C14.6922 10.1799 14.7042 10.197 14.7186 10.2116L15.2431 10.7376C15.3341 10.8277 15.3844 10.947 15.3844 11.0761C15.3844 11.2052 15.3341 11.3269 15.2407 11.417L14.4048 12.2499C14.2323 12.4277 13.9162 12.4301 13.7389 12.2475L13.2144 11.7263C13.224 11.7361 13.1856 11.7239 13.1186 11.7239C13.1018 11.7239 13.085 11.7239 13.0707 11.7263C13.0659 11.7409 13.0611 11.7629 13.0611 11.7848V12.5251C13.0683 12.7857 12.8551 13 12.5916 13Z" fill="#2C365D"/>
<circle cx="12" cy="9" r="1" fill="white"/>
</svg>
