<svg width="24" height="24" viewBox="0 0 24 24" fill="none" xmlns="http://www.w3.org/2000/svg">
<mask id="path-1-inside-1_542_3426" fill="white">
<path fill-rule="evenodd" clip-rule="evenodd" d="M16.4704 2L20.9998 5.49995V2H21V22H3V2H16.4704Z"/>
</mask>
<path fill-rule="evenodd" clip-rule="evenodd" d="M16.4704 2L20.9998 5.49995V2H21V22H3V2H16.4704Z" fill="white"/>
<path d="M20.9998 5.49995L20.3884 6.29124L21.9998 7.53645V5.49995H20.9998ZM16.4704 2L17.0819 1.20872L16.8118 1H16.4704V2ZM20.9998 2V1H19.9998V2H20.9998ZM21 2H22V1H21V2ZM21 22V23H22V22H21ZM3 22H2V23H3V22ZM3 2V1H2V2H3ZM20.9998 5.49995L21.6112 4.70867L17.0819 1.20872L16.4704 2L15.859 2.79128L20.3884 6.29124L20.9998 5.49995ZM20.9998 2H19.9998V5.49995H20.9998H21.9998V2H20.9998ZM20.9998 2V3H21V2V1H20.9998V2ZM21 2H20V22H21H22V2H21ZM21 22V21H3V22V23H21V22ZM3 22H4V2H3H2V22H3ZM3 2V3H16.4704V2V1H3V2Z" fill="#BDC2CA" mask="url(#path-1-inside-1_542_3426)"/>
<rect width="18" height="9" transform="translate(3 14)" fill="#C11B3A"/>
<path d="M6.98651 21H5.66406L7.38175 15.9091H9.01989L10.7376 21H9.41513L8.21946 17.1918H8.17969L6.98651 21ZM6.81001 18.9964H9.57422V19.9311H6.81001V18.9964ZM11.758 15.9091L12.8965 19.6378H12.9387L14.0772 15.9091H15.4544L13.7367 21H12.0985L10.3809 15.9091H11.758ZM17.233 15.9091V21H16.0025V15.9091H17.233Z" fill="white"/>
<rect x="5" y="5" width="1" height="2" fill="#C11B3A"/>
<rect x="18" y="5" width="1" height="2" fill="#C11B3A"/>
<rect x="5" y="8" width="1" height="2" fill="#C11B3A"/>
<rect x="18" y="8" width="1" height="2" fill="#C11B3A"/>
<rect x="5" y="11" width="1" height="2" fill="#C11B3A"/>
<rect x="18" y="11" width="1" height="2" fill="#C11B3A"/>
<path d="M10 12V5L15 8.81818L10 12Z" fill="#C11B3A"/>
</svg>
