<svg width="16" height="16" viewBox="0 0 16 16" fill="none" xmlns="http://www.w3.org/2000/svg">
<mask id="mask0_1397_6228" style="mask-type:alpha" maskUnits="userSpaceOnUse" x="0" y="0" width="16" height="16">
<rect width="16" height="16" fill="#FF0000"/>
</mask>
<g mask="url(#mask0_1397_6228)">
<path d="M2.84375 15.5H10.3438C10.5675 15.5 10.7821 15.4097 10.9404 15.2489C11.0986 15.0882 11.1875 14.8702 11.1875 14.6429V3.92857C11.1875 3.77702 11.1282 3.63167 11.0227 3.52451C10.9173 3.41735 10.7742 3.35714 10.625 3.35714H2.84375C2.61997 3.35714 2.40536 3.44745 2.24713 3.60819C2.0889 3.76894 2 3.98696 2 4.21429V14.6429C2 14.8702 2.0889 15.0882 2.24713 15.2489C2.40536 15.4097 2.61997 15.5 2.84375 15.5Z" fill="#6D7882"/>
<path d="M11.1875 2.21429H4.8125V1.35714C4.8125 1.12981 4.9014 0.911797 5.05963 0.751051C5.21786 0.590306 5.43247 0.5 5.65625 0.5H13.0156C13.2767 0.5 13.5271 0.605357 13.7117 0.792893C13.8963 0.98043 14 1.23478 14 1.5V10.7857C14 11.013 13.9111 11.2311 13.7529 11.3918C13.5946 11.5526 13.38 11.6429 13.1562 11.6429H12.3125V3.35714C12.3125 3.05404 12.194 2.76335 11.983 2.54902C11.772 2.33469 11.4859 2.21429 11.1875 2.21429Z" fill="#6D7882"/>
</g>
</svg>
