<svg width="24" height="24" viewBox="0 0 24 24" fill="none" xmlns="http://www.w3.org/2000/svg">
<mask id="path-1-inside-1_542_3505" fill="white">
<path fill-rule="evenodd" clip-rule="evenodd" d="M16.4706 2L21 5.5V22H3V2H16.4706Z"/>
</mask>
<path fill-rule="evenodd" clip-rule="evenodd" d="M16.4706 2L21 5.5V22H3V2H16.4706Z" fill="white"/>
<path d="M21 5.5H22V5.00896L21.6114 4.70872L21 5.5ZM16.4706 2L17.082 1.20872L16.8119 1H16.4706V2ZM21 22V23H22V22H21ZM3 22H2V23H3V22ZM3 2V1H2V2H3ZM21 5.5L21.6114 4.70872L17.082 1.20872L16.4706 2L15.8591 2.79128L20.3886 6.29128L21 5.5ZM21 5.5H20V22H21H22V5.5H21ZM21 22V21H3V22V23H21V22ZM3 22H4V2H3H2V22H3ZM3 2V3H16.4706V2V1H3V2Z" fill="#BDC2CA" mask="url(#path-1-inside-1_542_3505)"/>
<rect width="18" height="9" transform="translate(3 14)" fill="#D63D4A"/>
<path d="M4.44247 21V15.9091H5.51882V18.0096H7.70384V15.9091H8.7777V21H7.70384V18.897H5.51882V21H4.44247ZM10.4111 21L8.9544 15.9091H10.1302L10.9729 19.4464H11.0151L11.9448 15.9091H12.9516L13.8788 19.4538H13.9235L14.7662 15.9091H15.942L14.4853 21H13.4363L12.4668 17.6715H12.4271L11.4601 21H10.4111ZM16.1181 21V15.9091H18.1266C18.5127 15.9091 18.8417 15.9828 19.1134 16.1303C19.3852 16.2762 19.5924 16.4792 19.7349 16.7393C19.8791 16.9979 19.9512 17.2962 19.9512 17.6342C19.9512 17.9723 19.8782 18.2706 19.7324 18.5291C19.5866 18.7876 19.3753 18.989 19.0985 19.1332C18.8234 19.2773 18.4903 19.3494 18.0992 19.3494H16.8191V18.4869H17.9252C18.1324 18.4869 18.3031 18.4512 18.4373 18.38C18.5732 18.3071 18.6743 18.2068 18.7406 18.0792C18.8085 17.9499 18.8425 17.8016 18.8425 17.6342C18.8425 17.4652 18.8085 17.3177 18.7406 17.1918C18.6743 17.0642 18.5732 16.9656 18.4373 16.896C18.3014 16.8247 18.1291 16.7891 17.9203 16.7891H17.1944V21H16.1181Z" fill="white"/>
<rect x="7" y="12" width="10" height="1" fill="#AFB6C2"/>
<rect x="7" y="9" width="10" height="1" fill="#AFB6C2"/>
<rect x="7" y="6" width="10" height="1" fill="#AFB6C2"/>
</svg>
