<svg width="24" height="24" viewBox="0 0 24 24" fill="none" xmlns="http://www.w3.org/2000/svg">
<mask id="path-1-inside-1_542_3379" fill="white">
<path fill-rule="evenodd" clip-rule="evenodd" d="M16.4704 2L20.9998 5.49995V2H21V22H3V2H16.4704Z"/>
</mask>
<path fill-rule="evenodd" clip-rule="evenodd" d="M16.4704 2L20.9998 5.49995V2H21V22H3V2H16.4704Z" fill="white"/>
<path d="M20.9998 5.49995L20.3884 6.29124L21.9998 7.53645V5.49995H20.9998ZM16.4704 2L17.0819 1.20872L16.8118 1H16.4704V2ZM20.9998 2V1H19.9998V2H20.9998ZM21 2H22V1H21V2ZM21 22V23H22V22H21ZM3 22H2V23H3V22ZM3 2V1H2V2H3ZM20.9998 5.49995L21.6112 4.70867L17.0819 1.20872L16.4704 2L15.859 2.79128L20.3884 6.29124L20.9998 5.49995ZM20.9998 2H19.9998V5.49995H20.9998H21.9998V2H20.9998ZM20.9998 2V3H21V2V1H20.9998V2ZM21 2H20V22H21H22V2H21ZM21 22V21H3V22V23H21V22ZM3 22H4V2H3H2V22H3ZM3 2V3H16.4704V2V1H3V2Z" fill="#BDC2CA" mask="url(#path-1-inside-1_542_3379)"/>
<rect width="18" height="9" transform="translate(3 14)" fill="#2C365D"/>
<path d="M5.4517 15.9091L6.47834 17.6442H6.51811L7.54972 15.9091H8.76527L7.21165 18.4545L8.80007 21H7.56215L6.51811 19.2624H6.47834L5.4343 21H4.20135L5.79474 18.4545L4.23118 15.9091H5.4517ZM9.44638 15.9091H10.7738L12.1758 19.3295H12.2354L13.6374 15.9091H14.9648V21H13.9208V17.6864H13.8786L12.5611 20.9751H11.8501L10.5327 17.674H10.4904V21H9.44638V15.9091ZM15.8517 21V15.9091H16.928V20.1126H19.1105V21H15.8517Z" fill="white"/>
<path d="M6.62891 9.40163V8.52663L10.1289 6.98544V7.99219L7.7326 8.95419L7.76491 8.90199V9.02628L7.7326 8.97408L10.1289 9.93608V10.9428L6.62891 9.40163ZM13.3977 5.67045L11.7571 11.7656H10.8448L12.4854 5.67045H13.3977ZM17.6143 9.40163L14.1143 10.9428V9.93608L16.5106 8.97408L16.4782 9.02628V8.90199L16.5106 8.95419L14.1143 7.99219V6.98544L17.6143 8.52663V9.40163Z" fill="#2E3242"/>
</svg>
