<svg width="20" height="21" viewBox="0 0 20 21" fill="none" xmlns="http://www.w3.org/2000/svg">
<mask id="mask0_2617_8354" style="mask-type:alpha" maskUnits="userSpaceOnUse" x="0" y="0" width="20" height="21">
<rect y="0.5" width="20" height="20" fill="#FF0000"/>
</mask>
<g mask="url(#mask0_2617_8354)">
<path d="M14.1786 9.5H5.82145C5.76577 9.5 5.71104 9.48789 5.66262 9.46485C5.61421 9.4418 5.57378 9.40862 5.54528 9.36855C5.51678 9.32848 5.5012 9.2829 5.50007 9.23627C5.49893 9.18964 5.51227 9.14356 5.53879 9.10255L9.71734 2.64104C9.74492 2.59838 9.78574 2.56276 9.83549 2.53793C9.88525 2.51311 9.94209 2.5 10 2.5C10.0579 2.5 10.1148 2.51311 10.1645 2.53793C10.2143 2.56276 10.2551 2.59838 10.2827 2.64104L14.4612 9.10255C14.4877 9.14356 14.5011 9.18964 14.4999 9.23627C14.4988 9.2829 14.4832 9.32848 14.4547 9.36855C14.4262 9.40862 14.3858 9.4418 14.3374 9.46485C14.289 9.48789 14.2342 9.5 14.1786 9.5Z" fill="#6D7882" fill-opacity="0.4"/>
<path d="M14.1786 11.5H5.82145C5.76577 11.5 5.71104 11.5121 5.66262 11.5352C5.61421 11.5582 5.57378 11.5914 5.54528 11.6314C5.51678 11.6715 5.5012 11.7171 5.50007 11.7637C5.49893 11.8104 5.51227 11.8564 5.53879 11.8974L9.71734 18.359C9.74492 18.4016 9.78574 18.4372 9.83549 18.4621C9.88525 18.4869 9.94209 18.5 10 18.5C10.0579 18.5 10.1148 18.4869 10.1645 18.4621C10.2143 18.4372 10.2551 18.4016 10.2827 18.359L14.4612 11.8974C14.4877 11.8564 14.5011 11.8104 14.4999 11.7637C14.4988 11.7171 14.4832 11.6715 14.4547 11.6314C14.4262 11.5914 14.3858 11.5582 14.3374 11.5352C14.289 11.5121 14.2342 11.5 14.1786 11.5Z" fill="#6D7882"/>
</g>
</svg>
