<svg width="32" height="32" viewBox="0 0 32 32" fill="none" xmlns="http://www.w3.org/2000/svg">
<mask id="mask0_2045_8148" style="mask-type:alpha" maskUnits="userSpaceOnUse" x="9" y="1" width="15" height="15">
<path d="M16.0855 15.1711C19.9988 15.1711 23.1711 11.9988 23.1711 8.08554C23.1711 4.1723 19.9988 1 16.0855 1C12.1723 1 9 4.1723 9 8.08554C9 11.9988 12.1723 15.1711 16.0855 15.1711Z" fill="#6D7882"/>
</mask>
<g mask="url(#mask0_2045_8148)">
<path d="M16.9072 15.4277C16.7611 15.6616 16.4529 15.7336 16.2188 15.5879C16.1666 15.5553 16.1242 15.5129 16.0889 15.4668C16.0535 15.5127 16.0119 15.5554 15.96 15.5879C15.7259 15.7337 15.4178 15.6614 15.2715 15.4277C15.2022 15.3167 15.1363 15.2035 15.0703 15.0908C15.402 15.1385 15.741 15.164 16.0859 15.1641C16.4324 15.1641 16.7733 15.1379 17.1064 15.0898C17.0404 15.2026 16.9765 15.3167 16.9072 15.4277ZM13.4648 10.9443C13.7719 12.3987 14.3138 13.7988 15.0703 15.0908C12.6197 14.7389 10.5758 13.1332 9.60645 10.9443H13.4648ZM22.5664 10.9443C21.5976 13.132 19.5553 14.7367 17.1064 15.0898C17.863 13.7978 18.4069 12.3987 18.7139 10.9443H22.5664ZM17.6885 10.9443C17.3749 12.3184 16.8372 13.6378 16.0898 14.8477C15.3424 13.6377 14.804 12.3183 14.4902 10.9443H17.6885ZM22.9082 9.98926C23.0815 10.0679 23.2031 10.2418 23.2031 10.4443C23.2029 10.6856 23.0312 10.8878 22.8037 10.9346L22.7031 10.9443H22.5664C22.7026 10.6369 22.8164 10.3179 22.9082 9.98926ZM9.26367 9.99219C9.3554 10.3199 9.47061 10.6376 9.60645 10.9443H9.47656C9.20056 10.9443 8.97678 10.7203 8.97656 10.4443C8.97656 10.2443 9.09399 10.0721 9.26367 9.99219ZM9.2627 6.16797C9.32765 6.19883 9.39986 6.21777 9.47656 6.21777H13.292C13.2089 6.83215 13.166 7.45374 13.166 8.07812C13.1661 8.70455 13.2083 9.32805 13.292 9.94434H9.47656C9.40043 9.94434 9.32826 9.96175 9.26367 9.99219C9.09333 9.38352 9.001 8.74215 9.00098 8.0791C9.00098 7.41689 9.09279 6.77596 9.2627 6.16797ZM22.9102 6.1709C23.0796 6.77806 23.1719 7.4179 23.1719 8.0791C23.1719 8.74123 23.0781 9.38134 22.9082 9.98926C22.875 9.97418 22.8403 9.96164 22.8037 9.9541L22.7031 9.94434H18.8867C18.9704 9.32806 19.0127 8.70455 19.0127 8.07812C19.0127 7.45376 18.9698 6.83212 18.8867 6.21777H22.7031L22.8037 6.20801C22.8412 6.2003 22.8763 6.18649 22.9102 6.1709ZM17.8779 6.21777C17.9674 6.83142 18.0127 7.45336 18.0127 8.07812C18.0127 8.70504 17.9661 9.32868 17.876 9.94434H14.3027C14.2125 9.3287 14.1661 8.70505 14.166 8.07812C14.166 7.45333 14.2112 6.83144 14.3008 6.21777H17.8779ZM22.7031 5.21777L22.8037 5.22754C23.0312 5.27435 23.203 5.47644 23.2031 5.71777C23.2031 5.91941 23.0822 6.09176 22.9102 6.1709C22.8186 5.84288 22.7041 5.52475 22.5684 5.21777H22.7031ZM9.60449 5.21777C9.46917 5.52391 9.3541 5.8409 9.2627 6.16797C9.09383 6.08774 8.97662 5.91715 8.97656 5.71777C8.9767 5.44175 9.2005 5.21777 9.47656 5.21777H9.60449ZM17.1084 1.06738C19.558 1.42135 21.6006 3.02838 22.5684 5.21777H18.7148C18.4083 3.76175 17.8653 2.36076 17.1084 1.06738ZM15.0693 1.06641C14.3123 2.35993 13.7705 3.76155 13.4639 5.21777H9.60449C10.573 3.02688 12.6174 1.41885 15.0693 1.06641ZM16.0898 1.30664C16.8385 2.51863 17.3761 3.84107 17.6895 5.21777H14.4893C14.8029 3.84095 15.341 2.51874 16.0898 1.30664ZM16.2188 0.568359C16.453 0.422292 16.761 0.493404 16.9072 0.727539C16.977 0.839342 17.042 0.95386 17.1084 1.06738C16.7746 1.01915 16.4331 0.993164 16.0859 0.993164C15.7407 0.993182 15.4014 1.01868 15.0693 1.06641C15.1357 0.952985 15.2018 0.839243 15.2715 0.727539C15.4177 0.493329 15.7257 0.422182 15.96 0.568359C16.0114 0.600601 16.0537 0.642105 16.0889 0.6875C16.1241 0.641825 16.167 0.60075 16.2188 0.568359Z" fill="#6D7882"/>
</g>
<path d="M18 19H6C5.46957 19 4.96086 19.2107 4.58579 19.5858C4.21071 19.9609 4 20.4696 4 21V23M28 23V21C28 20.4696 27.7893 19.9609 27.4142 19.5858C27.0391 19.2107 26.5304 19 26 19H17" stroke="#6D7882" stroke-width="1.5" stroke-linecap="round" stroke-linejoin="round"/>
<path d="M15 16.75C15 16.3358 15.3358 16 15.75 16C16.1642 16 16.5 16.3358 16.5 16.75V23.25C16.5 23.6642 16.1642 24 15.75 24C15.3358 24 15 23.6642 15 23.25V16.75Z" fill="#6D7882"/>
<rect x="1" y="25" width="6" height="6" rx="1" fill="#6D7882"/>
<rect x="13" y="25" width="6" height="6" rx="1" fill="#6D7882"/>
<rect x="25" y="25" width="6" height="6" rx="1" fill="#6D7882"/>
</svg>
