<svg width="24" height="24" viewBox="0 0 24 24" fill="none" xmlns="http://www.w3.org/2000/svg">
<mask id="path-1-inside-1_542_3528" fill="white">
<path fill-rule="evenodd" clip-rule="evenodd" d="M16.4706 2L21 5.5V22H3V2H16.4706Z"/>
</mask>
<path fill-rule="evenodd" clip-rule="evenodd" d="M16.4706 2L21 5.5V22H3V2H16.4706Z" fill="white"/>
<path d="M21 5.5H22V5.00896L21.6114 4.70872L21 5.5ZM16.4706 2L17.082 1.20872L16.8119 1H16.4706V2ZM21 22V23H22V22H21ZM3 22H2V23H3V22ZM3 2V1H2V2H3ZM21 5.5L21.6114 4.70872L17.082 1.20872L16.4706 2L15.8591 2.79128L20.3886 6.29128L21 5.5ZM21 5.5H20V22H21H22V5.5H21ZM21 22V21H3V22V23H21V22ZM3 22H4V2H3H2V22H3ZM3 2V3H16.4706V2V1H3V2Z" fill="#BDC2CA" mask="url(#path-1-inside-1_542_3528)"/>
<path d="M7.65853 14.9512C6.19564 14.9512 6.00243 14.2195 6.00243 14C5.91962 12.9512 8.01735 11.2073 11.0535 10.5C11.2468 10.1829 11.3572 10.1463 11.4952 9.80488C10.5567 8.53659 9.92187 7.19512 9.92187 6.36585C9.92187 5.95122 10.0599 5.63415 10.3083 5.39024C10.5843 5.12195 10.9983 5 11.4952 5C12.13 5 12.6268 5.21951 12.9581 5.65854C13.2065 6 13.3445 6.48781 13.3445 7.07317C13.3445 7.82927 13.1237 8.7561 12.7648 9.70732C13 10 13 10 13.4549 10.1341C16.3531 9.86585 17.3467 10.9024 17.7331 11.3659C18.0368 11.7561 18.092 12.2439 17.8436 12.6585C17.5399 13.1707 16.8775 13.4878 16.077 13.4878C15.2214 13.4878 14.0897 12.3293 12.9857 11.2073C12.5992 11.2561 12.2128 11.3293 11.854 11.4024C10.7499 13.2073 9.14902 15 7.65853 15V14.9512ZM7.1341 13.9024C7.1341 13.9024 7.32731 13.9756 7.65853 13.9756C8.45898 13.9756 9.42504 12.8902 10.2531 11.7927C8.32097 12.4268 7.2169 13.5854 7.1341 13.9268V13.9024ZM14.3105 11.3659C15.0282 12.0244 15.663 12.4634 16.0494 12.4634C16.4359 12.4634 16.7395 12.3171 16.8223 12.1707C16.8499 12.122 16.8775 12.0244 16.7947 11.9268C16.5463 11.6341 15.8286 11.0366 14.3657 11.0854L14.3105 11.3659ZM11.4952 5.97561C11.3296 5.97561 11.1915 6 11.1363 6.04878C11.0811 6.09756 11.0535 6.19512 11.0535 6.34146C11.0535 6.90244 11.4124 7.70732 11.9644 8.56098C12.13 8.02439 12.2128 7.48781 12.2128 7.04878C12.2128 6.56098 12.1024 6.31707 11.992 6.17073C11.9092 6.07317 11.7988 5.95122 11.4952 5.95122V5.97561Z" fill="#B0101E"/>
<rect width="18" height="9" transform="translate(3 14)" fill="#B0101E"/>
<path d="M5.44247 21V15.9091H7.45099C7.83712 15.9091 8.16607 15.9828 8.43786 16.1303C8.70964 16.2762 8.91679 16.4792 9.0593 16.7393C9.20348 16.9979 9.27557 17.2962 9.27557 17.6342C9.27557 17.9723 9.20265 18.2706 9.05682 18.5291C8.91099 18.7876 8.69969 18.989 8.42294 19.1332C8.14785 19.2773 7.81475 19.3494 7.42365 19.3494H6.14347V18.4869H7.24964C7.45679 18.4869 7.62749 18.4512 7.76172 18.38C7.89761 18.3071 7.9987 18.2068 8.06499 18.0792C8.13293 17.9499 8.1669 17.8016 8.1669 17.6342C8.1669 17.4652 8.13293 17.3177 8.06499 17.1918C7.9987 17.0642 7.89761 16.9656 7.76172 16.896C7.62583 16.8247 7.45348 16.7891 7.24467 16.7891H6.51882V21H5.44247ZM11.7794 21H9.9747V15.9091H11.7943C12.3064 15.9091 12.7472 16.011 13.1167 16.2148C13.4863 16.417 13.7705 16.7079 13.9694 17.0874C14.1699 17.4669 14.2702 17.9209 14.2702 18.4496C14.2702 18.9799 14.1699 19.4356 13.9694 19.8168C13.7705 20.1979 13.4846 20.4904 13.1118 20.6942C12.7406 20.8981 12.2964 21 11.7794 21ZM11.051 20.0778H11.7346C12.0528 20.0778 12.3205 20.0214 12.5376 19.9087C12.7563 19.7944 12.9204 19.6179 13.0297 19.3793C13.1408 19.139 13.1963 18.8291 13.1963 18.4496C13.1963 18.0734 13.1408 17.766 13.0297 17.5273C12.9204 17.2887 12.7571 17.113 12.54 17.0004C12.3229 16.8877 12.0553 16.8313 11.7371 16.8313H11.051V20.0778ZM15.0675 21V15.9091H18.4382V16.7965H16.1438V18.0096H18.2145V18.897H16.1438V21H15.0675Z" fill="white"/>
</svg>
