<svg width="24" height="24" viewBox="0 0 24 24" fill="none" xmlns="http://www.w3.org/2000/svg">
<mask id="path-1-inside-1_542_3329" fill="white">
<path fill-rule="evenodd" clip-rule="evenodd" d="M16.4706 2L21 5.5V22H3V2H16.4706Z"/>
</mask>
<path fill-rule="evenodd" clip-rule="evenodd" d="M16.4706 2L21 5.5V22H3V2H16.4706Z" fill="white"/>
<path d="M21 5.5H22V5.00896L21.6114 4.70872L21 5.5ZM16.4706 2L17.082 1.20872L16.8119 1H16.4706V2ZM21 22V23H22V22H21ZM3 22H2V23H3V22ZM3 2V1H2V2H3ZM21 5.5L21.6114 4.70872L17.082 1.20872L16.4706 2L15.8591 2.79128L20.3886 6.29128L21 5.5ZM21 5.5H20V22H21H22V5.5H21ZM21 22V21H3V22V23H21V22ZM3 22H4V2H3H2V22H3ZM3 2V3H16.4706V2V1H3V2Z" fill="#BDC2CA" mask="url(#path-1-inside-1_542_3329)"/>
<circle cx="6.5" cy="7.5" r="1.5" fill="#BDC2CA"/>
<path d="M14.0909 6L7 14H20L14.0909 6Z" fill="#D0D7E1"/>
<path d="M9 9L3 16H14L9 9Z" fill="#AFB6C2"/>
<rect width="18" height="9" transform="translate(3 14)" fill="#3B6DB9"/>
<path d="M4.44247 21V15.9091H6.48082C6.85535 15.9091 7.16773 15.9646 7.41797 16.0756C7.66821 16.1867 7.8563 16.3408 7.98224 16.538C8.10819 16.7335 8.17116 16.9589 8.17116 17.2141C8.17116 17.413 8.13139 17.5878 8.05185 17.7386C7.9723 17.8878 7.86293 18.0104 7.72372 18.1065C7.58617 18.201 7.42874 18.2681 7.25142 18.3079V18.3576C7.44531 18.3659 7.62678 18.4206 7.79581 18.5217C7.9665 18.6228 8.10488 18.7644 8.21094 18.9467C8.317 19.1274 8.37003 19.3428 8.37003 19.593C8.37003 19.8632 8.30291 20.1043 8.16868 20.3164C8.0361 20.5269 7.83973 20.6934 7.57955 20.8161C7.31937 20.9387 6.9987 21 6.61754 21H4.44247ZM5.51882 20.12H6.39631C6.69626 20.12 6.91501 20.0629 7.05256 19.9485C7.1901 19.8325 7.25888 19.6784 7.25888 19.4862C7.25888 19.3453 7.22491 19.221 7.15696 19.1133C7.08902 19.0056 6.99207 18.921 6.86612 18.8597C6.74183 18.7984 6.59351 18.7678 6.42116 18.7678H5.51882V20.12ZM5.51882 18.0394H6.31676C6.46425 18.0394 6.59517 18.0137 6.70952 17.9624C6.82552 17.9093 6.91667 17.8348 6.98295 17.7386C7.0509 17.6425 7.08487 17.5273 7.08487 17.3931C7.08487 17.2092 7.01941 17.0608 6.88849 16.9482C6.75923 16.8355 6.57528 16.7791 6.33665 16.7791H5.51882V18.0394ZM9.0704 15.9091H10.3978L11.7998 19.3295H11.8595L13.2615 15.9091H14.5889V21H13.5448V17.6864H13.5026L12.1851 20.9751H11.4742L10.1567 17.674H10.1144V21H9.0704V15.9091ZM15.4757 21V15.9091H17.4842C17.8703 15.9091 18.1993 15.9828 18.4711 16.1303C18.7428 16.2762 18.95 16.4792 19.0925 16.7393C19.2367 16.9979 19.3088 17.2962 19.3088 17.6342C19.3088 17.9723 19.2359 18.2706 19.09 18.5291C18.9442 18.7876 18.7329 18.989 18.4561 19.1332C18.181 19.2773 17.848 19.3494 17.4569 19.3494H16.1767V18.4869H17.2828C17.49 18.4869 17.6607 18.4512 17.7949 18.38C17.9308 18.3071 18.0319 18.2068 18.0982 18.0792C18.1661 17.9499 18.2001 17.8016 18.2001 17.6342C18.2001 17.4652 18.1661 17.3177 18.0982 17.1918C18.0319 17.0642 17.9308 16.9656 17.7949 16.896C17.659 16.8247 17.4867 16.7891 17.2779 16.7891H16.552V21H15.4757Z" fill="white"/>
</svg>
