<svg width="16" height="16" viewBox="0 0 16 16" fill="none" xmlns="http://www.w3.org/2000/svg">
<path d="M3.99316 11H5.99427" stroke="#A8B6C3" stroke-width="2" stroke-linecap="round"/>
<path d="M9.99707 11H11.9982" stroke="#A8B6C3" stroke-width="2" stroke-linecap="round"/>
<path d="M1.49219 14.5H14.499V7.5H1.49219V14.5ZM1.49219 6.5H14.499V3.5H1.49219V6.5ZM0.5 2.99609C0.498298 2.76268 0.547338 2.66741 0.573242 2.63184C0.595637 2.60113 0.637656 2.5634 0.750977 2.5332C0.873559 2.50058 1.03967 2.4873 1.26367 2.4873C1.37285 2.48731 1.4869 2.49001 1.61035 2.49316C1.73154 2.49626 1.86151 2.5 1.99219 2.5H3.49316V0.5H4.49414V2.5H11.4971V0.5H12.498V2.5H13.999C14.2662 2.5 14.4846 2.49198 14.709 2.49902C14.9272 2.50589 15.0926 2.52646 15.2158 2.56543C15.331 2.60188 15.385 2.64717 15.417 2.69238C15.4514 2.74125 15.5 2.84787 15.5 3.07812V15C15.5 15.1152 15.4691 15.1727 15.4385 15.21C15.4008 15.2555 15.3282 15.311 15.1924 15.3613C14.906 15.4673 14.4859 15.5 13.999 15.5H1.99219C1.49999 15.5 1.0829 15.4668 0.800781 15.3613C0.667259 15.3114 0.596906 15.2567 0.560547 15.2119C0.530674 15.175 0.5 15.1171 0.5 15V2.99609Z" fill="#CDD1D5" stroke="#A8B6C3"/>
</svg>
