<svg width="14" height="14" viewBox="0 0 14 14" fill="none" xmlns="http://www.w3.org/2000/svg">
<path d="M8.80003 1.45C8.80003 1.33065 8.84744 1.21619 8.93183 1.1318C9.01622 1.04741 9.13068 1 9.25003 1H12.55C12.6694 1 12.7838 1.04741 12.8682 1.1318C12.9526 1.21619 13 1.33065 13 1.45V4.75C13 4.86935 12.9526 4.98381 12.8682 5.0682C12.7838 5.15259 12.6694 5.2 12.55 5.2C12.4307 5.2 12.3162 5.15259 12.2318 5.0682C12.1474 4.98381 12.1 4.86935 12.1 4.75V2.536L8.36804 6.268C8.32684 6.31221 8.27716 6.34767 8.22196 6.37227C8.16676 6.39686 8.10717 6.41009 8.04675 6.41116C7.98633 6.41222 7.92631 6.40111 7.87028 6.37847C7.81425 6.35584 7.76335 6.32215 7.72062 6.27942C7.67789 6.23669 7.6442 6.18579 7.62157 6.12976C7.59894 6.07373 7.58782 6.01371 7.58889 5.95329C7.58995 5.89287 7.60318 5.83328 7.62777 5.77808C7.65237 5.72288 7.68783 5.6732 7.73204 5.632L11.464 1.9H9.25003C9.13068 1.9 9.01622 1.85259 8.93183 1.7682C8.84744 1.68381 8.80003 1.56935 8.80003 1.45Z" fill="#6D7882"/>
<path d="M1 2.65C1 2.0704 1.4704 1.6 2.04999 1.6H7.14995C7.2693 1.6 7.38376 1.64741 7.46815 1.7318C7.55254 1.81619 7.59995 1.93065 7.59995 2.05C7.59995 2.16935 7.55254 2.28381 7.46815 2.3682C7.38376 2.45259 7.2693 2.5 7.14995 2.5H2.04999C2.01021 2.5 1.97206 2.5158 1.94393 2.54393C1.9158 2.57206 1.89999 2.61022 1.89999 2.65V11.95C1.89999 12.0328 1.96719 12.1 2.04999 12.1H11.3499C11.3897 12.1 11.4279 12.0842 11.456 12.0561C11.4841 12.0279 11.4999 11.9898 11.4999 11.95V6.85C11.4999 6.73065 11.5473 6.61619 11.6317 6.5318C11.7161 6.44741 11.8306 6.4 11.9499 6.4C12.0693 6.4 12.1837 6.44741 12.2681 6.5318C12.3525 6.61619 12.3999 6.73065 12.3999 6.85V11.95C12.3999 12.2285 12.2893 12.4955 12.0924 12.6925C11.8955 12.8894 11.6284 13 11.3499 13H2.04999C1.77152 13 1.50445 12.8894 1.30754 12.6925C1.11062 12.4955 1 12.2285 1 11.95V2.65Z" fill="#6D7882"/>
<path d="M8.80003 1.45C8.80003 1.33065 8.84744 1.21619 8.93183 1.1318C9.01622 1.04741 9.13068 1 9.25003 1H12.55C12.6694 1 12.7838 1.04741 12.8682 1.1318C12.9526 1.21619 13 1.33065 13 1.45V4.75C13 4.86935 12.9526 4.98381 12.8682 5.0682C12.7838 5.15259 12.6694 5.2 12.55 5.2C12.4307 5.2 12.3162 5.15259 12.2318 5.0682C12.1474 4.98381 12.1 4.86935 12.1 4.75V2.536L8.36804 6.268C8.32684 6.31221 8.27716 6.34767 8.22196 6.37227C8.16676 6.39686 8.10717 6.41009 8.04675 6.41116C7.98633 6.41222 7.92631 6.40111 7.87028 6.37847C7.81425 6.35584 7.76335 6.32215 7.72062 6.27942C7.67789 6.23669 7.6442 6.18579 7.62157 6.12976C7.59894 6.07373 7.58782 6.01371 7.58889 5.95329C7.58995 5.89287 7.60318 5.83328 7.62777 5.77808C7.65237 5.72288 7.68783 5.6732 7.73204 5.632L11.464 1.9H9.25003C9.13068 1.9 9.01622 1.85259 8.93183 1.7682C8.84744 1.68381 8.80003 1.56935 8.80003 1.45Z" stroke="#6D7882" stroke-width="0.4"/>
<path d="M1 2.65C1 2.0704 1.4704 1.6 2.04999 1.6H7.14995C7.2693 1.6 7.38376 1.64741 7.46815 1.7318C7.55254 1.81619 7.59995 1.93065 7.59995 2.05C7.59995 2.16935 7.55254 2.28381 7.46815 2.3682C7.38376 2.45259 7.2693 2.5 7.14995 2.5H2.04999C2.01021 2.5 1.97206 2.5158 1.94393 2.54393C1.9158 2.57206 1.89999 2.61022 1.89999 2.65V11.95C1.89999 12.0328 1.96719 12.1 2.04999 12.1H11.3499C11.3897 12.1 11.4279 12.0842 11.456 12.0561C11.4841 12.0279 11.4999 11.9898 11.4999 11.95V6.85C11.4999 6.73065 11.5473 6.61619 11.6317 6.5318C11.7161 6.44741 11.8306 6.4 11.9499 6.4C12.0693 6.4 12.1837 6.44741 12.2681 6.5318C12.3525 6.61619 12.3999 6.73065 12.3999 6.85V11.95C12.3999 12.2285 12.2893 12.4955 12.0924 12.6925C11.8955 12.8894 11.6284 13 11.3499 13H2.04999C1.77152 13 1.50445 12.8894 1.30754 12.6925C1.11062 12.4955 1 12.2285 1 11.95V2.65Z" stroke="#6D7882" stroke-width="0.4"/>
</svg>
