<svg width="24" height="24" viewBox="0 0 24 24" fill="none" xmlns="http://www.w3.org/2000/svg">
<mask id="path-1-inside-1_542_3412" fill="white">
<path fill-rule="evenodd" clip-rule="evenodd" d="M16.4704 2L20.9998 5.49995V2H21V22H3V2H16.4704Z"/>
</mask>
<path fill-rule="evenodd" clip-rule="evenodd" d="M16.4704 2L20.9998 5.49995V2H21V22H3V2H16.4704Z" fill="white"/>
<path d="M20.9998 5.49995L20.3884 6.29124L21.9998 7.53645V5.49995H20.9998ZM16.4704 2L17.0819 1.20872L16.8118 1H16.4704V2ZM20.9998 2V1H19.9998V2H20.9998ZM21 2H22V1H21V2ZM21 22V23H22V22H21ZM3 22H2V23H3V22ZM3 2V1H2V2H3ZM20.9998 5.49995L21.6112 4.70867L17.0819 1.20872L16.4704 2L15.859 2.79128L20.3884 6.29124L20.9998 5.49995ZM20.9998 2H19.9998V5.49995H20.9998H21.9998V2H20.9998ZM20.9998 2V3H21V2V1H20.9998V2ZM21 2H20V22H21H22V2H21ZM21 22V21H3V22V23H21V22ZM3 22H4V2H3H2V22H3ZM3 2V3H16.4704V2V1H3V2Z" fill="#BDC2CA" mask="url(#path-1-inside-1_542_3412)"/>
<rect width="18" height="9" transform="translate(3 14)" fill="#012ACC"/>
<path d="M4.3853 15.9091H5.90909L7.2017 19.0611H7.26136L8.55398 15.9091H10.0778V21H8.87962V17.8729H8.83736L7.61435 20.9677H6.84872L5.62571 17.8555H5.58345V21H4.3853V15.9091ZM10.8453 21V15.9091H12.9482C13.3294 15.9091 13.6584 15.9837 13.9351 16.1328C14.2135 16.2803 14.4281 16.4866 14.5789 16.7518C14.7297 17.0153 14.8051 17.3219 14.8051 17.6715C14.8051 18.0228 14.7281 18.3303 14.574 18.5938C14.4215 18.8556 14.2036 19.0586 13.9202 19.2028C13.6368 19.3469 13.3004 19.419 12.911 19.419H11.6134V18.4496H12.6823C12.8679 18.4496 13.0228 18.4173 13.1471 18.3526C13.2731 18.288 13.3683 18.1977 13.433 18.0817C13.4976 17.964 13.5299 17.8273 13.5299 17.6715C13.5299 17.5141 13.4976 17.3782 13.433 17.2638C13.3683 17.1478 13.2731 17.0584 13.1471 16.9954C13.0212 16.9324 12.8662 16.9009 12.6823 16.9009H12.0757V21H10.8453ZM15.3396 20.1548V19.1953L17.4252 15.9091H18.2778V17.2116H17.7831L16.5626 19.1456V19.1854H19.5828V20.1548H15.3396ZM17.798 21V19.8615L17.8229 19.4414V15.9091H18.9738V21H17.798Z" fill="white"/>
<rect x="5" y="5" width="1" height="2" fill="#012ACC"/>
<rect x="18" y="5" width="1" height="2" fill="#012ACC"/>
<rect x="5" y="8" width="1" height="2" fill="#012ACC"/>
<rect x="18" y="8" width="1" height="2" fill="#012ACC"/>
<rect x="5" y="11" width="1" height="2" fill="#012ACC"/>
<rect x="18" y="11" width="1" height="2" fill="#012ACC"/>
<path d="M14.127 8.78027L10.5 11.0889V6.01074L14.127 8.78027Z" fill="#012ACC" stroke="#012ACC" stroke-linejoin="round"/>
</svg>
