<svg width="32" height="32" viewBox="0 0 32 32" fill="none" xmlns="http://www.w3.org/2000/svg">
<path d="M21.7041 12.5C22.0981 12.5001 22.4756 12.6553 22.7529 12.9307C22.9797 13.156 23.1236 13.4474 23.1689 13.7588V20.5859C23.1689 20.8621 23.3928 21.0859 23.6689 21.0859C23.945 21.0859 24.1689 20.862 24.1689 20.5859V17.5156C24.4071 17.5167 24.6437 17.5285 24.8242 17.5635C25.0676 17.6177 25.3014 17.7078 25.5156 17.8311L25.5225 17.835C25.7099 17.9389 25.8556 18.1045 25.9336 18.3027L25.999 18.4697V20.5859C25.999 20.8621 26.2229 21.0859 26.499 21.0859C26.7751 21.0859 26.999 20.862 26.999 20.5859V18.5918C27.2439 18.594 27.4889 18.6183 27.6748 18.6924C27.9679 18.809 28.2608 19.1022 28.4727 19.3545L28.4736 19.3555C28.5443 19.4392 28.6123 19.5247 28.6758 19.6104L28.749 19.709V21.0859C28.749 21.3621 28.9729 21.5859 29.249 21.5859C29.5251 21.5859 29.749 21.362 29.749 21.0859V19.8125L29.9189 19.8223C30.1023 19.8414 30.2823 19.8885 30.4512 19.9629C30.6767 20.0624 30.8789 20.2085 31.0439 20.3896C31.2088 20.5707 31.3342 20.7844 31.4111 21.0166C31.488 21.2487 31.5156 21.4941 31.4912 21.7363L31.1836 24.791C31.1353 25.2711 30.9858 25.7359 30.7451 26.1543L29.165 28.9004C29.0608 29.0816 28.9095 29.2333 28.7266 29.3389C28.5436 29.4443 28.3353 29.4999 28.124 29.5H20.8945C20.6972 29.5 20.5016 29.4511 20.3271 29.3584H20.3281C20.1544 29.2659 20.0056 29.1323 19.8965 28.9697L18.2734 26.5518C18.0931 26.2832 17.9721 25.9797 17.917 25.6621L17.8975 25.5254L17.5068 22.0312C17.474 21.7369 17.5525 21.4405 17.7285 21.2012C17.905 20.9615 18.1673 20.795 18.4619 20.7363L19.249 20.5801V22.5859C19.249 22.8621 19.4729 23.0859 19.749 23.0859C20.0251 23.0859 20.249 22.862 20.249 22.5859V13.6943C20.304 13.4073 20.4441 13.1404 20.6553 12.9307C20.9326 12.6554 21.31 12.5 21.7041 12.5Z" fill="#6D7882"/>
<path d="M3.13672 11.5215C3.46975 11.1905 4.00816 11.1845 4.34863 11.5078L6.84082 13.877C7.18665 14.2058 7.19893 14.7519 6.86816 15.0957C6.5374 15.4395 5.98848 15.4517 5.64258 15.123L4.66016 14.1885V14.5088C4.66024 19.3532 8.61451 23.2773 13.5 23.2773C14.193 23.2762 14.8808 23.1921 15.5508 23.0332L15.7432 24.7578C15.0086 24.9163 14.2572 24.9989 13.501 25H13.5C7.66067 25 2.92685 20.3084 2.92676 14.5088V14.167L1.97949 15.1094C1.64109 15.4457 1.09236 15.4456 0.753906 15.1094C0.415452 14.7729 0.415452 14.2271 0.753906 13.8906L3.13672 11.5215ZM15.3955 8.00391C15.4867 7.99062 15.5804 8.00855 15.6602 8.05469V8.05566C15.74 8.10204 15.8022 8.1748 15.8359 8.26074C15.8695 8.34677 15.8729 8.44201 15.8457 8.53027L14.3721 13.3184H17.0908C17.1706 13.3184 17.2488 13.342 17.3154 13.3857C17.3821 13.4296 17.4351 13.4922 17.4668 13.5654C17.4983 13.6385 17.5078 13.7195 17.4941 13.7979C17.4803 13.8764 17.4434 13.9497 17.3887 14.0078L10.8428 20.9629C10.7796 21.0299 10.6956 21.0735 10.6045 21.0869C10.5131 21.1002 10.4187 21.0826 10.3389 21.0361C10.2592 20.9896 10.1976 20.917 10.1641 20.8311C10.1306 20.745 10.1271 20.6497 10.1543 20.5615L11.6279 15.7725H8.90918C8.8296 15.7724 8.75115 15.7496 8.68457 15.7061C8.61806 15.6623 8.56485 15.5994 8.5332 15.5264C8.50166 15.4531 8.49206 15.3715 8.50586 15.293C8.51974 15.2144 8.55657 15.1411 8.61133 15.083L15.1562 8.12891C15.2195 8.06173 15.3043 8.01731 15.3955 8.00391ZM13.4717 4C18.2918 4.00026 22.3584 7.20282 23.6299 11.5811C23.1094 11.2366 22.5042 11.0348 21.876 11.0039L21.7041 11C21.6637 11 21.6233 11.0005 21.583 11.002C20.2234 7.89682 17.1045 5.72286 13.4717 5.72266C12.1439 5.72103 10.8315 6.01807 9.63477 6.58984C8.43798 7.16169 7.38579 7.99456 6.55762 9.02637C6.25906 9.39798 5.71388 9.4587 5.33984 9.16211C4.9657 8.86535 4.9046 8.3231 5.20312 7.95117C6.19386 6.7169 7.45213 5.7202 8.88379 5.03613C10.3152 4.35225 11.8835 3.99815 13.4717 4Z" fill="#6D7882"/>
</svg>
