<svg width="21" height="17" viewBox="0 0 21 17" fill="none" xmlns="http://www.w3.org/2000/svg">
<path d="M3.06233 0L2.09992 0.97387L17.9376 17L18.9 16.0261L3.06233 0Z" fill="#6C6BA8"/>
<path d="M10.6461 5.67035L13.2961 8.35182C13.2592 7.65274 12.9682 6.99213 12.479 6.4971C11.9898 6.00207 11.337 5.7076 10.6461 5.67035Z" fill="#6C6BA8"/>
<path d="M10.3539 11.329L7.70393 8.64755C7.74075 9.34663 8.03175 10.0072 8.52096 10.5023C9.01017 10.9973 9.66301 11.2918 10.3539 11.329Z" fill="#6C6BA8"/>
<path d="M10.5 12.7497C9.85387 12.7497 9.21644 12.5989 8.63731 12.3089C8.05818 12.019 7.55297 11.5978 7.16098 11.078C6.76899 10.5583 6.5008 9.95398 6.37727 9.31222C6.25374 8.67045 6.2782 8.0085 6.44875 7.37787L3.42694 4.31965C2.19275 5.4636 1.01675 6.95641 0 8.49969C1.15588 10.4476 2.737 12.4504 4.38375 13.5988C6.27288 14.9154 8.32694 15.583 10.4895 15.583C11.6713 15.5838 12.8443 15.3771 13.9563 14.9721L11.6108 12.5992C11.2489 12.6994 10.8753 12.75 10.5 12.7497Z" fill="#6C6BA8"/>
<path d="M10.5 4.2497C11.1461 4.24967 11.7836 4.40049 12.3627 4.69043C12.9418 4.98037 13.447 5.4016 13.839 5.92136C14.231 6.44112 14.4992 7.04539 14.6227 7.68716C14.7463 8.32892 14.7218 8.99087 14.5512 9.62151L17.6426 12.7497C18.9179 11.5876 20.0957 10.0244 21 8.49969C19.8459 6.57701 18.2481 4.57908 16.5734 3.41653C14.6606 2.08929 12.6136 1.41638 10.4895 1.41638C9.32068 1.41808 8.16169 1.63236 7.06781 2.04901L9.39137 4.40022C9.75261 4.30017 10.1255 4.24955 10.5 4.2497Z" fill="#6C6BA8"/>
</svg>
