<svg width="32" height="32" viewBox="0 0 32 32" fill="none" xmlns="http://www.w3.org/2000/svg">
<path d="M26 20L30 24L26 28V20Z" fill="#6D7882" stroke="#6D7882" stroke-width="1.5" stroke-linecap="round" stroke-linejoin="round"/>
<path d="M2 8H21C22.0609 8 23.0783 8.42143 23.8284 9.17157C24.5786 9.92172 25 10.9391 25 12C25 13.0609 24.5786 14.0783 23.8284 14.8284C23.0783 15.5786 22.0609 16 21 16H20" stroke="#6D7882" stroke-width="1.5" stroke-linecap="round" stroke-linejoin="round"/>
<path d="M20 16H8C6.93913 16 5.92172 16.4214 5.17157 17.1716C4.42143 17.9217 4 18.9391 4 20C4 21.0609 4.42143 22.0783 5.17157 22.8284C5.92172 23.5786 6.93913 24 8 24H26" stroke="#6D7882" stroke-width="1.5" stroke-linecap="round" stroke-linejoin="round"/>
<circle cx="17" cy="8" r="3" fill="#6D7882"/>
<circle cx="12" cy="16" r="3" fill="#6D7882"/>
<circle cx="19" cy="24" r="3" fill="#6D7882"/>
</svg>
