<svg width="24" height="24" viewBox="0 0 24 24" fill="none" xmlns="http://www.w3.org/2000/svg">
<mask id="path-1-inside-1_542_3387" fill="white">
<path fill-rule="evenodd" clip-rule="evenodd" d="M16.4704 2L20.9998 5.49995V2H21V22H3V2H16.4704Z"/>
</mask>
<path fill-rule="evenodd" clip-rule="evenodd" d="M16.4704 2L20.9998 5.49995V2H21V22H3V2H16.4704Z" fill="white"/>
<path d="M20.9998 5.49995L20.3884 6.29124L21.9998 7.53645V5.49995H20.9998ZM16.4704 2L17.0819 1.20872L16.8118 1H16.4704V2ZM20.9998 2V1H19.9998V2H20.9998ZM21 2H22V1H21V2ZM21 22V23H22V22H21ZM3 22H2V23H3V22ZM3 2V1H2V2H3ZM20.9998 5.49995L21.6112 4.70867L17.0819 1.20872L16.4704 2L15.859 2.79128L20.3884 6.29124L20.9998 5.49995ZM20.9998 2H19.9998V5.49995H20.9998H21.9998V2H20.9998ZM20.9998 2V3H21V2V1H20.9998V2ZM21 2H20V22H21H22V2H21ZM21 22V21H3V22V23H21V22ZM3 22H4V2H3H2V22H3ZM3 2V3H16.4704V2V1H3V2Z" fill="#BDC2CA" mask="url(#path-1-inside-1_542_3387)"/>
<rect width="18" height="9" transform="translate(3 14)" fill="#3D9BCF"/>
<path d="M5.48153 18.7926V21H4.42259V15.9091H5.4517V17.8555H5.49645C5.58262 17.6301 5.72183 17.4536 5.91406 17.326C6.1063 17.1967 6.34742 17.1321 6.63743 17.1321C6.90258 17.1321 7.13376 17.1901 7.33097 17.3061C7.52983 17.4205 7.68395 17.5853 7.79332 17.8008C7.90436 18.0146 7.95904 18.2706 7.95739 18.5689V21H6.89844V18.7578C6.90009 18.5225 6.84044 18.3394 6.71946 18.2085C6.60014 18.0775 6.43277 18.0121 6.21733 18.0121C6.07315 18.0121 5.94555 18.0427 5.83452 18.104C5.72514 18.1654 5.63897 18.2549 5.57599 18.3725C5.51468 18.4885 5.48319 18.6286 5.48153 18.7926ZM10.8216 17.1818V17.9773H8.52228V17.1818H10.8216ZM9.0443 16.267H10.1032V19.8267C10.1032 19.9245 10.1182 20.0007 10.148 20.0554C10.1778 20.1084 10.2193 20.1457 10.2723 20.1673C10.327 20.1888 10.3899 20.1996 10.4612 20.1996C10.5109 20.1996 10.5606 20.1954 10.6104 20.1871C10.6601 20.1772 10.6982 20.1697 10.7247 20.1648L10.8912 20.9528C10.8382 20.9693 10.7636 20.9884 10.6675 21.0099C10.5714 21.0331 10.4546 21.0472 10.317 21.0522C10.0618 21.0621 9.8381 21.0282 9.64586 20.9503C9.45529 20.8724 9.30697 20.7514 9.20091 20.5874C9.09484 20.4233 9.04264 20.2161 9.0443 19.9659V16.267ZM11.5115 21V17.1818H12.5207V17.8555H12.5654C12.645 17.6317 12.7776 17.4553 12.9632 17.326C13.1488 17.1967 13.3708 17.1321 13.6294 17.1321C13.8912 17.1321 14.1141 17.1976 14.298 17.3285C14.482 17.4577 14.6046 17.6334 14.6659 17.8555H14.7057C14.7836 17.6367 14.9244 17.4619 15.1283 17.331C15.3338 17.1984 15.5766 17.1321 15.8566 17.1321C16.2129 17.1321 16.5021 17.2456 16.7242 17.4727C16.9479 17.698 17.0597 18.0179 17.0597 18.4322V21H16.0033V18.641C16.0033 18.4289 15.9469 18.2698 15.8343 18.1637C15.7216 18.0576 15.5807 18.0046 15.4117 18.0046C15.2194 18.0046 15.0695 18.0659 14.9617 18.1886C14.854 18.3095 14.8002 18.4695 14.8002 18.6683V21H13.7735V18.6186C13.7735 18.4313 13.7197 18.2822 13.6119 18.1712C13.5059 18.0601 13.3659 18.0046 13.1919 18.0046C13.0742 18.0046 12.9681 18.0344 12.8737 18.0941C12.7809 18.1521 12.7071 18.2341 12.6524 18.3402C12.5977 18.4446 12.5704 18.5672 12.5704 18.7081V21H11.5115ZM18.9552 15.9091V21H17.8962V15.9091H18.9552Z" fill="white"/>
<path d="M6.62891 9.40163V8.52663L10.1289 6.98544V7.99219L7.7326 8.95419L7.76491 8.90199V9.02628L7.7326 8.97408L10.1289 9.93608V10.9428L6.62891 9.40163ZM13.3977 5.67045L11.7571 11.7656H10.8448L12.4854 5.67045H13.3977ZM17.6143 9.40163L14.1143 10.9428V9.93608L16.5106 8.97408L16.4782 9.02628V8.90199L16.5106 8.95419L14.1143 7.99219V6.98544L17.6143 8.52663V9.40163Z" fill="#2E3242"/>
</svg>
