<svg width="20" height="21" viewBox="0 0 20 21" fill="none" xmlns="http://www.w3.org/2000/svg">
<mask id="path-1-inside-1_1148_5447" fill="white">
<path d="M9.22266 6H16C17.1045 6.00008 18 6.89548 18 8V16C18 17.1045 17.1045 17.9999 16 18H4C2.89543 18 2 17.1046 2 16V5.5C2 4.39543 2.89543 3.5 4 3.5H8.66699L9.22266 6Z"/>
</mask>
<path d="M9.22266 6H16C17.1045 6.00008 18 6.89548 18 8V16C18 17.1045 17.1045 17.9999 16 18H4C2.89543 18 2 17.1046 2 16V5.5C2 4.39543 2.89543 3.5 4 3.5H8.66699L9.22266 6Z" fill="#A8B6C3"/>
<path d="M9.22266 6L8.24648 6.21697L8.42052 7H9.22266V6ZM16 6L16.0001 5H16V6ZM18 8H19H18ZM18 16H19H18ZM16 18V19H16.0001L16 18ZM2 16H1H2ZM8.66699 3.5L9.64317 3.28303L9.46913 2.5H8.66699V3.5ZM9.22266 6V7H16V6V5H9.22266V6ZM16 6L15.9999 7C16.5523 7.00004 17 7.44784 17 8H18H19C19 6.34312 17.6567 5.00013 16.0001 5L16 6ZM18 8H17V16H18H19V8H18ZM18 16H17C17 16.5522 16.5523 17 15.9999 17L16 18L16.0001 19C17.6567 18.9999 19 17.6569 19 16H18ZM16 18V17H4V18V19H16V18ZM4 18V17C3.44772 17 3 16.5523 3 16H2H1C1 17.6569 2.34315 19 4 19V18ZM2 16H3V5.5H2H1V16H2ZM2 5.5H3C3 4.94772 3.44772 4.5 4 4.5V3.5V2.5C2.34315 2.5 1 3.84315 1 5.5H2ZM4 3.5V4.5H8.66699V3.5V2.5H4V3.5ZM8.66699 3.5L7.69081 3.71697L8.24648 6.21697L9.22266 6L10.1988 5.78303L9.64317 3.28303L8.66699 3.5Z" fill="#A8B6C3" mask="url(#path-1-inside-1_1148_5447)"/>
<path d="M11.4558 4.86754C11.1836 4.05086 10.4193 3.5 9.55848 3.5H5.33333L4 9.5H13L11.4558 4.86754Z" fill="#A8B6C3"/>
<path d="M16 8.5H7.3913L5 10.5" stroke="white" stroke-linecap="round"/>
<path d="M13 5H16" stroke="#A8B6C3" stroke-linecap="round"/>
</svg>
