<svg width="24" height="24" viewBox="0 0 24 24" fill="none" xmlns="http://www.w3.org/2000/svg">
<mask id="mask0_2758_7269" style="mask-type:alpha" maskUnits="userSpaceOnUse" x="0" y="0" width="24" height="24">
<rect width="24" height="24" fill="#D9D9D9"/>
</mask>
<g mask="url(#mask0_2758_7269)">
<mask id="mask1_2758_7269" style="mask-type:alpha" maskUnits="userSpaceOnUse" x="3" y="0" width="20" height="23">
<path d="M22.5 23V1L12.75 0.75L15.5 3.5L5.5 15.5L3 23H22.5Z" fill="#D9D9D9"/>
</mask>
<g mask="url(#mask1_2758_7269)">
<mask id="path-3-inside-1_2758_7269" fill="white">
<path d="M20 21H5V3H20V21Z"/>
</mask>
<path d="M20 21H5V3H20V21Z" fill="white"/>
<path d="M20 21V22H21V21H20ZM5 21H4V22H5V21ZM5 3V2H4V3H5ZM20 3H21V2H20V3ZM20 21V20H5V21V22H20V21ZM5 21H6V3H5H4V21H5ZM5 3V4H20V3V2H5V3ZM20 3H19V21H20H21V3H20Z" fill="#BDC2CA" mask="url(#path-3-inside-1_2758_7269)"/>
</g>
<path d="M16 8.5632L9.8539 14.8056C9.10095 15.5704 8.07974 16 7.01492 16C5.9501 16 4.92889 15.5704 4.17594 14.8056C3.423 14.0409 3 13.0037 3 11.9222C3 10.8406 3.423 9.80342 4.17594 9.03868L10.322 2.79625C10.824 2.28642 11.5048 2 12.2147 2C12.9246 2 13.6054 2.28642 14.1073 2.79625C14.6093 3.30608 14.8913 3.99756 14.8913 4.71856C14.8913 5.43957 14.6093 6.13105 14.1073 6.64088L7.95456 12.8833C7.70358 13.1382 7.36317 13.2814 7.00823 13.2814C6.65329 13.2814 6.31289 13.1382 6.06191 12.8833C5.81093 12.6284 5.66993 12.2827 5.66993 11.9222C5.66993 11.5616 5.81093 11.2159 6.06191 10.961L11.7399 5.20084" stroke="#566379" stroke-width="1.5" stroke-linecap="round" stroke-linejoin="round"/>
</g>
</svg>
