<svg width="24" height="24" viewBox="0 0 24 24" fill="none" xmlns="http://www.w3.org/2000/svg">
<mask id="path-1-inside-1_542_3339" fill="white">
<path fill-rule="evenodd" clip-rule="evenodd" d="M16.4706 2L21 5.5V22H3V2H16.4706Z"/>
</mask>
<path fill-rule="evenodd" clip-rule="evenodd" d="M16.4706 2L21 5.5V22H3V2H16.4706Z" fill="white"/>
<path d="M21 5.5H22V5.00896L21.6114 4.70872L21 5.5ZM16.4706 2L17.082 1.20872L16.8119 1H16.4706V2ZM21 22V23H22V22H21ZM3 22H2V23H3V22ZM3 2V1H2V2H3ZM21 5.5L21.6114 4.70872L17.082 1.20872L16.4706 2L15.8591 2.79128L20.3886 6.29128L21 5.5ZM21 5.5H20V22H21H22V5.5H21ZM21 22V21H3V22V23H21V22ZM3 22H4V2H3H2V22H3ZM3 2V3H16.4706V2V1H3V2Z" fill="#BDC2CA" mask="url(#path-1-inside-1_542_3339)"/>
<circle cx="6.5" cy="7.5" r="1.5" fill="#BDC2CA"/>
<path d="M14.0909 6L7 14H20L14.0909 6Z" fill="#D0D7E1"/>
<path d="M9 9L3 16H14L9 9Z" fill="#AFB6C2"/>
<rect width="18" height="9" transform="translate(3 14)" fill="#36AF78"/>
<path d="M9.81818 17.5547C9.78338 17.4337 9.73449 17.3268 9.67152 17.234C9.60855 17.1396 9.53149 17.06 9.44034 16.9954C9.35085 16.9291 9.24811 16.8786 9.1321 16.8438C9.01776 16.8089 8.89098 16.7915 8.75178 16.7915C8.4916 16.7915 8.2629 16.8562 8.0657 16.9854C7.87015 17.1147 7.71768 17.3028 7.60831 17.5497C7.49893 17.795 7.44425 18.0949 7.44425 18.4496C7.44425 18.8042 7.49811 19.1058 7.60582 19.3544C7.71354 19.603 7.866 19.7927 8.06321 19.9237C8.26042 20.0529 8.49325 20.1175 8.76172 20.1175C9.00533 20.1175 9.21331 20.0745 9.38565 19.9883C9.55966 19.9004 9.69224 19.777 9.78338 19.6179C9.87618 19.4588 9.92259 19.2707 9.92259 19.0536L10.1413 19.0859H8.82884V18.2756H10.9592V18.9169C10.9592 19.3643 10.8647 19.7488 10.6758 20.0703C10.4869 20.3902 10.2267 20.6371 9.89524 20.8111C9.5638 20.9834 9.1843 21.0696 8.75675 21.0696C8.27947 21.0696 7.8602 20.9644 7.49893 20.7539C7.13767 20.5418 6.85594 20.241 6.65376 19.8516C6.45324 19.4605 6.35298 18.9964 6.35298 18.4595C6.35298 18.0469 6.41264 17.679 6.53196 17.3558C6.65294 17.031 6.82197 16.7559 7.03906 16.5305C7.25616 16.3052 7.50888 16.1336 7.79723 16.016C8.08558 15.8983 8.39796 15.8395 8.73438 15.8395C9.02273 15.8395 9.29119 15.8817 9.53977 15.9663C9.78835 16.0491 10.0088 16.1668 10.201 16.3192C10.3949 16.4717 10.5531 16.6532 10.6758 16.8636C10.7984 17.0724 10.8771 17.3028 10.9119 17.5547H9.81818ZM12.844 15.9091V21H11.7677V15.9091H12.844ZM13.7296 21V15.9091H17.1003V16.7965H14.8059V18.0096H16.8766V18.897H14.8059V21H13.7296Z" fill="white"/>
</svg>
