<svg width="32" height="32" viewBox="0 0 32 32" fill="none" xmlns="http://www.w3.org/2000/svg">
<path d="M10.6455 18.6514C11.1649 21.1548 12.0898 23.567 13.3975 25.7861C9.1589 25.2204 5.62186 22.4427 3.98242 18.6514H10.6455ZM20.7773 21.3252C20.1507 21.9341 19.663 22.6773 19.3574 23.5068C19.1552 24.056 19.0392 24.6281 19.0088 25.2041C18.244 25.4752 17.4444 25.6727 16.6172 25.7842C17.9245 23.5654 18.8505 21.1543 19.3701 18.6514H20.7773V21.3252ZM17.8379 18.6514C17.3014 21.0638 16.3604 23.3801 15.04 25.4961C15.0282 25.515 15.0177 25.5352 15.0078 25.5547C14.9979 25.5352 14.9873 25.5159 14.9756 25.4971V25.4961C13.6552 23.3801 12.7142 21.0638 12.1777 18.6514H17.8379ZM3.46973 10.5684C3.57134 10.6198 3.68495 10.6514 3.80664 10.6514H10.3818C10.2318 11.7214 10.1523 12.8044 10.1523 13.8936L10.1572 14.3398C10.1758 15.2839 10.2529 16.2225 10.3838 17.1514H3.80664C3.68667 17.1514 3.57419 17.1814 3.47363 17.2314C3.16724 16.1715 3 15.0522 3 13.8936C3 12.7396 3.1657 11.6245 3.46973 10.5684ZM21.2461 10.6514C20.943 11.2316 20.7773 11.8815 20.7773 12.5527V17.1514H19.6318C19.7628 16.2225 19.8398 15.2839 19.8584 14.3398L19.8633 13.8936C19.8633 12.8043 19.783 11.7214 19.6328 10.6514H21.2461ZM18.1182 10.6514C18.2572 11.5787 18.3391 12.5163 18.3584 13.459L18.3633 13.8936C18.3633 14.9881 18.2772 16.0766 18.1152 17.1514H11.9004C11.76 16.2196 11.6766 15.2775 11.6572 14.3301L11.6523 13.8936C11.6523 12.8044 11.737 11.7211 11.8975 10.6514H18.1182ZM26.4297 10.9004L26.5713 11.0264C26.5227 10.9792 26.4714 10.9349 26.4189 10.8926C26.4224 10.8954 26.4263 10.8976 26.4297 10.9004ZM16.6182 2.00195C20.5898 2.53731 23.9422 5.01699 25.6934 8.4502C25.4653 8.41276 25.2334 8.39355 25 8.39355C24.1304 8.39356 23.2826 8.65931 22.5723 9.15137H19.373C18.8541 6.64274 17.9283 4.22543 16.6182 2.00195ZM13.3965 2C12.086 4.22387 11.1614 6.64223 10.6426 9.15137H3.97559C5.61194 5.35232 9.15246 2.56675 13.3965 2ZM15.04 2.29102C16.3632 4.41155 17.3049 6.73329 17.8408 9.15137H12.1748C12.7107 6.73329 13.6524 4.41156 14.9756 2.29102V2.29004C14.9873 2.27129 14.997 2.25175 15.0068 2.23242C15.0168 2.25212 15.0281 2.27192 15.04 2.29102Z" fill="#6D7882"/>
<path d="M25.083 10.3906C25.6846 10.3906 26.2621 10.614 26.6875 11.0117C27.1129 11.4095 27.3516 11.9492 27.3516 12.5117V22.0654C28.0798 22.5204 28.6325 23.1821 28.9277 23.9531C29.2228 24.7242 29.2453 25.564 28.9912 26.3477C28.7369 27.1315 28.2193 27.8187 27.5156 28.3066C26.812 28.7944 25.9589 29.0576 25.083 29.0576C24.2071 29.0575 23.3539 28.7945 22.6504 28.3066C21.9469 27.8187 21.43 27.1314 21.1758 26.3477C20.9216 25.564 20.9432 24.7242 21.2383 23.9531C21.5334 23.1822 22.0863 22.5204 22.8145 22.0654V12.5117C22.8145 11.9492 23.0541 11.4095 23.4795 11.0117C23.9048 10.6142 24.4816 10.3907 25.083 10.3906ZM25 23.4346C23.8955 23.4346 23 24.33 23 25.4346C23.0001 26.539 23.8956 27.4345 25 27.4346C26.1045 27.4346 26.9999 26.539 27 25.4346C27 24.33 26.1046 23.4346 25 23.4346ZM25.0498 17.2344C24.7278 17.2344 24.466 17.4954 24.4658 17.8174V21.3174C24.4658 21.6395 24.7277 21.9013 25.0498 21.9014C25.3718 21.9012 25.6328 21.6394 25.6328 21.3174V17.8174C25.6326 17.4955 25.3717 17.2346 25.0498 17.2344Z" fill="#6D7882"/>
</svg>
