<svg width="20" height="20" viewBox="0 0 20 20" fill="none" xmlns="http://www.w3.org/2000/svg">
<path d="M10.4996 3C9.65697 2.99976 8.8382 3.28573 8.17257 3.81278C7.50694 4.33983 7.03235 5.07793 6.82371 5.91061C6.61506 6.74329 6.68424 7.62312 7.02032 8.41125C7.35641 9.19938 7.94026 9.85092 8.67973 10.2631C7.36127 10.6557 6.19847 11.4638 5.35788 12.5716C4.5173 13.6795 4.04207 15.0302 4.00026 16.4304C3.99805 16.503 4.00988 16.5753 4.03508 16.6432C4.06028 16.7111 4.09836 16.7733 4.14714 16.8262C4.19592 16.8791 4.25444 16.9217 4.31937 16.9515C4.38429 16.9813 4.45433 16.9978 4.5255 17H16.4745C16.6181 16.9956 16.7541 16.9332 16.8526 16.8265C16.9511 16.7198 17.004 16.5776 16.9998 16.4312C16.958 15.031 16.4827 13.6802 15.6421 12.5724C14.8016 11.4645 13.6388 10.6564 12.3203 10.2638C13.0602 9.85181 13.6444 9.20019 13.9808 8.41183C14.3171 7.62347 14.3864 6.74331 14.1776 5.91034C13.9688 5.07738 13.4939 4.33908 12.8279 3.81205C12.1618 3.28503 11.3426 2.9993 10.4996 3Z" fill="#7E8E9D"/>
</svg>
