<svg width="21" height="14" viewBox="0 0 21 14" fill="none" xmlns="http://www.w3.org/2000/svg">
<path d="M10.5 9.8C12.0464 9.8 13.3 8.5464 13.3 7C13.3 5.4536 12.0464 4.2 10.5 4.2C8.9536 4.2 7.7 5.4536 7.7 7C7.7 8.5464 8.9536 9.8 10.5 9.8Z" fill="#6C6BA8"/>
<path d="M16.5734 1.97662C14.6606 0.665 12.6136 0 10.4895 0C8.57806 0 6.71475 0.56875 4.95119 1.6835C3.17275 2.81006 1.42931 4.85625 0 7C1.15587 8.925 2.737 10.9042 4.38375 12.0391C6.27287 13.3402 8.32694 14 10.4895 14C12.6332 14 14.6829 13.3407 16.5839 12.0404C18.2573 10.8937 19.8498 8.91712 21 7C19.8459 5.09994 18.2481 3.1255 16.5734 1.97662ZM10.5 11.2C9.66932 11.2 8.85729 10.9537 8.1666 10.4922C7.47592 10.0307 6.93759 9.37472 6.61971 8.60727C6.30182 7.83982 6.21864 6.99534 6.3807 6.18062C6.54276 5.3659 6.94277 4.61753 7.53015 4.03015C8.11753 3.44277 8.8659 3.04276 9.68062 2.8807C10.4953 2.71864 11.3398 2.80182 12.1073 3.11971C12.8747 3.43759 13.5307 3.97592 13.9922 4.6666C14.4537 5.35729 14.7 6.16932 14.7 7C14.6987 8.11352 14.2558 9.18106 13.4684 9.96844C12.6811 10.7558 11.6135 11.1987 10.5 11.2Z" fill="#6C6BA8"/>
</svg>
