<svg width="32" height="32" viewBox="0 0 32 32" fill="none" xmlns="http://www.w3.org/2000/svg">
<path d="M28 23.4619C27.9999 24.352 27.6625 25.2056 27.0625 25.835C26.4624 26.4644 25.6485 26.8184 24.7998 26.8184H7.2002C6.35154 26.8184 5.53761 26.4644 4.9375 25.835C4.33747 25.2056 4.0001 24.352 4 23.4619V13.7275H28V23.4619ZM14.9102 17V19.1846H12.7285V21.3662H14.9102V23.5459H17.0928V21.3662H19.2744V19.1846H17.0928V17H14.9102ZM20 5C20.6363 5.00069 21.2463 5.26631 21.6963 5.73828C22.1462 6.21024 22.3997 6.85014 22.4004 7.51758V8.35645H24.7998C25.6482 8.35742 26.4616 8.71161 27.0615 9.34082C27.6614 9.97001 27.999 10.8231 28 11.7129V12.0488H4V11.7129C4.00103 10.8231 4.33865 9.97001 4.93848 9.34082C5.53838 8.71161 6.35184 8.35742 7.2002 8.35645H9.59961V7.51758C9.60027 6.85014 9.85381 6.21024 10.3037 5.73828C10.7537 5.26631 11.3637 5.00069 12 5H20ZM12 6.67871C11.7879 6.67871 11.5846 6.76663 11.4346 6.92383C11.2845 7.0812 11.2002 7.29502 11.2002 7.51758V8.35645H20.7998V7.51758C20.7998 7.29502 20.7155 7.0812 20.5654 6.92383C20.4154 6.76663 20.212 6.67871 20 6.67871H12Z" fill="#6D7882"/>
</svg>
