<svg width="32" height="32" viewBox="0 0 32 32" fill="none" xmlns="http://www.w3.org/2000/svg">
<mask id="mask0_2045_8120" style="mask-type:alpha" maskUnits="userSpaceOnUse" x="9" y="7" width="15" height="15">
<path d="M16.2982 21.7526C20.2728 21.7526 23.4948 18.5306 23.4948 14.556C23.4948 10.5814 20.2728 7.35938 16.2982 7.35938C12.3236 7.35938 9.10156 10.5814 9.10156 14.556C9.10156 18.5306 12.3236 21.7526 16.2982 21.7526Z" fill="#6D7882"/>
</mask>
<g mask="url(#mask0_2045_8120)">
<path d="M17.1191 22.002C16.9727 22.2354 16.6646 22.307 16.4307 22.1611C16.3756 22.1267 16.3303 22.0824 16.2939 22.0332C16.2577 22.0821 16.2129 22.127 16.1582 22.1611C15.9241 22.3067 15.6148 22.2358 15.4688 22.002C15.399 21.8902 15.334 21.7756 15.2676 21.6621C15.6022 21.7098 15.9442 21.7363 16.292 21.7363C16.6412 21.7363 16.9844 21.7092 17.3203 21.6611C17.2538 21.7747 17.189 21.8901 17.1191 22.002ZM13.6348 17.4453C13.9463 18.9246 14.498 20.3483 15.2676 21.6621C12.7733 21.3066 10.6927 19.6733 9.70801 17.4453H13.6348ZM22.876 17.4453C21.8919 19.6721 19.8127 21.3044 17.3203 21.6611C18.0898 20.3474 18.6423 18.9245 18.9541 17.4453H22.876ZM17.9287 17.4453C17.6091 18.8496 17.059 20.1982 16.2939 21.4336C15.529 20.1982 14.9797 18.8495 14.6602 17.4453H17.9287ZM23.2178 16.4902C23.3911 16.5688 23.5117 16.7426 23.5117 16.9453C23.5114 17.1868 23.3401 17.3891 23.1123 17.4355L23.0117 17.4453H22.876C23.0119 17.1377 23.1255 16.8186 23.2178 16.4902ZM9.36523 16.4932C9.45743 16.8207 9.5724 17.1385 9.70801 17.4453H9.57812C9.30261 17.4448 9.07846 17.2209 9.07812 16.9453C9.07812 16.7457 9.19596 16.5733 9.36523 16.4932ZM9.36426 12.5898C9.4293 12.621 9.5013 12.6405 9.57812 12.6406H13.4619C13.3767 13.2677 13.332 13.9026 13.332 14.54C13.3321 15.1795 13.3771 15.8162 13.4629 16.4453H9.57812C9.50194 16.4455 9.42987 16.4626 9.36523 16.4932C9.1904 15.872 9.09475 15.2171 9.09473 14.54C9.09473 13.8641 9.19003 13.2101 9.36426 12.5898ZM23.2197 12.5938C23.3933 13.2129 23.4883 13.8655 23.4883 14.54C23.4883 15.2162 23.3922 15.8698 23.2178 16.4902C23.1844 16.4751 23.1491 16.4626 23.1123 16.4551L23.0117 16.4453H19.126C19.2119 15.8162 19.2568 15.1795 19.2568 14.54C19.2568 13.9026 19.2123 13.2678 19.127 12.6406H23.0117L23.1123 12.6309C23.1499 12.6232 23.1857 12.6094 23.2197 12.5938ZM18.1172 12.6406C18.209 13.2671 18.2568 13.9021 18.2568 14.54C18.2568 15.18 18.2086 15.8169 18.1162 16.4453H14.4727C14.3802 15.8169 14.3321 15.18 14.332 14.54C14.332 13.9021 14.3799 13.267 14.4717 12.6406H18.1172ZM23.0117 11.6406L23.1123 11.6504C23.3403 11.6969 23.5117 11.8989 23.5117 12.1406C23.5115 12.3422 23.3918 12.5148 23.2197 12.5938C23.1279 12.266 23.0142 11.9477 22.8789 11.6406H23.0117ZM9.70508 11.6406C9.57023 11.9466 9.45597 12.2633 9.36426 12.5898C9.19603 12.5094 9.07837 12.3393 9.07812 12.1406C9.07812 11.8648 9.30241 11.6411 9.57812 11.6406H9.70508ZM17.3193 7.41699C19.8147 7.77377 21.8958 9.41021 22.8789 11.6406H18.9541C18.6424 10.1588 18.0903 8.73294 17.3193 7.41699ZM15.2686 7.41602C14.4975 8.73204 13.9453 10.1586 13.6338 11.6406H9.70508C10.6887 9.40899 12.7714 7.77152 15.2686 7.41602ZM16.2939 7.64648C17.0602 8.88378 17.6103 10.2342 17.9297 11.6406H14.6592C14.9785 10.2346 15.5279 8.88355 16.2939 7.64648ZM16.4307 6.91992C16.6649 6.77375 16.9729 6.84493 17.1191 7.0791C17.1885 7.19029 17.2532 7.30412 17.3193 7.41699C16.9837 7.36901 16.6408 7.34278 16.292 7.34277C15.9446 7.34277 15.6028 7.36843 15.2686 7.41602C15.3345 7.3034 15.3995 7.19005 15.4688 7.0791C15.6149 6.8449 15.924 6.7739 16.1582 6.91992C16.2127 6.954 16.2578 6.99724 16.2939 7.0459C16.33 6.99721 16.3762 6.95406 16.4307 6.91992Z" fill="#6D7882"/>
</g>
<path d="M13.5093 24.5547C7.564 22.9513 4.04519 16.8311 5.6496 10.8858" stroke="#6D7882" stroke-width="1.5" stroke-miterlimit="10" stroke-linecap="round" stroke-linejoin="round"/>
<path d="M4.76504 7.48654C5.20385 5.85909 7.23659 4.99405 7.23659 4.99405C7.23659 4.99405 8.55823 6.76497 8.11943 8.39032C7.68063 10.0178 5.64789 10.8828 5.64789 10.8828C5.64789 10.8828 4.32624 9.11294 4.76504 7.48654Z" fill="#6D7882" stroke="#6D7882" stroke-miterlimit="10" stroke-linecap="round" stroke-linejoin="round"/>
<path d="M1.30743 15.0197C0.181618 13.7672 0.561774 11.5899 0.561774 11.5899C0.561774 11.5899 2.76627 11.4444 3.89207 12.6969C5.01788 13.9505 4.63773 16.1277 4.63773 16.1277C4.63773 16.1277 2.43324 16.2723 1.30743 15.0197Z" fill="#6D7882" stroke="#6D7882" stroke-miterlimit="10" stroke-linecap="round" stroke-linejoin="round"/>
<path d="M4.43639 18.7517C6.06279 19.1905 6.92783 21.2232 6.92783 21.2232C6.92783 21.2232 5.1569 22.5449 3.53155 22.106C1.90515 21.6672 1.03906 19.6345 1.03906 19.6345C1.03906 19.6345 2.80999 18.3129 4.43639 18.7517Z" fill="#6D7882" stroke="#6D7882" stroke-miterlimit="10" stroke-linecap="round" stroke-linejoin="round"/>
<path d="M9.33465 26.9666C7.87371 27.8065 5.82422 26.9813 5.82422 26.9813C5.82422 26.9813 6.14259 24.7946 7.60247 23.9547C9.06236 23.1148 11.1119 23.94 11.1119 23.94C11.1119 23.94 10.7945 26.1267 9.33465 26.9666Z" fill="#6D7882" stroke="#6D7882" stroke-miterlimit="10" stroke-linecap="round" stroke-linejoin="round"/>
<path d="M18.4922 24.5547C24.4375 22.9513 27.9563 16.8311 26.3519 10.8858" stroke="#6D7882" stroke-width="1.5" stroke-miterlimit="10" stroke-linecap="round" stroke-linejoin="round"/>
<path d="M27.2366 7.48654C26.7978 5.85909 24.7651 4.99405 24.7651 4.99405C24.7651 4.99405 23.4434 6.76497 23.8822 8.39032C24.321 10.0178 26.3538 10.8828 26.3538 10.8828C26.3538 10.8828 27.6754 9.11294 27.2366 7.48654Z" fill="#6D7882" stroke="#6D7882" stroke-miterlimit="10" stroke-linecap="round" stroke-linejoin="round"/>
<path d="M30.6925 15.0197C31.8183 13.7672 31.4392 11.5899 31.4392 11.5899C31.4392 11.5899 29.2336 11.4444 28.1089 12.6969C26.9831 13.9505 27.3622 16.1277 27.3622 16.1277C27.3622 16.1277 29.5667 16.2723 30.6925 15.0197Z" fill="#6D7882" stroke="#6D7882" stroke-miterlimit="10" stroke-linecap="round" stroke-linejoin="round"/>
<path d="M27.5657 18.7517C25.9393 19.1905 25.0742 21.2232 25.0742 21.2232C25.0742 21.2232 26.8451 22.5449 28.4705 22.106C30.0969 21.6672 30.963 19.6345 30.963 19.6345C30.963 19.6345 29.1921 18.3129 27.5657 18.7517Z" fill="#6D7882" stroke="#6D7882" stroke-miterlimit="10" stroke-linecap="round" stroke-linejoin="round"/>
<path d="M22.6689 26.9666C24.1288 27.8065 26.1793 26.9813 26.1793 26.9813C26.1793 26.9813 25.8609 24.7946 24.4011 23.9547C22.9412 23.1148 20.8906 23.94 20.8906 23.94C20.8906 23.94 21.209 26.1267 22.6689 26.9666Z" fill="#6D7882" stroke="#6D7882" stroke-miterlimit="10" stroke-linecap="round" stroke-linejoin="round"/>
</svg>
