<svg width="20" height="20" viewBox="0 0 20 20" fill="none" xmlns="http://www.w3.org/2000/svg">
<path fill-rule="evenodd" clip-rule="evenodd" d="M10 3.28C6.28865 3.28 3.28 6.28865 3.28 10C3.28 13.7114 6.28865 16.72 10 16.72C13.7114 16.72 16.72 13.7114 16.72 10C16.72 6.28865 13.7114 3.28 10 3.28ZM2 10C2 5.58172 5.58172 2 10 2C14.4183 2 18 5.58172 18 10C18 14.4183 14.4183 18 10 18C5.58172 18 2 14.4183 2 10Z" fill="#6D7882"/>
<path d="M7.56873 9.20001L9.96873 11.6L12.3687 9.20001" stroke="#6D7882" stroke-width="1.5" stroke-linecap="round"/>
</svg>
