<svg width="130" height="80" viewBox="0 0 130 80" fill="none" xmlns="http://www.w3.org/2000/svg">
<mask id="mask0_2564_17765" style="mask-type:alpha" maskUnits="userSpaceOnUse" x="0" y="0" width="130" height="80">
<rect width="130" height="80" fill="#D9D9D9"/>
</mask>
<g mask="url(#mask0_2564_17765)">
<rect x="16" y="47" width="98" height="22" rx="11" fill="white" stroke="#B5BBC0" stroke-width="2"/>
<path d="M42.3608 62.0515H41.6899C41.512 62.0515 41.3414 61.9862 41.2156 61.8701C41.0897 61.7539 41.0191 61.5964 41.0191 61.4321L41.0201 59.7711C41.0201 59.7575 41.0163 59.7442 41.0089 59.7324C41.0016 59.7206 40.991 59.7108 40.9782 59.704C40.9655 59.6972 40.951 59.6936 40.9363 59.6936C40.9216 59.6936 40.9071 59.6972 40.8943 59.704L39.3358 60.5374C39.1842 60.6182 39.0041 60.64 38.835 60.5982C38.666 60.5564 38.5218 60.4543 38.4343 60.3144L38.0884 59.7601L38.0871 59.7582C38.0019 59.6183 37.9796 59.4532 38.0249 59.2983C38.0703 59.1433 38.1796 59.011 38.3295 58.9298L39.8937 58.0927C39.9064 58.0859 39.9169 58.0761 39.9243 58.0644C39.9316 58.0526 39.9354 58.0393 39.9354 58.0257C39.9354 58.0122 39.9316 57.9988 39.9243 57.9871C39.9169 57.9753 39.9064 57.9656 39.8937 57.9588L38.3309 57.1225C38.2557 57.0826 38.1897 57.0295 38.1368 56.966C38.0839 56.9026 38.045 56.8301 38.0225 56.7528C38 56.6755 37.9943 56.5948 38.0057 56.5154C38.0171 56.436 38.0453 56.3595 38.0888 56.2902L38.4335 55.7376C38.477 55.6678 38.5351 55.6066 38.6045 55.5576C38.6738 55.5087 38.753 55.4729 38.8375 55.4524C38.9209 55.4317 39.008 55.4265 39.0937 55.4371C39.1793 55.4478 39.2618 55.474 39.3364 55.5143L40.8943 56.3465C40.9071 56.3533 40.9216 56.3569 40.9363 56.3569C40.951 56.3569 40.9655 56.3533 40.9782 56.3465C40.991 56.3397 41.0016 56.3299 41.0089 56.3181C41.0163 56.3063 41.0201 56.293 41.0201 56.2794L41.0191 54.6193C41.0191 54.4551 41.0897 54.2976 41.2156 54.1814C41.3414 54.0653 41.512 54 41.6899 54H42.3608C42.5387 54 42.7094 54.0653 42.8352 54.1814C42.961 54.2976 43.0317 54.4551 43.0317 54.6193V56.2784C43.0317 56.292 43.0355 56.3054 43.0429 56.3172C43.0502 56.3289 43.0608 56.3387 43.0736 56.3455C43.0863 56.3524 43.1008 56.3559 43.1155 56.3559C43.1303 56.3559 43.1447 56.3524 43.1575 56.3456L44.716 55.5122C44.8676 55.4315 45.0477 55.4097 45.2167 55.4515C45.3857 55.4933 45.5299 55.5953 45.6175 55.7351L45.9632 56.2894L45.9645 56.2912C46.0506 56.4312 46.0733 56.597 46.0276 56.7524C45.9819 56.9078 45.8715 57.0402 45.7205 57.1207L44.1579 57.9568C44.1452 57.9636 44.1347 57.9734 44.1273 57.9852C44.12 57.9969 44.1162 58.0102 44.1162 58.0238C44.1162 58.0374 44.12 58.0507 44.1273 58.0624C44.1347 58.0742 44.1452 58.084 44.1579 58.0908L45.7205 58.9269C45.7957 58.9667 45.8617 59.0199 45.9146 59.0833C45.9675 59.1467 46.0064 59.2192 46.0289 59.2965C46.0514 59.3739 46.0572 59.4545 46.0458 59.5339C46.0345 59.6133 46.0063 59.6898 45.9628 59.7591L45.6181 60.3117C45.5746 60.3816 45.5165 60.4427 45.4471 60.4917C45.3778 60.5407 45.2986 60.5765 45.2141 60.597C45.1307 60.6177 45.0436 60.6228 44.9579 60.6122C44.8723 60.6016 44.7898 60.5753 44.7152 60.535L43.1573 59.7028C43.1445 59.696 43.1301 59.6924 43.1154 59.6924C43.1007 59.6924 43.0862 59.696 43.0735 59.7028C43.0607 59.7096 43.0501 59.7193 43.0428 59.7311C43.0354 59.7428 43.0315 59.7562 43.0315 59.7698L43.0317 61.4321C43.0317 61.5964 42.961 61.7539 42.8352 61.8701C42.7094 61.9862 42.5387 62.0515 42.3608 62.0515Z" fill="#6D7882"/>
<path d="M57.4155 62.0515H56.7446C56.5667 62.0515 56.3961 61.9862 56.2702 61.8701C56.1444 61.7539 56.0738 61.5964 56.0738 61.4321L56.0748 59.7711C56.0748 59.7575 56.071 59.7442 56.0636 59.7324C56.0563 59.7206 56.0457 59.7108 56.0329 59.704C56.0202 59.6972 56.0057 59.6936 55.991 59.6936C55.9762 59.6936 55.9618 59.6972 55.949 59.704L54.3905 60.5374C54.2389 60.6182 54.0588 60.64 53.8897 60.5982C53.7207 60.5564 53.5765 60.4543 53.489 60.3144L53.1431 59.7601L53.1418 59.7582C53.0566 59.6183 53.0343 59.4532 53.0796 59.2983C53.1249 59.1433 53.2343 59.011 53.3842 58.9298L54.9484 58.0927C54.9611 58.0859 54.9716 58.0761 54.9789 58.0644C54.9863 58.0526 54.9901 58.0393 54.9901 58.0257C54.9901 58.0122 54.9863 57.9988 54.9789 57.9871C54.9716 57.9753 54.9611 57.9656 54.9484 57.9588L53.3856 57.1225C53.3104 57.0826 53.2444 57.0295 53.1915 56.966C53.1386 56.9026 53.0997 56.8301 53.0772 56.7528C53.0547 56.6755 53.049 56.5948 53.0604 56.5154C53.0717 56.436 53.1 56.3595 53.1435 56.2902L53.4881 55.7376C53.5317 55.6678 53.5898 55.6066 53.6592 55.5576C53.7285 55.5087 53.8077 55.4729 53.8921 55.4524C53.9756 55.4317 54.0627 55.4265 54.1483 55.4371C54.234 55.4478 54.3165 55.474 54.3911 55.5143L55.949 56.3465C55.9618 56.3533 55.9762 56.3569 55.991 56.3569C56.0057 56.3569 56.0202 56.3533 56.0329 56.3465C56.0457 56.3397 56.0563 56.3299 56.0636 56.3181C56.071 56.3063 56.0748 56.293 56.0748 56.2794L56.0738 54.6193C56.0738 54.4551 56.1444 54.2976 56.2702 54.1814C56.3961 54.0653 56.5667 54 56.7446 54H57.4155C57.5934 54 57.7641 54.0653 57.8899 54.1814C58.0157 54.2976 58.0864 54.4551 58.0864 54.6193V56.2784C58.0864 56.292 58.0902 56.3054 58.0976 56.3172C58.1049 56.3289 58.1155 56.3387 58.1283 56.3455C58.141 56.3524 58.1555 56.3559 58.1702 56.3559C58.1849 56.3559 58.1994 56.3524 58.2122 56.3456L59.7707 55.5122C59.9223 55.4315 60.1024 55.4097 60.2714 55.4515C60.4404 55.4933 60.5846 55.5953 60.6722 55.7351L61.0179 56.2894L61.0192 56.2912C61.1053 56.4312 61.128 56.597 61.0823 56.7524C61.0366 56.9078 60.9262 57.0402 60.7751 57.1207L59.2126 57.9568C59.1999 57.9636 59.1894 57.9734 59.182 57.9852C59.1747 57.9969 59.1708 58.0102 59.1708 58.0238C59.1708 58.0374 59.1747 58.0507 59.182 58.0624C59.1894 58.0742 59.1999 58.084 59.2126 58.0908L60.7751 58.9269C60.8504 58.9667 60.9164 59.0199 60.9693 59.0833C61.0222 59.1467 61.0611 59.2192 61.0836 59.2965C61.1061 59.3739 61.1118 59.4545 61.1005 59.5339C61.0892 59.6133 61.061 59.6898 61.0175 59.7591L60.6728 60.3117C60.6293 60.3816 60.5711 60.4427 60.5018 60.4917C60.4325 60.5407 60.3533 60.5765 60.2688 60.597C60.1854 60.6177 60.0983 60.6228 60.0126 60.6122C59.927 60.6016 59.8445 60.5753 59.7699 60.535L58.212 59.7028C58.1992 59.696 58.1848 59.6924 58.1701 59.6924C58.1553 59.6924 58.1409 59.696 58.1281 59.7028C58.1154 59.7096 58.1048 59.7193 58.0974 59.7311C58.0901 59.7428 58.0862 59.7562 58.0862 59.7698L58.0864 61.4321C58.0864 61.5964 58.0157 61.7539 57.8899 61.8701C57.7641 61.9862 57.5934 62.0515 57.4155 62.0515Z" fill="#6D7882"/>
<path d="M72.4624 62.0515H71.7915C71.6136 62.0515 71.4429 61.9862 71.3171 61.8701C71.1913 61.7539 71.1206 61.5964 71.1206 61.4321L71.1217 59.7711C71.1217 59.7575 71.1178 59.7442 71.1105 59.7324C71.1031 59.7206 71.0925 59.7108 71.0798 59.704C71.067 59.6972 71.0526 59.6936 71.0378 59.6936C71.0231 59.6936 71.0086 59.6972 70.9959 59.704L69.4374 60.5374C69.2858 60.6182 69.1056 60.64 68.9366 60.5982C68.7675 60.5564 68.6234 60.4543 68.5359 60.3144L68.1899 59.7601L68.1887 59.7582C68.1035 59.6183 68.0812 59.4532 68.1265 59.2983C68.1718 59.1433 68.2812 59.011 68.431 58.9298L69.9952 58.0927C70.0079 58.0859 70.0185 58.0761 70.0258 58.0644C70.0331 58.0526 70.037 58.0393 70.037 58.0257C70.037 58.0122 70.0331 57.9988 70.0258 57.9871C70.0185 57.9753 70.0079 57.9656 69.9952 57.9588L68.4325 57.1225C68.3573 57.0826 68.2913 57.0295 68.2384 56.966C68.1854 56.9026 68.1466 56.8301 68.1241 56.7528C68.1016 56.6755 68.0959 56.5948 68.1072 56.5154C68.1186 56.436 68.1469 56.3595 68.1904 56.2902L68.535 55.7376C68.5786 55.6678 68.6367 55.6066 68.7061 55.5576C68.7754 55.5087 68.8546 55.4729 68.939 55.4524C69.0225 55.4317 69.1096 55.4265 69.1952 55.4371C69.2809 55.4478 69.3634 55.474 69.438 55.5143L70.9959 56.3465C71.0086 56.3533 71.0231 56.3569 71.0378 56.3569C71.0526 56.3569 71.067 56.3533 71.0798 56.3465C71.0925 56.3397 71.1031 56.3299 71.1105 56.3181C71.1178 56.3063 71.1217 56.293 71.1217 56.2794L71.1206 54.6193C71.1206 54.4551 71.1913 54.2976 71.3171 54.1814C71.4429 54.0653 71.6136 54 71.7915 54H72.4624C72.6403 54 72.811 54.0653 72.9368 54.1814C73.0626 54.2976 73.1333 54.4551 73.1333 54.6193V56.2784C73.1332 56.292 73.1371 56.3054 73.1444 56.3172C73.1518 56.3289 73.1624 56.3387 73.1751 56.3455C73.1879 56.3524 73.2024 56.3559 73.2171 56.3559C73.2318 56.3559 73.2463 56.3524 73.259 56.3456L74.8176 55.5122C74.9692 55.4315 75.1493 55.4097 75.3183 55.4515C75.4873 55.4933 75.6314 55.5953 75.7191 55.7351L76.0648 56.2894L76.066 56.2912C76.1522 56.4312 76.1749 56.597 76.1292 56.7524C76.0835 56.9078 75.973 57.0402 75.822 57.1207L74.2595 57.9568C74.2468 57.9636 74.2362 57.9734 74.2289 57.9852C74.2216 57.9969 74.2177 58.0102 74.2177 58.0238C74.2177 58.0374 74.2216 58.0507 74.2289 58.0624C74.2362 58.0742 74.2468 58.084 74.2595 58.0908L75.822 58.9269C75.8973 58.9667 75.9632 59.0199 76.0162 59.0833C76.0691 59.1467 76.1079 59.2192 76.1304 59.2965C76.153 59.3739 76.1587 59.4545 76.1474 59.5339C76.136 59.6133 76.1078 59.6898 76.0644 59.7591L75.7197 60.3117C75.6762 60.3816 75.618 60.4427 75.5487 60.4917C75.4793 60.5407 75.4001 60.5765 75.3157 60.597C75.2322 60.6177 75.1452 60.6228 75.0595 60.6122C74.9738 60.6016 74.8913 60.5753 74.8167 60.535L73.2588 59.7028C73.2461 59.696 73.2316 59.6924 73.2169 59.6924C73.2022 59.6924 73.1878 59.696 73.175 59.7028C73.1623 59.7096 73.1517 59.7193 73.1443 59.7311C73.137 59.7428 73.1331 59.7562 73.133 59.7698L73.1333 61.4321C73.1333 61.5964 73.0626 61.7539 72.9368 61.8701C72.811 61.9862 72.6403 62.0515 72.4624 62.0515Z" fill="#6D7882"/>
<path d="M87.5171 62.0515H86.8462C86.6683 62.0515 86.4976 61.9862 86.3718 61.8701C86.246 61.7539 86.1753 61.5964 86.1753 61.4321L86.1764 59.7711C86.1764 59.7575 86.1725 59.7442 86.1652 59.7324C86.1578 59.7206 86.1472 59.7108 86.1345 59.704C86.1217 59.6972 86.1073 59.6936 86.0925 59.6936C86.0778 59.6936 86.0633 59.6972 86.0506 59.704L84.492 60.5374C84.3405 60.6182 84.1603 60.64 83.9913 60.5982C83.8222 60.5564 83.6781 60.4543 83.5905 60.3144L83.2446 59.7601L83.2434 59.7582C83.1582 59.6183 83.1359 59.4532 83.1812 59.2983C83.2265 59.1433 83.3359 59.011 83.4857 58.9298L85.0499 58.0927C85.0626 58.0859 85.0732 58.0761 85.0805 58.0644C85.0878 58.0526 85.0917 58.0393 85.0917 58.0257C85.0917 58.0122 85.0878 57.9988 85.0805 57.9871C85.0732 57.9753 85.0626 57.9656 85.0499 57.9588L83.4872 57.1225C83.4119 57.0826 83.346 57.0295 83.293 56.966C83.2401 56.9026 83.2013 56.8301 83.1788 56.7528C83.1563 56.6755 83.1506 56.5948 83.1619 56.5154C83.1733 56.436 83.2015 56.3595 83.245 56.2902L83.5897 55.7376C83.6333 55.6678 83.6914 55.6066 83.7607 55.5576C83.8301 55.5087 83.9093 55.4729 83.9937 55.4524C84.0772 55.4317 84.1643 55.4265 84.2499 55.4371C84.3356 55.4478 84.4181 55.474 84.4927 55.5143L86.0506 56.3465C86.0633 56.3533 86.0778 56.3569 86.0925 56.3569C86.1073 56.3569 86.1217 56.3533 86.1345 56.3465C86.1472 56.3397 86.1578 56.3299 86.1652 56.3181C86.1725 56.3063 86.1764 56.293 86.1764 56.2794L86.1753 54.6193C86.1753 54.4551 86.246 54.2976 86.3718 54.1814C86.4976 54.0653 86.6683 54 86.8462 54H87.5171C87.695 54 87.8656 54.0653 87.9915 54.1814C88.1173 54.2976 88.1879 54.4551 88.1879 54.6193V56.2784C88.1879 56.292 88.1918 56.3054 88.1991 56.3172C88.2065 56.3289 88.2171 56.3387 88.2298 56.3455C88.2426 56.3524 88.257 56.3559 88.2718 56.3559C88.2865 56.3559 88.301 56.3524 88.3137 56.3456L89.8723 55.5122C90.0239 55.4315 90.204 55.4097 90.373 55.4515C90.542 55.4933 90.6861 55.5953 90.7738 55.7351L91.1195 56.2894L91.1207 56.2912C91.2069 56.4312 91.2296 56.597 91.1839 56.7524C91.1381 56.9078 91.0277 57.0402 90.8767 57.1207L89.3142 57.9568C89.3015 57.9636 89.2909 57.9734 89.2836 57.9852C89.2763 57.9969 89.2724 58.0102 89.2724 58.0238C89.2724 58.0374 89.2763 58.0507 89.2836 58.0624C89.2909 58.0742 89.3015 58.084 89.3142 58.0908L90.8767 58.9269C90.9519 58.9667 91.0179 59.0199 91.0708 59.0833C91.1238 59.1467 91.1626 59.2192 91.1851 59.2965C91.2077 59.3739 91.2134 59.4545 91.2021 59.5339C91.1907 59.6133 91.1625 59.6898 91.1191 59.7591L90.7744 60.3117C90.7308 60.3816 90.6727 60.4427 90.6034 60.4917C90.534 60.5407 90.4548 60.5765 90.3704 60.597C90.2869 60.6177 90.1998 60.6228 90.1142 60.6122C90.0285 60.6016 89.946 60.5753 89.8714 60.535L88.3135 59.7028C88.3008 59.696 88.2863 59.6924 88.2716 59.6924C88.2569 59.6924 88.2425 59.696 88.2297 59.7028C88.217 59.7096 88.2064 59.7193 88.199 59.7311C88.1916 59.7428 88.1878 59.7562 88.1877 59.7698L88.1879 61.4321C88.1879 61.5964 88.1173 61.7539 87.9915 61.8701C87.8656 61.9862 87.695 62.0515 87.5171 62.0515Z" fill="#6D7882"/>
<mask id="mask1_2564_17765" style="mask-type:alpha" maskUnits="userSpaceOnUse" x="51" y="11" width="28" height="28">
<rect x="51" y="11" width="28" height="28" fill="#D9D9D9"/>
</mask>
<g mask="url(#mask1_2564_17765)">
<path d="M64.9994 12.75C63.5247 12.7496 62.0919 13.2554 60.927 14.1877C59.7621 15.12 58.9316 16.4256 58.5665 17.8985C58.2014 19.3714 58.3224 20.9277 58.9106 22.3218C59.4987 23.7159 60.5205 24.8683 61.8145 25.5973C59.5072 26.2918 57.4723 27.7212 56.0013 29.6809C54.5303 31.6405 53.6986 34.0299 53.6255 36.5066C53.6216 36.635 53.6423 36.7629 53.6864 36.883C53.7305 37.0031 53.7971 37.1131 53.8825 37.2067C53.9679 37.3003 54.0703 37.3756 54.1839 37.4283C54.2975 37.4811 54.4201 37.5102 54.5446 37.5141H75.4554C75.7067 37.5062 75.9447 37.3958 76.1171 37.2072C76.2894 37.0185 76.3821 36.7669 76.3746 36.5079C76.3014 34.0312 75.4698 31.6418 73.9987 29.6822C72.5277 27.7226 70.4928 26.2931 68.1855 25.5986C69.4803 24.8699 70.5028 23.7173 71.0914 22.3228C71.6799 20.9283 71.8011 19.3714 71.4358 17.898C71.0704 16.4246 70.2393 15.1187 69.0738 14.1864C67.9082 13.2542 66.4746 12.7488 64.9994 12.75Z" fill="#B5BBC0"/>
</g>
<path d="M76.2228 40.4455C79.6595 40.4455 82.4455 37.6595 82.4455 34.2228C82.4455 30.786 79.6595 28 76.2228 28C72.786 28 70 30.786 70 34.2228C70 37.6595 72.786 40.4455 76.2228 40.4455Z" fill="white" stroke="#6D7882" stroke-width="2" stroke-linecap="round" stroke-linejoin="round"/>
<path d="M84.0008 42.0008L80.6172 38.6172" stroke="#6D7882" stroke-width="2" stroke-linecap="round" stroke-linejoin="round"/>
</g>
</svg>
