<svg width="24" height="24" viewBox="0 0 24 24" fill="none" xmlns="http://www.w3.org/2000/svg">
<mask id="path-1-inside-1_542_3404" fill="white">
<path fill-rule="evenodd" clip-rule="evenodd" d="M16.4704 2L20.9998 5.49995V2H21V22H3V2H16.4704Z"/>
</mask>
<path fill-rule="evenodd" clip-rule="evenodd" d="M16.4704 2L20.9998 5.49995V2H21V22H3V2H16.4704Z" fill="white"/>
<path d="M20.9998 5.49995L20.3884 6.29124L21.9998 7.53645V5.49995H20.9998ZM16.4704 2L17.0819 1.20872L16.8118 1H16.4704V2ZM20.9998 2V1H19.9998V2H20.9998ZM21 2H22V1H21V2ZM21 22V23H22V22H21ZM3 22H2V23H3V22ZM3 2V1H2V2H3ZM20.9998 5.49995L21.6112 4.70867L17.0819 1.20872L16.4704 2L15.859 2.79128L20.3884 6.29124L20.9998 5.49995ZM20.9998 2H19.9998V5.49995H20.9998H21.9998V2H20.9998ZM20.9998 2V3H21V2V1H20.9998V2ZM21 2H20V22H21H22V2H21ZM21 22V21H3V22V23H21V22ZM3 22H4V2H3H2V22H3ZM3 2V3H16.4704V2V1H3V2Z" fill="#BDC2CA" mask="url(#path-1-inside-1_542_3404)"/>
<rect width="18" height="9" transform="translate(3 14)" fill="#A73636"/>
<path d="M4.44247 15.9091H5.76989L7.17188 19.3295H7.23153L8.63352 15.9091H9.96094V21H8.9169V17.6864H8.87465L7.55717 20.9751H6.84624L5.52876 17.674H5.48651V21H4.44247V15.9091ZM10.8477 21V15.9091H12.8563C13.2424 15.9091 13.5713 15.9828 13.8431 16.1303C14.1149 16.2762 14.3221 16.4792 14.4646 16.7393C14.6088 16.9979 14.6808 17.2962 14.6808 17.6342C14.6808 17.9723 14.6079 18.2706 14.4621 18.5291C14.3163 18.7876 14.105 18.989 13.8282 19.1332C13.5531 19.2773 13.22 19.3494 12.8289 19.3494H11.5487V18.4869H12.6549C12.8621 18.4869 13.0328 18.4512 13.167 18.38C13.3029 18.3071 13.404 18.2068 13.4703 18.0792C13.5382 17.9499 13.5722 17.8016 13.5722 17.6342C13.5722 17.4652 13.5382 17.3177 13.4703 17.1918C13.404 17.0642 13.3029 16.9656 13.167 16.896C13.0311 16.8247 12.8588 16.7891 12.6499 16.7891H11.9241V21H10.8477ZM18.7557 17.5547C18.7209 17.4337 18.672 17.3268 18.609 17.234C18.546 17.1396 18.469 17.06 18.3778 16.9954C18.2884 16.9291 18.1856 16.8786 18.0696 16.8438C17.9553 16.8089 17.8285 16.7915 17.6893 16.7915C17.4291 16.7915 17.2004 16.8562 17.0032 16.9854C16.8076 17.1147 16.6552 17.3028 16.5458 17.5497C16.4364 17.795 16.3817 18.0949 16.3817 18.4496C16.3817 18.8042 16.4356 19.1058 16.5433 19.3544C16.651 19.603 16.8035 19.7927 17.0007 19.9237C17.1979 20.0529 17.4308 20.1175 17.6992 20.1175C17.9428 20.1175 18.1508 20.0745 18.3232 19.9883C18.4972 19.9004 18.6297 19.777 18.7209 19.6179C18.8137 19.4588 18.8601 19.2707 18.8601 19.0536L19.0788 19.0859H17.7663V18.2756H19.8967V18.9169C19.8967 19.3643 19.8022 19.7488 19.6133 20.0703C19.4244 20.3902 19.1642 20.6371 18.8327 20.8111C18.5013 20.9834 18.1218 21.0696 17.6942 21.0696C17.217 21.0696 16.7977 20.9644 16.4364 20.7539C16.0752 20.5418 15.7934 20.241 15.5913 19.8516C15.3907 19.4605 15.2905 18.9964 15.2905 18.4595C15.2905 18.0469 15.3501 17.679 15.4695 17.3558C15.5904 17.031 15.7595 16.7559 15.9766 16.5305C16.1937 16.3052 16.4464 16.1336 16.7347 16.016C17.0231 15.8983 17.3355 15.8395 17.6719 15.8395C17.9602 15.8395 18.2287 15.8817 18.4773 15.9663C18.7259 16.0491 18.9463 16.1668 19.1385 16.3192C19.3324 16.4717 19.4906 16.6532 19.6133 16.8636C19.7359 17.0724 19.8146 17.3028 19.8494 17.5547H18.7557Z" fill="white"/>
<path d="M11.5 4C9.01465 4 7 6.01476 7 8.50004C7 10.9853 9.01465 13 11.5 13C13.9852 13 16 10.9853 16 8.50004C16 6.01476 13.9852 4 11.5 4ZM13.4007 8.63768L10.5104 10.3063C10.3793 10.382 10.2721 10.3201 10.2721 10.1686V6.83144C10.2721 6.67997 10.3793 6.61809 10.5104 6.6938L13.4007 8.36245C13.5318 8.43804 13.5318 8.56204 13.4007 8.63768Z" fill="#A73636"/>
</svg>
