<svg width="32" height="32" viewBox="0 0 32 32" fill="none" xmlns="http://www.w3.org/2000/svg">
<path d="M19.2956 18.488C19.2956 20.4618 17.6955 22.0618 15.7217 22.0618C13.7479 22.0618 12.1478 20.4618 12.1478 18.488C12.1478 16.5141 13.7479 14.9141 15.7217 14.9141C17.6955 14.9141 19.2956 16.5141 19.2956 18.488Z" fill="#6D7882"/>
<path d="M25.2521 20.8706C25.2521 22.1864 24.1853 23.2531 22.8695 23.2531C21.5536 23.2531 20.4869 22.1864 20.4869 20.8706C20.4869 19.5547 21.5536 18.488 22.8695 18.488C24.1853 18.488 25.2521 19.5547 25.2521 20.8706Z" fill="#6D7882"/>
<path d="M20.4869 28.0183C20.4869 25.3866 18.3534 23.2531 15.7217 23.2531C13.0899 23.2531 10.9565 25.3866 10.9565 28.0183V29.2096H20.4869V28.0183Z" fill="#6D7882"/>
<path d="M10.9565 20.8706C10.9565 22.1864 9.88976 23.2531 8.57389 23.2531C7.25802 23.2531 6.1913 22.1864 6.1913 20.8706C6.1913 19.5547 7.25802 18.488 8.57389 18.488C9.88976 18.488 10.9565 19.5547 10.9565 20.8706Z" fill="#6D7882"/>
<path d="M22.8695 29.2096V28.0183C22.8695 26.7625 22.5456 25.5824 21.9769 24.5568C22.2622 24.4835 22.5613 24.4444 22.8695 24.4444C24.8433 24.4444 26.4434 26.0445 26.4434 28.0183V29.2096H22.8695Z" fill="#6D7882"/>
<path d="M9.46649 24.5568C8.89775 25.5824 8.57389 26.7625 8.57389 28.0183V29.2096H5V28.0183C5 26.0445 6.60009 24.4444 8.57389 24.4444C8.88209 24.4444 9.18118 24.4835 9.46649 24.5568Z" fill="#6D7882"/>
<mask id="mask0_2045_8041" style="mask-type:alpha" maskUnits="userSpaceOnUse" x="7" y="3" width="18" height="17">
<path d="M15.8238 19.882C20.4856 19.882 24.2648 16.1028 24.2648 11.441C24.2648 6.77916 20.4856 3 15.8238 3C11.162 3 7.38281 6.77916 7.38281 11.441C7.38281 16.1028 11.162 19.882 15.8238 19.882Z" fill="#6D7882"/>
</mask>
<g mask="url(#mask0_2045_8041)">
<path d="M19.2793 18.8506C19.2692 18.9501 19.2534 19.0486 19.2354 19.1455C19.2422 19.107 19.2499 19.0681 19.2559 19.0293L19.2793 18.8506ZM19.293 18.3018L19.2979 18.4854C19.2978 18.4021 19.2937 18.3191 19.2881 18.2373C19.2895 18.2586 19.2919 18.2804 19.293 18.3018ZM19.2256 17.7646C19.2375 17.8229 19.2478 17.8822 19.2568 17.9414C19.269 18.0214 19.2765 18.1029 19.2832 18.1846C19.2691 18.0175 19.2452 17.8531 19.209 17.6934C19.2144 17.7169 19.2207 17.7409 19.2256 17.7646ZM12.2412 17.6787L12.1904 17.9414C12.1995 17.8822 12.2098 17.8229 12.2217 17.7646L12.2412 17.6787ZM11.5928 14.7451C11.045 15.3498 10.6271 16.0745 10.3857 16.876C9.98295 16.6931 9.54754 16.5702 9.09082 16.5166C8.6796 15.9736 8.33205 15.3797 8.06055 14.7451H11.5928ZM23.5879 14.7451C23.3197 15.372 22.976 15.9585 22.5713 16.4961C22.0356 16.5324 21.5263 16.6644 21.0605 16.876C20.8192 16.0746 20.402 15.3497 19.8545 14.7451H23.5879ZM7.72363 13.8018C7.81803 14.1244 7.92992 14.4398 8.06055 14.7451H7.95215C7.67625 14.7451 7.45254 14.5209 7.45215 14.2451C7.4523 14.0517 7.56283 13.8849 7.72363 13.8018ZM23.9258 13.7959C24.0926 13.877 24.2088 14.0474 24.209 14.2451C24.2086 14.5206 23.9844 14.7446 23.709 14.7451H23.5879C23.7193 14.4379 23.831 14.1205 23.9258 13.7959ZM7.72266 9.05566C7.79162 9.09161 7.86903 9.11523 7.95215 9.11523H12.6064C12.4983 9.87755 12.4424 10.6502 12.4424 11.4258C12.4425 12.2045 12.4993 12.9799 12.6084 13.7451H7.95215C7.86959 13.7451 7.79226 13.7663 7.72363 13.8018C7.50335 13.0488 7.38285 12.2519 7.38281 11.4277C7.38285 10.6041 7.50269 9.80818 7.72266 9.05566ZM23.9258 9.0625C24.1445 9.81312 24.2656 10.6065 24.2656 11.4277C24.2656 12.2499 24.145 13.0446 23.9258 13.7959C23.8601 13.764 23.7868 13.7453 23.709 13.7451H19.0527C19.1619 12.9799 19.2187 12.2045 19.2188 11.4258C19.2188 10.6502 19.1629 9.8775 19.0547 9.11523H23.709C23.787 9.11509 23.86 9.09455 23.9258 9.0625ZM18.042 9.11523C18.1572 9.87686 18.2188 10.6496 18.2188 11.4258C18.2187 12.0997 18.1696 12.7701 18.082 13.4336C17.3659 13.0986 16.5666 12.9111 15.7236 12.9111C14.9588 12.9112 14.2299 13.0659 13.5664 13.3447C13.4863 12.7102 13.4424 12.0696 13.4424 11.4258C13.4424 10.6496 13.5039 9.87689 13.6191 9.11523H18.042ZM23.709 8.11523C23.9847 8.11575 24.209 8.33941 24.209 8.61523C24.2085 8.81252 24.0923 8.98143 23.9258 9.0625C23.8313 8.73855 23.7198 8.42181 23.5889 8.11523H23.709ZM8.05957 8.11523C7.92944 8.41986 7.81674 8.73387 7.72266 9.05566C7.563 8.97231 7.4526 8.80763 7.45215 8.61523C7.45215 8.33909 7.67601 8.11523 7.95215 8.11523H8.05957ZM14.7285 3.05957C13.8004 4.63079 13.1449 6.34064 12.7803 8.11523H8.05957C9.2103 5.42166 11.7205 3.44955 14.7285 3.05957ZM15.877 3.24902C16.8149 4.75242 17.4811 6.40014 17.8574 8.11523H13.8037C14.1801 6.40001 14.8461 4.75253 15.7842 3.24902C15.8033 3.21831 15.8183 3.18508 15.8301 3.15234C15.8419 3.18509 15.8578 3.2183 15.877 3.24902ZM16.9307 3.06055C19.9338 3.45391 22.4395 5.42493 23.5889 8.11523H18.8799C18.5151 6.34093 17.8586 4.63159 16.9307 3.06055ZM16.0361 2.56055C16.2703 2.41454 16.5784 2.48562 16.7246 2.71973C16.7949 2.83233 16.8633 2.94646 16.9307 3.06055C16.5686 3.01313 16.1993 2.98731 15.8242 2.9873C15.4529 2.9873 15.0872 3.01307 14.7285 3.05957C14.7959 2.94553 14.8653 2.83229 14.9355 2.71973C15.0817 2.4855 15.3907 2.41447 15.625 2.56055C15.7249 2.62318 15.7939 2.71609 15.8301 2.81934C15.8663 2.71579 15.9358 2.62322 16.0361 2.56055Z" fill="#6D7882"/>
</g>
</svg>
