<svg width="24" height="24" viewBox="0 0 24 24" fill="none" xmlns="http://www.w3.org/2000/svg">
<mask id="path-1-inside-1_542_3349" fill="white">
<path fill-rule="evenodd" clip-rule="evenodd" d="M16.4706 2L21 5.5V22H3V2H16.4706Z"/>
</mask>
<path fill-rule="evenodd" clip-rule="evenodd" d="M16.4706 2L21 5.5V22H3V2H16.4706Z" fill="white"/>
<path d="M21 5.5H22V5.00896L21.6114 4.70872L21 5.5ZM16.4706 2L17.082 1.20872L16.8119 1H16.4706V2ZM21 22V23H22V22H21ZM3 22H2V23H3V22ZM3 2V1H2V2H3ZM21 5.5L21.6114 4.70872L17.082 1.20872L16.4706 2L15.8591 2.79128L20.3886 6.29128L21 5.5ZM21 5.5H20V22H21H22V5.5H21ZM21 22V21H3V22V23H21V22ZM3 22H4V2H3H2V22H3ZM3 2V3H16.4706V2V1H3V2Z" fill="#BDC2CA" mask="url(#path-1-inside-1_542_3349)"/>
<circle cx="6.5" cy="7.5" r="1.5" fill="#BDC2CA"/>
<path d="M14.0909 6L7 14H20L14.0909 6Z" fill="#D0D7E1"/>
<path d="M9 9L3 16H14L9 9Z" fill="#AFB6C2"/>
<rect width="18" height="9" transform="translate(3 14)" fill="#F69A27"/>
<path d="M7.48082 15.9091H8.54474V19.4588C8.54474 19.7869 8.471 20.072 8.32351 20.3139C8.17768 20.5559 7.97467 20.7423 7.71449 20.8732C7.45431 21.0041 7.15187 21.0696 6.80717 21.0696C6.50059 21.0696 6.22218 21.0157 5.97195 20.908C5.72337 20.7987 5.52616 20.6329 5.38033 20.4109C5.23449 20.1871 5.16241 19.9062 5.16406 19.5682H6.23544C6.23875 19.7024 6.2661 19.8176 6.31747 19.9137C6.3705 20.0082 6.44259 20.0811 6.53374 20.1325C6.62654 20.1822 6.73591 20.207 6.86186 20.207C6.99444 20.207 7.1063 20.1789 7.19744 20.1225C7.29025 20.0645 7.36068 19.98 7.40874 19.869C7.45679 19.7579 7.48082 19.6212 7.48082 19.4588V15.9091ZM9.43466 21V15.9091H11.4432C11.8293 15.9091 12.1583 15.9828 12.43 16.1303C12.7018 16.2762 12.909 16.4792 13.0515 16.7393C13.1957 16.9979 13.2678 17.2962 13.2678 17.6342C13.2678 17.9723 13.1948 18.2706 13.049 18.5291C12.9032 18.7876 12.6919 18.989 12.4151 19.1332C12.14 19.2773 11.8069 19.3494 11.4158 19.3494H10.1357V18.4869H11.2418C11.449 18.4869 11.6197 18.4512 11.7539 18.38C11.8898 18.3071 11.9909 18.2068 12.0572 18.0792C12.1251 17.9499 12.1591 17.8016 12.1591 17.6342C12.1591 17.4652 12.1251 17.3177 12.0572 17.1918C11.9909 17.0642 11.8898 16.9656 11.7539 16.896C11.618 16.8247 11.4457 16.7891 11.2369 16.7891H10.511V21H9.43466ZM17.3426 17.5547C17.3078 17.4337 17.2589 17.3268 17.1959 17.234C17.133 17.1396 17.0559 17.06 16.9648 16.9954C16.8753 16.9291 16.7725 16.8786 16.6565 16.8438C16.5422 16.8089 16.4154 16.7915 16.2762 16.7915C16.016 16.7915 15.7873 16.8562 15.5901 16.9854C15.3946 17.1147 15.2421 17.3028 15.1327 17.5497C15.0233 17.795 14.9687 18.0949 14.9687 18.4496C14.9687 18.8042 15.0225 19.1058 15.1302 19.3544C15.238 19.603 15.3904 19.7927 15.5876 19.9237C15.7848 20.0529 16.0177 20.1175 16.2861 20.1175C16.5297 20.1175 16.7377 20.0745 16.9101 19.9883C17.0841 19.9004 17.2166 19.777 17.3078 19.6179C17.4006 19.4588 17.447 19.2707 17.447 19.0536L17.6657 19.0859H16.3532V18.2756H18.4836V18.9169C18.4836 19.3643 18.3891 19.7488 18.2002 20.0703C18.0113 20.3902 17.7511 20.6371 17.4197 20.8111C17.0882 20.9834 16.7087 21.0696 16.2812 21.0696C15.8039 21.0696 15.3846 20.9644 15.0233 20.7539C14.6621 20.5418 14.3804 20.241 14.1782 19.8516C13.9777 19.4605 13.8774 18.9964 13.8774 18.4595C13.8774 18.0469 13.9371 17.679 14.0564 17.3558C14.1773 17.031 14.3464 16.7559 14.5635 16.5305C14.7806 16.3052 15.0333 16.1336 15.3216 16.016C15.61 15.8983 15.9224 15.8395 16.2588 15.8395C16.5471 15.8395 16.8156 15.8817 17.0642 15.9663C17.3128 16.0491 17.5332 16.1668 17.7254 16.3192C17.9193 16.4717 18.0776 16.6532 18.2002 16.8636C18.3228 17.0724 18.4015 17.3028 18.4363 17.5547H17.3426Z" fill="white"/>
</svg>
