<svg width="17" height="16" viewBox="0 0 17 16" fill="none" xmlns="http://www.w3.org/2000/svg">
<g opacity="0.5">
<mask id="mask0_2667_16268" style="mask-type:alpha" maskUnits="userSpaceOnUse" x="0" y="0" width="17" height="16">
<rect x="0.671875" width="16" height="16" fill="#D9D9D9"/>
</mask>
<g mask="url(#mask0_2667_16268)">
<path d="M8.67153 1C7.82884 0.999761 7.01008 1.28881 6.34445 1.82154C5.67882 2.35427 5.20423 3.10033 4.99558 3.94198C4.78694 4.78364 4.85612 5.67295 5.1922 6.46958C5.52828 7.2662 6.11214 7.92477 6.85161 8.34134C5.53315 8.73818 4.37034 9.555 3.52976 10.6748C2.68918 11.7946 2.21394 13.1599 2.17214 14.5752C2.16992 14.6485 2.18175 14.7216 2.20696 14.7903C2.23216 14.8589 2.27024 14.9218 2.31902 14.9753C2.3678 15.0287 2.42632 15.0718 2.49124 15.1019C2.55616 15.132 2.62621 15.1487 2.69738 15.1509H14.6464C14.79 15.1464 14.926 15.0833 15.0245 14.9755C15.123 14.8677 15.1759 14.724 15.1716 14.5759C15.1298 13.1607 14.6546 11.7953 13.814 10.6755C12.9734 9.55574 11.8106 8.73892 10.4922 8.34208C11.2321 7.92566 11.8163 7.26702 12.1526 6.47016C12.489 5.67331 12.5582 4.78366 12.3494 3.94171C12.1407 3.09977 11.6658 2.35352 10.9997 1.82081C10.3337 1.2881 9.51451 0.999292 8.67153 1Z" fill="#8A949E"/>
</g>
</g>
</svg>
