<svg width="24" height="24" viewBox="0 0 24 24" fill="none" xmlns="http://www.w3.org/2000/svg">
<mask id="path-1-inside-1_542_3359" fill="white">
<path fill-rule="evenodd" clip-rule="evenodd" d="M16.4706 2L21 5.5V22H3V2H16.4706Z"/>
</mask>
<path fill-rule="evenodd" clip-rule="evenodd" d="M16.4706 2L21 5.5V22H3V2H16.4706Z" fill="white"/>
<path d="M21 5.5H22V5.00896L21.6114 4.70872L21 5.5ZM16.4706 2L17.082 1.20872L16.8119 1H16.4706V2ZM21 22V23H22V22H21ZM3 22H2V23H3V22ZM3 2V1H2V2H3ZM21 5.5L21.6114 4.70872L17.082 1.20872L16.4706 2L15.8591 2.79128L20.3886 6.29128L21 5.5ZM21 5.5H20V22H21H22V5.5H21ZM21 22V21H3V22V23H21V22ZM3 22H4V2H3H2V22H3ZM3 2V3H16.4706V2V1H3V2Z" fill="#BDC2CA" mask="url(#path-1-inside-1_542_3359)"/>
<circle cx="6.5" cy="7.5" r="1.5" fill="#BDC2CA"/>
<path d="M14.0909 6L7 14H20L14.0909 6Z" fill="#D0D7E1"/>
<path d="M9 9L3 16H14L9 9Z" fill="#AFB6C2"/>
<rect width="18" height="9" transform="translate(3 14)" fill="#019081"/>
<path d="M4.44247 21V15.9091H6.45099C6.83712 15.9091 7.16607 15.9828 7.43786 16.1303C7.70964 16.2762 7.91679 16.4792 8.0593 16.7393C8.20348 16.9979 8.27557 17.2962 8.27557 17.6342C8.27557 17.9723 8.20265 18.2706 8.05682 18.5291C7.91099 18.7876 7.69969 18.989 7.42294 19.1332C7.14785 19.2773 6.81475 19.3494 6.42365 19.3494H5.14347V18.4869H6.24964C6.45679 18.4869 6.62749 18.4512 6.76172 18.38C6.89761 18.3071 6.9987 18.2068 7.06499 18.0792C7.13293 17.9499 7.1669 17.8016 7.1669 17.6342C7.1669 17.4652 7.13293 17.3177 7.06499 17.1918C6.9987 17.0642 6.89761 16.9656 6.76172 16.896C6.62583 16.8247 6.45348 16.7891 6.24467 16.7891H5.51882V21H4.44247ZM13.2329 15.9091V21H12.3032L10.0883 17.7958H10.051V21H8.9747V15.9091H9.9193L12.1167 19.1108H12.1615V15.9091H13.2329ZM17.4979 17.5547C17.4631 17.4337 17.4142 17.3268 17.3512 17.234C17.2882 17.1396 17.2112 17.06 17.12 16.9954C17.0305 16.9291 16.9278 16.8786 16.8118 16.8438C16.6974 16.8089 16.5707 16.7915 16.4315 16.7915C16.1713 16.7915 15.9426 16.8562 15.7454 16.9854C15.5498 17.1147 15.3974 17.3028 15.288 17.5497C15.1786 17.795 15.1239 18.0949 15.1239 18.4496C15.1239 18.8042 15.1778 19.1058 15.2855 19.3544C15.3932 19.603 15.5457 19.7927 15.7429 19.9237C15.9401 20.0529 16.1729 20.1175 16.4414 20.1175C16.685 20.1175 16.893 20.0745 17.0653 19.9883C17.2393 19.9004 17.3719 19.777 17.4631 19.6179C17.5559 19.4588 17.6023 19.2707 17.6023 19.0536L17.821 19.0859H16.5085V18.2756H18.6388V18.9169C18.6388 19.3643 18.5444 19.7488 18.3555 20.0703C18.1665 20.3902 17.9064 20.6371 17.5749 20.8111C17.2435 20.9834 16.864 21.0696 16.4364 21.0696C15.9592 21.0696 15.5399 20.9644 15.1786 20.7539C14.8174 20.5418 14.5356 20.241 14.3335 19.8516C14.1329 19.4605 14.0327 18.9964 14.0327 18.4595C14.0327 18.0469 14.0923 17.679 14.2116 17.3558C14.3326 17.031 14.5017 16.7559 14.7188 16.5305C14.9358 16.3052 15.1886 16.1336 15.4769 16.016C15.7653 15.8983 16.0777 15.8395 16.4141 15.8395C16.7024 15.8395 16.9709 15.8817 17.2195 15.9663C17.468 16.0491 17.6884 16.1668 17.8807 16.3192C18.0746 16.4717 18.2328 16.6532 18.3555 16.8636C18.4781 17.0724 18.5568 17.3028 18.5916 17.5547H17.4979Z" fill="white"/>
</svg>
