<svg width="18" height="14" viewBox="0 0 18 14" fill="none" xmlns="http://www.w3.org/2000/svg">
<path d="M18 9.219L14.0256 5.334C13.7352 5.05272 13.3828 4.83942 12.995 4.71027C12.6072 4.58112 12.1942 4.5395 11.7875 4.58858C11.3807 4.63766 10.9907 4.77614 10.6472 4.99353C10.3036 5.21091 10.0155 5.5015 9.8046 5.84325L4.5648 14H2.7C1.98392 14 1.29716 13.7234 0.790812 13.2312C0.284463 12.7389 0 12.0712 0 11.375L0 2.625C0 1.92881 0.284463 1.26113 0.790812 0.768845C1.29716 0.276562 1.98392 0 2.7 0L15.3 0C16.0161 0 16.7028 0.276562 17.2092 0.768845C17.7155 1.26113 18 1.92881 18 2.625V9.219ZM17.9901 11.6025C17.9315 12.2569 17.6228 12.8661 17.1247 13.31C16.6267 13.7539 15.9756 14.0001 15.3 14H6.876L11.3481 6.74362C11.4183 6.6297 11.5143 6.5328 11.6287 6.46029C11.7432 6.38778 11.8731 6.34155 12.0087 6.32511C12.1443 6.30866 12.2819 6.32244 12.4112 6.36539C12.5404 6.40834 12.6579 6.47934 12.7548 6.573L17.9901 11.6025ZM5.4 7.875C6.11608 7.875 6.80284 7.59844 7.30919 7.10616C7.81554 6.61387 8.1 5.94619 8.1 5.25C8.1 4.55381 7.81554 3.88613 7.30919 3.39384C6.80284 2.90156 6.11608 2.625 5.4 2.625C4.68392 2.625 3.99716 2.90156 3.49081 3.39384C2.98446 3.88613 2.7 4.55381 2.7 5.25C2.7 5.94619 2.98446 6.61387 3.49081 7.10616C3.99716 7.59844 4.68392 7.875 5.4 7.875Z" fill="#8A949E"/>
</svg>
