<svg width="17" height="16" viewBox="0 0 17 16" fill="none" xmlns="http://www.w3.org/2000/svg">
<g opacity="0.5">
<mask id="mask0_2667_16275" style="mask-type:alpha" maskUnits="userSpaceOnUse" x="0" y="0" width="17" height="16">
<rect x="0.671875" width="16" height="16" fill="#D9D9D9"/>
</mask>
<g mask="url(#mask0_2667_16275)">
<path d="M12.4901 6.37662H11.9446V4.03896C11.9446 3.23298 11.5998 2.46001 10.986 1.89009C10.3723 1.32018 9.53986 1 8.67188 1C7.80389 1 6.97146 1.32018 6.35771 1.89009C5.74395 2.46001 5.39915 3.23298 5.39915 4.03896V6.37662H4.85369C4.27523 6.37721 3.72065 6.59085 3.31161 6.97066C2.90258 7.35048 2.67251 7.86546 2.67188 8.4026V13.974C2.67251 14.5112 2.90258 15.0261 3.31161 15.406C3.72065 15.7858 4.27523 15.9994 4.85369 16H12.4901C13.0685 15.9994 13.6231 15.7858 14.0321 15.406C14.4412 15.0261 14.6712 14.5112 14.6719 13.974V8.4026C14.6712 7.86546 14.4412 7.35048 14.0321 6.97066C13.6231 6.59085 13.0685 6.37721 12.4901 6.37662ZM10.8537 6.37662H6.49006V4.03896C6.49006 3.50164 6.71993 2.98632 7.1291 2.60638C7.53827 2.22644 8.09322 2.01299 8.67188 2.01299C9.25053 2.01299 9.80548 2.22644 10.2147 2.60638C10.6238 2.98632 10.8537 3.50164 10.8537 4.03896V6.37662Z" fill="#8A949E"/>
</g>
</g>
</svg>
