<svg width="16" height="16" viewBox="0 0 16 16" fill="none" xmlns="http://www.w3.org/2000/svg">
<mask id="mask0_2564_17595" style="mask-type:alpha" maskUnits="userSpaceOnUse" x="0" y="0" width="16" height="16">
<rect width="16" height="16" fill="#FF0000"/>
</mask>
<g mask="url(#mask0_2564_17595)">
<path d="M8.0006 10C9.17879 10 10.1339 9.10457 10.1339 8C10.1339 6.89543 9.17879 6 8.0006 6C6.8224 6 5.86728 6.89543 5.86728 8C5.86728 9.10457 6.8224 10 8.0006 10Z" fill="#A8B6C3"/>
<path d="M15.8286 7.45625C14.9466 6.1775 13.8022 5.09125 12.5196 4.31469C11.1006 3.45469 9.53393 3 7.98928 3C6.57195 3 5.1783 3.37969 3.84697 4.12844C2.48931 4.89188 1.25932 6.00719 0.190997 7.44312C0.0703926 7.60541 0.00397108 7.79764 0.000172543 7.9954C-0.003626 8.19315 0.0553699 8.3875 0.169664 8.55375C1.04999 9.84531 2.18298 10.9331 3.44564 11.6991C4.8673 12.5625 6.39729 13 7.98928 13C9.54626 13 11.1163 12.5491 12.5292 11.6962C13.8112 10.9222 14.9532 9.83187 15.8319 8.5425C15.9422 8.38012 16.0006 8.19146 16 7.99892C15.9994 7.80638 15.9399 7.61804 15.8286 7.45625ZM8.00061 11C7.36771 11 6.74903 10.8241 6.2228 10.4944C5.69656 10.1648 5.28641 9.69623 5.04422 9.14805C4.80202 8.59987 4.73865 7.99667 4.86212 7.41473C4.98559 6.83279 5.29036 6.29824 5.73788 5.87868C6.18541 5.45912 6.75559 5.1734 7.37632 5.05764C7.99706 4.94189 8.64047 5.0013 9.22519 5.22836C9.80991 5.45542 10.3097 5.83994 10.6613 6.33329C11.0129 6.82664 11.2006 7.40666 11.2006 8C11.1996 8.79537 10.8622 9.5579 10.2623 10.1203C9.66236 10.6827 8.849 10.9991 8.00061 11Z" fill="#A8B6C3"/>
</g>
</svg>
