<svg width="16" height="16" viewBox="0 0 16 16" fill="none" xmlns="http://www.w3.org/2000/svg">
<mask id="mask0_1264_7437" style="mask-type:alpha" maskUnits="userSpaceOnUse" x="0" y="0" width="16" height="16">
<rect width="16" height="16" fill="#FF0000"/>
</mask>
<g mask="url(#mask0_1264_7437)">
<path d="M14.8116 1.23869C14.745 1.16566 14.6643 1.10688 14.5743 1.0659C14.4844 1.02491 14.3871 1.00256 14.2882 1.00021C14.1894 0.997852 14.0911 1.01553 13.9993 1.05219C13.9075 1.08884 13.8241 1.14371 13.7541 1.21348L13.1467 1.81893L14.181 2.8507L14.7781 2.25652C14.914 2.12401 14.9934 1.94406 14.9996 1.75435C15.0058 1.56463 14.9385 1.37986 14.8116 1.23869Z" fill="white"/>
<path d="M7.79219 10.7535H5.24595V8.20693L10.1401 3.32213H1V15H12.6764V5.85875L7.79219 10.7535Z" fill="white"/>
<path d="M12.6764 4.35588L13.764 3.26573L12.7327 2.23429L11.6431 3.32212H12.6764V4.35588Z" fill="white"/>
<path d="M6.30743 9.69188H7.352L12.6764 4.35588V3.32212H11.6431L6.30743 8.64717V9.69188Z" fill="white"/>
</g>
</svg>
