<svg width="13" height="12" viewBox="0 0 13 12" fill="none" xmlns="http://www.w3.org/2000/svg">
<path fill-rule="evenodd" clip-rule="evenodd" d="M6.25896 4.29098e-06C7.10567 -0.000967686 7.94374 0.163197 8.72218 0.48251C9.50071 0.801862 10.2033 1.26972 10.7872 1.85762L10.7957 1.86611L11.7531 2.93376L11.0228 3.53548L10.0815 2.48582C9.58935 1.99251 8.99809 1.59973 8.34334 1.33115C7.68491 1.06107 6.97604 0.922225 6.25986 0.92308L6.25956 0.923081H6.25926C3.33536 0.923081 0.962963 3.19721 0.962963 6C0.962963 8.80278 3.33534 11.0769 6.25923 11.0769M6.25896 4.29098e-06C2.80337 0.000159859 0 2.68751 0 6C0 9.31259 2.80353 12 6.25926 12H6.25929C7.55381 11.9999 8.81648 11.6153 9.87354 10.899C10.9306 10.1827 11.7301 9.16994 12.162 8.00014L12.3227 7.56505L11.4149 7.25707L11.2542 7.69216C10.8887 8.68206 10.2122 9.53905 9.31768 10.1452C8.42318 10.7513 7.35469 11.0768 6.25926 11.0769" fill="#5F6A76"/>
<path d="M13 0.589902V4.96153C13 4.99214 12.9873 5.02148 12.9647 5.04312C12.9422 5.06476 12.9116 5.07692 12.8796 5.07692H8.3191C8.29528 5.07694 8.27198 5.07018 8.25217 5.0575C8.23236 5.04483 8.21692 5.0268 8.2078 5.0057C8.19868 4.98461 8.1963 4.96139 8.20095 4.939C8.2056 4.9166 8.21708 4.89604 8.23393 4.8799L12.7945 0.508267C12.8113 0.492112 12.8328 0.481108 12.8561 0.476648C12.8795 0.472189 12.9037 0.474474 12.9257 0.483214C12.9477 0.491955 12.9665 0.506758 12.9797 0.52575C12.993 0.544742 13 0.567067 13 0.589902Z" fill="#5F6A76"/>
</svg>
