<svg width="16" height="16" viewBox="0 0 16 16" fill="none" xmlns="http://www.w3.org/2000/svg">
<mask id="mask0_1299_5570" style="mask-type:alpha" maskUnits="userSpaceOnUse" x="0" y="0" width="16" height="16">
<rect width="16" height="16" fill="#FF0000"/>
</mask>
<g mask="url(#mask0_1299_5570)">
<path d="M7 2C9.76142 2 12 4.23858 12 7C12 8.16463 11.6003 9.23504 10.9326 10.085L13.9238 13.0762C14.1581 13.3105 14.1581 13.6895 13.9238 13.9238C13.6895 14.1581 13.3105 14.1581 13.0762 13.9238L10.085 10.9326C9.23504 11.6003 8.16463 12 7 12C4.23858 12 2 9.76142 2 7C2 4.23858 4.23858 2 7 2ZM7 3.2002C4.90132 3.2002 3.2002 4.90132 3.2002 7C3.2002 9.09868 4.90132 10.7998 7 10.7998C9.09868 10.7998 10.7998 9.09868 10.7998 7C10.7998 4.90132 9.09868 3.2002 7 3.2002Z" fill="#6D7882"/>
</g>
</svg>
