<svg width="21" height="20" viewBox="0 0 21 20" fill="none" xmlns="http://www.w3.org/2000/svg">
<mask id="mask0_1148_5627" style="mask-type:alpha" maskUnits="userSpaceOnUse" x="0" y="0" width="21" height="20">
<rect x="0.652344" width="20" height="20" fill="black"/>
</mask>
<g mask="url(#mask0_1148_5627)">
<path d="M5.77734 17C5.77734 17 4.65234 17 4.65234 15.9167C4.65234 14.8333 5.77734 11.5833 10.2773 11.5833C14.7773 11.5833 15.9023 14.8333 15.9023 15.9167C15.9023 17 14.7773 17 14.7773 17H5.77734ZM10.2773 10.5C11.1724 10.5 12.0309 10.1576 12.6638 9.5481C13.2968 8.9386 13.6523 8.11195 13.6523 7.25C13.6523 6.38805 13.2968 5.5614 12.6638 4.9519C12.0309 4.34241 11.1724 4 10.2773 4C9.38224 4 8.52379 4.34241 7.89086 4.9519C7.25792 5.5614 6.90234 6.38805 6.90234 7.25C6.90234 8.11195 7.25792 8.9386 7.89086 9.5481C8.52379 10.1576 9.38224 10.5 10.2773 10.5Z" fill="#A8B6C3"/>
</g>
</svg>
