<svg width="24" height="24" viewBox="0 0 24 24" fill="none" xmlns="http://www.w3.org/2000/svg">
<mask id="mask0_775_4675" style="mask-type:alpha" maskUnits="userSpaceOnUse" x="0" y="0" width="24" height="24">
<rect width="24" height="24" fill="#D9D9D9"/>
</mask>
<g mask="url(#mask0_775_4675)">
<mask id="mask1_775_4675" style="mask-type:alpha" maskUnits="userSpaceOnUse" x="3" y="1" width="20" height="22">
<path d="M4.5 13.5L3 12V23H22.5V1L9 1.5L9.5 8.5V11.5L6.5 13.5H4.5Z" fill="#D9D9D9"/>
</mask>
<g mask="url(#mask1_775_4675)">
<mask id="path-3-inside-1_775_4675" fill="white">
<path fill-rule="evenodd" clip-rule="evenodd" d="M17.4706 2L22 5.5V23H4V2H17.4706Z"/>
</mask>
<path fill-rule="evenodd" clip-rule="evenodd" d="M17.4706 2L22 5.5V23H4V2H17.4706Z" fill="white"/>
<path d="M22 5.5H23V5.00896L22.6114 4.70871L22 5.5ZM17.4706 2L18.082 1.20872L17.8119 1H17.4706V2ZM22 23V24H23V23H22ZM4 23H3V24H4V23ZM4 2V1H3V2H4ZM22 5.5L22.6114 4.70871L18.082 1.20872L17.4706 2L16.8591 2.79128L21.3886 6.29129L22 5.5ZM22 5.5H21V23H22H23V5.5H22ZM22 23V22H4V23V24H22V23ZM4 23H5V2H4H3V23H4ZM4 2V3H17.4706V2V1H4V2Z" fill="#BDC2CA" mask="url(#path-3-inside-1_775_4675)"/>
</g>
<path fill-rule="evenodd" clip-rule="evenodd" d="M6.03407 2.81621C5.79232 3.10295 5.63636 3.54011 5.63636 4.07895V10.2368C5.63636 10.3589 5.68345 10.4344 5.74224 10.4853C5.81009 10.544 5.90621 10.5789 6 10.5789H6.00479L6.00958 10.579C6.05625 10.5796 6.10258 10.5714 6.14582 10.5548C6.18906 10.5383 6.22834 10.5138 6.26135 10.4827C6.29436 10.4517 6.32042 10.4147 6.338 10.374C6.35558 10.3333 6.36431 10.2898 6.3637 10.2459L6.36364 10.2413V3.73684C6.36364 3.35896 6.68925 3.05263 7.09091 3.05263C7.49257 3.05263 7.81818 3.35896 7.81818 3.73684V10.2329C7.82062 10.4578 7.77551 10.681 7.68546 10.8894C7.59473 11.0993 7.46022 11.2901 7.28987 11.4503C7.11951 11.6106 6.91677 11.7371 6.69359 11.8225C6.47188 11.9073 6.23446 11.9497 5.99518 11.9474C5.10823 11.945 4.18182 11.3029 4.18182 10.2368V4.07895C4.18182 3.30966 4.40245 2.54945 4.89446 1.96585C5.40166 1.36423 6.15844 1 7.09091 1C8.01701 1 8.77392 1.35291 9.28399 1.94879C9.77909 2.52717 10 3.28298 10 4.05243V9.98582C10 12.1219 8.49052 14 6 14C3.50954 14 2 12.1224 2 9.98582V6.47368C2 6.09581 2.32561 5.78947 2.72727 5.78947C3.12893 5.78947 3.45455 6.09581 3.45455 6.47368V9.98582C3.45455 11.5278 4.4741 12.6316 6 12.6316C7.52585 12.6316 8.54545 11.5274 8.54545 9.98582V4.05243C8.54545 3.51419 8.38978 3.08589 8.15112 2.80708C7.92745 2.54578 7.59345 2.36842 7.09091 2.36842C6.59475 2.36842 6.26061 2.54749 6.03407 2.81621Z" fill="#2C365D"/>
</g>
</svg>
