<svg width="32" height="32" viewBox="0 0 32 32" fill="none" xmlns="http://www.w3.org/2000/svg">
<rect x="7" y="20" width="5" height="6" rx="1" fill="#6D7882"/>
<rect x="14" y="15" width="5" height="11" rx="1" fill="#6D7882"/>
<rect x="21" y="12" width="5" height="14" rx="1" fill="#6D7882"/>
<rect x="5" y="27" width="23" height="1.5" rx="0.75" fill="#6D7882"/>
<path fill-rule="evenodd" clip-rule="evenodd" d="M19.7481 3.75C19.7481 3.33579 20.0839 3 20.4981 3H25.4981C26.0504 3 26.4981 3.44772 26.4981 4V9C26.4981 9.41421 26.1624 9.75 25.7481 9.75C25.3339 9.75 24.9981 9.41421 24.9981 9V5.5C24.9981 4.94772 24.5504 4.5 23.9981 4.5H20.4981C20.0839 4.5 19.7481 4.16421 19.7481 3.75Z" fill="#6D7882"/>
<path fill-rule="evenodd" clip-rule="evenodd" d="M25.5285 3.96969C25.8214 4.26258 25.8214 4.73746 25.5285 5.03035L18.2053 12.3536C17.8147 12.7441 17.1816 12.7441 16.7911 12.3536L13.7053 9.26779C13.3147 8.87726 12.6816 8.87726 12.2911 9.26779L6.77849 14.7804C6.4856 15.0732 6.01072 15.0732 5.71783 14.7804C5.42494 14.4875 5.42494 14.0126 5.71783 13.7197L12.2911 7.14647C12.6816 6.75594 13.3147 6.75594 13.7053 7.14647L16.7911 10.2323C17.1816 10.6228 17.8147 10.6228 18.2053 10.2323L24.4678 3.96969C24.7607 3.6768 25.2356 3.6768 25.5285 3.96969Z" fill="#6D7882"/>
</svg>
