<svg width="13" height="14" viewBox="0 0 13 14" fill="none" xmlns="http://www.w3.org/2000/svg">
<rect y="0.5" width="13" height="13" rx="2" fill="#B0101E"/>
<path d="M3.2439 10.961C2.14673 10.961 2.00182 10.3756 2.00182 10.2C1.93972 9.36098 3.47161 8.20976 5.74875 7.6439C5.89366 7.39024 6.01787 7.11707 6.12137 6.8439C5.41753 5.82927 4.9414 4.7561 4.9414 4.09268C4.9414 3.76098 5.04491 3.50732 5.23122 3.3122C5.43823 3.09756 5.74875 3 6.12137 3C6.5975 3 6.97013 3.17561 7.21854 3.52683C7.40485 3.8 7.50836 4.19024 7.50836 4.65854C7.50836 5.26341 7.34275 6.00488 7.07363 6.76585C7.21854 6.96098 7.38415 7.17561 7.54976 7.35122C9.7234 7.13659 10.51 7.72195 10.7999 8.09268C11.0276 8.40488 11.069 8.79512 10.8827 9.12683C10.655 9.53659 10.1581 9.79024 9.55779 9.79024C8.91605 9.79024 8.02589 9.10732 7.19784 8.20976C6.90802 8.24878 6.6182 8.30732 6.34909 8.36585C5.52104 9.80976 4.36177 11 3.2439 11V10.961ZM2.85057 10.122C2.85057 10.122 2.99548 10.1805 3.2439 10.1805C3.84423 10.1805 4.52738 9.5561 5.14841 8.67805C3.69933 9.18537 2.91268 9.86829 2.85057 10.1415V10.122ZM8.2329 8.09268C8.77114 8.61951 9.24727 8.97073 9.53708 8.97073C9.8269 8.97073 10.0546 8.85366 10.1167 8.73659C10.1374 8.69756 10.1581 8.61951 10.096 8.54146C9.90971 8.30732 9.33007 8.07317 8.2329 8.1122V8.09268ZM6.12137 3.78049C5.99717 3.78049 5.89366 3.8 5.85226 3.83902C5.81086 3.87805 5.79015 3.9561 5.79015 4.07317C5.79015 4.52195 6.05927 5.16585 6.4733 5.84878C6.5975 5.41951 6.65961 4.99024 6.65961 4.63902C6.65961 4.24878 6.5768 4.05366 6.494 3.93659C6.43189 3.85854 6.34909 3.76098 6.12137 3.76098V3.78049Z" fill="white"/>
</svg>
