<svg width="27" height="27" viewBox="0 0 27 27" fill="none" xmlns="http://www.w3.org/2000/svg">
<rect x="0.5" y="0.5" width="26" height="26" rx="3.5" fill="#E9F8F4" stroke="#CBEAE2"/>
<path d="M14.5455 6.32444V11.2232C14.5455 11.2587 14.5598 11.2928 14.5854 11.3179C14.611 11.343 14.6457 11.3571 14.6818 11.3571H19.6697C19.6831 11.3572 19.6963 11.3532 19.7075 11.3459C19.7187 11.3386 19.7275 11.3281 19.7327 11.3159C19.7378 11.3037 19.7392 11.2903 19.7366 11.2773C19.734 11.2643 19.7276 11.2524 19.7181 11.243L14.6617 6.2769C14.6522 6.26757 14.64 6.26123 14.6268 6.25868C14.6136 6.25613 14.5999 6.25748 14.5874 6.26257C14.575 6.26765 14.5644 6.27625 14.5569 6.28726C14.5494 6.29827 14.5454 6.31121 14.5455 6.32444Z" fill="#6FB9A6"/>
<path d="M13.7273 12.4286C13.6549 12.4286 13.5856 12.4004 13.5344 12.3501C13.4833 12.2999 13.4545 12.2318 13.4545 12.1607V6H8.40909C8.30059 6 8.19654 6.04233 8.11982 6.11768C8.0431 6.19303 8 6.29523 8 6.40179V20.5982C8 20.7048 8.0431 20.807 8.11982 20.8823C8.19654 20.9577 8.30059 21 8.40909 21H19.5909C19.6994 21 19.8035 20.9577 19.8802 20.8823C19.9569 20.807 20 20.7048 20 20.5982V12.4286H13.7273ZM17.2727 17.7857H10.7273V16.7143H17.2727V17.7857ZM17.2727 15.1071H10.7273V14.0357H17.2727V15.1071Z" fill="#6FB9A6"/>
</svg>
