<svg width="24" height="24" viewBox="0 0 24 24" fill="none" xmlns="http://www.w3.org/2000/svg">
<mask id="path-1-inside-1_542_3515" fill="white">
<path fill-rule="evenodd" clip-rule="evenodd" d="M16.4706 2L21 5.5V22H3V2H16.4706Z"/>
</mask>
<path fill-rule="evenodd" clip-rule="evenodd" d="M16.4706 2L21 5.5V22H3V2H16.4706Z" fill="white"/>
<path d="M21 5.5H22V5.00896L21.6114 4.70872L21 5.5ZM16.4706 2L17.082 1.20872L16.8119 1H16.4706V2ZM21 22V23H22V22H21ZM3 22H2V23H3V22ZM3 2V1H2V2H3ZM21 5.5L21.6114 4.70872L17.082 1.20872L16.4706 2L15.8591 2.79128L20.3886 6.29128L21 5.5ZM21 5.5H20V22H21H22V5.5H21ZM21 22V21H3V22V23H21V22ZM3 22H4V2H3H2V22H3ZM3 2V3H16.4706V2V1H3V2Z" fill="#BDC2CA" mask="url(#path-1-inside-1_542_3515)"/>
<rect x="11.5" y="6.5" width="5" height="4" fill="white" stroke="#AFB6C2"/>
<rect x="11.5" y="9.5" width="5" height="3" fill="white" stroke="#AFB6C2"/>
<rect x="11.5" y="12.5" width="5" height="3" fill="white" stroke="#AFB6C2"/>
<rect x="7.5" y="6.5" width="4.5" height="4" fill="white" stroke="#AFB6C2"/>
<rect x="7.5" y="9.5" width="4.5" height="3" fill="white" stroke="#AFB6C2"/>
<rect x="7.5" y="12.5" width="4.5" height="3" fill="white" stroke="#AFB6C2"/>
<rect width="18" height="9" transform="translate(3 14)" fill="#228738"/>
<path d="M6.9517 15.9091L7.97834 17.6442H8.01811L9.04972 15.9091H10.2653L8.71165 18.4545L10.3001 21H9.06215L8.01811 19.2624H7.97834L6.9343 21H5.70135L7.29474 18.4545L5.73118 15.9091H6.9517ZM10.9464 21V15.9091H12.0227V20.1126H14.2053V21H10.9464ZM17.6798 17.3732C17.6599 17.1727 17.5745 17.0169 17.4237 16.9059C17.2729 16.7949 17.0683 16.7393 16.8097 16.7393C16.6341 16.7393 16.4858 16.7642 16.3648 16.8139C16.2438 16.862 16.151 16.9291 16.0864 17.0153C16.0234 17.1014 15.9919 17.1992 15.9919 17.3086C15.9886 17.3997 16.0077 17.4793 16.0491 17.5472C16.0922 17.6152 16.151 17.674 16.2256 17.7237C16.3002 17.7718 16.3863 17.814 16.4841 17.8505C16.5819 17.8853 16.6863 17.9151 16.7973 17.94L17.2547 18.0494C17.4768 18.0991 17.6806 18.1654 17.8662 18.2482C18.0518 18.3311 18.2126 18.433 18.3485 18.554C18.4843 18.675 18.5896 18.8175 18.6642 18.9815C18.7404 19.1456 18.7793 19.3337 18.781 19.5458C18.7793 19.8574 18.6998 20.1275 18.5423 20.3562C18.3866 20.5832 18.1612 20.7597 17.8662 20.8857C17.5729 21.0099 17.2191 21.0721 16.8048 21.0721C16.3938 21.0721 16.0358 21.0091 15.7309 20.8832C15.4276 20.7572 15.1907 20.5708 15.02 20.3239C14.8509 20.0753 14.7623 19.7679 14.754 19.4016H15.7955C15.8071 19.5723 15.856 19.7148 15.9422 19.8292C16.03 19.9419 16.1469 20.0272 16.2927 20.0852C16.4402 20.1416 16.6067 20.1697 16.7923 20.1697C16.9746 20.1697 17.1329 20.1432 17.2671 20.0902C17.403 20.0372 17.5083 19.9634 17.5828 19.869C17.6574 19.7745 17.6947 19.666 17.6947 19.5433C17.6947 19.429 17.6607 19.3329 17.5928 19.255C17.5265 19.1771 17.4287 19.1108 17.2994 19.0561C17.1718 19.0014 17.0152 18.9517 16.8296 18.907L16.2753 18.7678C15.8461 18.6634 15.5072 18.5001 15.2586 18.2781C15.01 18.056 14.8866 17.7569 14.8882 17.3807C14.8866 17.0724 14.9686 16.8031 15.1343 16.5728C15.3017 16.3424 15.5312 16.1626 15.8229 16.0334C16.1146 15.9041 16.446 15.8395 16.8172 15.8395C17.195 15.8395 17.5248 15.9041 17.8066 16.0334C18.0899 16.1626 18.3103 16.3424 18.4678 16.5728C18.6252 16.8031 18.7064 17.07 18.7114 17.3732H17.6798Z" fill="white"/>
</svg>
