<svg width="130" height="80" viewBox="0 0 130 80" fill="none" xmlns="http://www.w3.org/2000/svg">
<mask id="mask0_2564_17086" style="mask-type:alpha" maskUnits="userSpaceOnUse" x="0" y="0" width="130" height="80">
<rect width="130" height="80" fill="#D9D9D9"/>
</mask>
<g mask="url(#mask0_2564_17086)">
<path d="M60.2384 11.6717H59.4325C59.2188 11.6717 59.0138 11.5933 58.8626 11.4538C58.7115 11.3143 58.6266 11.1251 58.6266 10.9277L58.6279 8.93248C58.6279 8.91615 58.6233 8.90009 58.6144 8.88594C58.6056 8.87178 58.5929 8.86002 58.5776 8.85184C58.5622 8.84367 58.5449 8.83936 58.5272 8.83935C58.5095 8.83934 58.4921 8.84364 58.4768 8.85181L56.6046 9.85292C56.4225 9.94997 56.2061 9.97627 56.0031 9.92604C55.8 9.87581 55.6268 9.75317 55.5217 9.58509L55.1062 8.91923L55.1046 8.91691C55.0023 8.74889 54.9755 8.55053 55.03 8.36445C55.0844 8.17838 55.2157 8.01945 55.3958 7.92184L57.2747 6.9163C57.29 6.90813 57.3027 6.89639 57.3115 6.88228C57.3203 6.86816 57.3249 6.85215 57.3249 6.83586C57.3249 6.81957 57.3203 6.80356 57.3115 6.78944C57.3027 6.77533 57.29 6.76359 57.2747 6.75542L55.3975 5.75081C55.3072 5.70297 55.2279 5.63911 55.1643 5.5629C55.1007 5.4867 55.0541 5.39965 55.0271 5.30675C55.0001 5.21386 54.9932 5.11695 55.0068 5.02159C55.0205 4.92624 55.0544 4.83431 55.1067 4.75109L55.5207 4.08732C55.573 4.00341 55.6428 3.92991 55.7261 3.87108C55.8094 3.81226 55.9046 3.76928 56.006 3.74463C56.1062 3.71979 56.2109 3.71357 56.3137 3.72634C56.4166 3.73912 56.5158 3.77062 56.6054 3.81903L58.4768 4.81875C58.4921 4.82692 58.5095 4.83121 58.5272 4.83121C58.5449 4.8312 58.5622 4.82689 58.5776 4.81871C58.5929 4.81054 58.6056 4.79878 58.6144 4.78462C58.6233 4.77046 58.6279 4.75441 58.6279 4.73807L58.6266 2.74398C58.6266 2.54666 58.7115 2.35743 58.8626 2.21791C59.0138 2.07838 59.2188 2 59.4325 2H60.2384C60.4521 2 60.6571 2.07838 60.8082 2.21791C60.9594 2.35743 61.0443 2.54666 61.0443 2.74398V4.73691C61.0442 4.75325 61.0489 4.7693 61.0577 4.78346C61.0665 4.79761 61.0792 4.80937 61.0946 4.81755C61.1099 4.82573 61.1273 4.83004 61.145 4.83005C61.1627 4.83005 61.18 4.82575 61.1954 4.81759L63.0675 3.81647C63.2497 3.71962 63.466 3.69342 63.669 3.74364C63.872 3.79385 64.0452 3.91637 64.1504 4.0843L64.5657 4.75016L64.5672 4.75226C64.6707 4.92044 64.698 5.11958 64.643 5.30625C64.5881 5.49291 64.4555 5.65196 64.2741 5.74872L62.3971 6.75309C62.3819 6.76127 62.3692 6.773 62.3604 6.78712C62.3516 6.80124 62.3469 6.81724 62.3469 6.83353C62.3469 6.84983 62.3516 6.86583 62.3604 6.87995C62.3692 6.89407 62.3819 6.9058 62.3971 6.91398L64.2741 7.91835C64.3645 7.9662 64.4437 8.03006 64.5073 8.10626C64.5709 8.18246 64.6175 8.2695 64.6446 8.36238C64.6716 8.45527 64.6785 8.55217 64.6649 8.64753C64.6513 8.74289 64.6174 8.83483 64.5652 8.91807L64.1512 9.58184C64.0989 9.66575 64.029 9.73925 63.9457 9.79808C63.8624 9.8569 63.7673 9.89989 63.6659 9.92453C63.5656 9.94938 63.461 9.95559 63.3581 9.94282C63.2552 9.93005 63.1561 9.89854 63.0665 9.85014L61.1951 8.85041C61.1798 8.84226 61.1624 8.83796 61.1448 8.83795C61.1271 8.83795 61.1097 8.84224 61.0944 8.85039C61.0791 8.85854 61.0664 8.87027 61.0575 8.88439C61.0487 8.89852 61.044 8.91454 61.044 8.93086L61.0443 10.9277C61.0443 11.1251 60.9594 11.3143 60.8082 11.4538C60.6571 11.5933 60.4521 11.6717 60.2384 11.6717Z" fill="#6D7882"/>
<path d="M122.47 65.0892H122.009C121.887 65.0892 121.77 65.0444 121.684 64.9647C121.597 64.885 121.549 64.7768 121.549 64.6641L121.55 63.5239C121.55 63.5146 121.547 63.5054 121.542 63.4973C121.537 63.4892 121.53 63.4825 121.521 63.4778C121.512 63.4732 121.502 63.4707 121.492 63.4707C121.482 63.4707 121.472 63.4732 121.463 63.4778L120.393 64.0499C120.289 64.1053 120.166 64.1204 120.05 64.0917C119.934 64.063 119.835 63.9929 119.775 63.8968L119.537 63.5163L119.536 63.515C119.478 63.419 119.463 63.3057 119.494 63.1993C119.525 63.093 119.6 63.0022 119.703 62.9464L120.776 62.3718C120.785 62.3671 120.792 62.3604 120.797 62.3524C120.802 62.3443 120.805 62.3352 120.805 62.3258C120.805 62.3165 120.802 62.3074 120.797 62.2993C120.792 62.2913 120.785 62.2846 120.776 62.2799L119.704 61.7058C119.652 61.6785 119.607 61.642 119.57 61.5984C119.534 61.5549 119.507 61.5052 119.492 61.4521C119.477 61.399 119.473 61.3436 119.48 61.2891C119.488 61.2346 119.508 61.1821 119.538 61.1346L119.774 60.7553C119.804 60.7073 119.844 60.6653 119.891 60.6317C119.939 60.5981 119.993 60.5735 120.051 60.5594C120.109 60.5452 120.168 60.5417 120.227 60.549C120.286 60.5563 120.343 60.5743 120.394 60.6019L121.463 61.1732C121.472 61.1779 121.482 61.1803 121.492 61.1803C121.502 61.1803 121.512 61.1779 121.521 61.1732C121.53 61.1685 121.537 61.1618 121.542 61.1537C121.547 61.1456 121.55 61.1364 121.55 61.1271L121.549 59.9876C121.549 59.8749 121.597 59.7667 121.684 59.687C121.77 59.6073 121.887 59.5625 122.009 59.5625H122.47C122.592 59.5625 122.709 59.6073 122.796 59.687C122.882 59.7667 122.93 59.8749 122.93 59.9876V61.1264C122.93 61.1358 122.933 61.145 122.938 61.153C122.943 61.1611 122.95 61.1679 122.959 61.1725C122.968 61.1772 122.978 61.1797 122.988 61.1797C122.998 61.1797 123.008 61.1772 123.017 61.1725L124.087 60.6005C124.191 60.5451 124.314 60.5302 124.43 60.5589C124.546 60.5876 124.645 60.6576 124.705 60.7535L124.943 61.134L124.944 61.1352C125.003 61.2313 125.018 61.3451 124.987 61.4518C124.955 61.5584 124.88 61.6493 124.776 61.7046L123.703 62.2786C123.695 62.2832 123.688 62.2899 123.683 62.298C123.677 62.3061 123.675 62.3152 123.675 62.3245C123.675 62.3338 123.677 62.343 123.683 62.351C123.688 62.3591 123.695 62.3658 123.703 62.3705L124.776 62.9444C124.828 62.9718 124.873 63.0082 124.909 63.0518C124.946 63.0953 124.972 63.1451 124.988 63.1981C125.003 63.2512 125.007 63.3066 124.999 63.3611C124.992 63.4156 124.972 63.4681 124.942 63.5157L124.706 63.895C124.676 63.9429 124.636 63.9849 124.588 64.0185C124.541 64.0522 124.486 64.0767 124.429 64.0908C124.371 64.105 124.311 64.1086 124.253 64.1013C124.194 64.094 124.137 64.076 124.086 64.0483L123.017 63.477C123.008 63.4724 122.998 63.4699 122.988 63.4699C122.978 63.4699 122.968 63.4724 122.959 63.477C122.95 63.4817 122.943 63.4884 122.938 63.4964C122.933 63.5045 122.93 63.5137 122.93 63.523L122.93 64.6641C122.93 64.7768 122.882 64.885 122.796 64.9647C122.709 65.0444 122.592 65.0892 122.47 65.0892Z" fill="white"/>
<path d="M119.47 40.9468L116.193 45.742C116.193 45.742 111.371 43.1712 111.18 40.0768L115.024 36.0703C115.024 36.0703 115.42 40.977 119.47 40.9468Z" fill="#CBCFD3"/>
<path d="M98.7356 57.39C96.1003 59.7568 92.0162 57.6907 89.5713 55.3166C87.1263 52.9426 84.012 54.3127 84.012 54.3127L83.5224 57.8177C83.5224 57.8177 86.6367 56.4476 89.0817 58.8217C91.5266 61.1958 95.6107 63.2618 98.246 60.895L98.7356 57.39Z" fill="#6D7882"/>
<path d="M79.7337 19.4922L83.5469 21.4245C83.5469 21.4245 81.0795 27.9243 77.1771 27.7799L73.8752 26.4496C73.8752 26.4496 78.9883 23.7142 79.7337 19.4922Z" fill="#CBCFD3"/>
<path d="M104.601 9.82031L108.414 11.7526C108.414 11.7526 107.328 15.4891 103.426 15.3446L100.124 14.0144C100.124 14.0144 103.856 14.0423 104.601 9.82031Z" fill="#6D7882"/>
<path d="M91.1506 40.2153C92.2953 40.2153 93.2231 39.2874 93.2231 38.1428C93.2231 36.9982 92.2953 36.0703 91.1506 36.0703C90.006 36.0703 89.0781 36.9982 89.0781 38.1428C89.0781 39.2874 90.006 40.2153 91.1506 40.2153Z" fill="#6D7882"/>
<path d="M91.8381 4.12271L84.9297 2.90625L89.0752 9.81462L91.8381 4.12271Z" fill="#B5BBC0"/>
<path d="M63.2774 19.1894C64.1507 18.4151 65.3625 18.1482 66.4803 18.4839C67.5981 18.8197 68.4628 19.7097 68.7649 20.837L79.2248 59.874C79.5269 61.0015 79.2234 62.2054 78.4232 63.0551C77.623 63.9047 76.4399 64.2794 75.2966 64.0456L51.1234 59.0993L54.9428 73.3533C55.4241 75.1499 54.3585 76.9967 52.562 77.4782L49.3086 78.35C47.9084 78.7251 46.4249 78.1624 45.6262 76.9527L35.2278 61.2031L34.3194 61.4465C28.9296 62.8907 23.3894 59.6921 21.9452 54.3022C20.5011 48.9124 23.6997 43.3722 29.0895 41.928L41.3343 38.647L63.2774 19.1894ZM60.155 30.6356C59.7886 30.2228 59.1563 30.1848 58.7432 30.5509L47.1855 40.7997C46.7724 41.166 46.7347 41.7983 47.1008 42.2115C47.4672 42.6247 48.0994 42.6627 48.5126 42.2962L60.0703 32.0475C60.4833 31.681 60.5214 31.0488 60.155 30.6356Z" fill="#B5BBC0"/>
<circle cx="23.7442" cy="43.4239" r="11.7442" fill="#6D7882"/>
<path d="M19.5547 42.4804L22.9723 45.9346L28.7823 40.0625" stroke="white" stroke-width="2" stroke-linecap="round" stroke-linejoin="round"/>
</g>
</svg>
