<svg width="13" height="14" viewBox="0 0 13 14" fill="none" xmlns="http://www.w3.org/2000/svg">
<rect y="0.5" width="13" height="13" rx="2" fill="#D63D4A"/>
<path d="M10.0449 3.69531V4.46875H3.07227V3.69531H6.10742V2.28906H7.0332V3.69531H10.0449ZM6.56445 5.20703C8.05273 5.20703 9.13086 5.99219 9.14258 7.09375C9.13086 8.21875 8.05273 9.00391 6.56445 9.00391C5.07617 9.00391 3.98633 8.21875 3.99805 7.09375C3.98633 5.99219 5.07617 5.20703 6.56445 5.20703ZM6.56445 5.99219C5.62695 5.99219 4.93555 6.44922 4.94727 7.09375C4.93555 7.76172 5.62695 8.23047 6.56445 8.23047C7.50195 8.23047 8.19336 7.76172 8.19336 7.09375C8.19336 6.44922 7.50195 5.99219 6.56445 5.99219Z" fill="white"/>
<circle cx="6.5" cy="10.75" r="0.75" fill="white"/>
</svg>
