<svg width="50" height="50" viewBox="0 0 50 50" fill="none" xmlns="http://www.w3.org/2000/svg">
<rect width="50" height="50" rx="6" fill="#5ABBB7"/>
<path d="M33.5 20.1728C33.5 23.0845 31.9164 26.6406 29.5321 28.0882C28.9667 28.6471 28.9667 31 28.9667 31C28.9667 31 21.4435 31 21.0333 31C21.0333 31 21.0333 28.6471 20.4679 28.0882C18.0836 26.6406 16.5 23.0845 16.5 20.1728C16.5 15.6591 20.3056 12 25 12C29.6944 12 33.5 15.6591 33.5 20.1728Z" fill="white"/>
<rect x="21" y="32" width="8" height="2" rx="1" fill="white"/>
<rect x="22" y="35" width="6" height="2" rx="1" fill="white"/>
<path d="M24.5 15C21.546 15 18.5842 19.2727 19.7666 22" stroke="#5ABBB7" stroke-width="1.5"/>
</svg>
