<svg width="24" height="24" viewBox="0 0 24 24" fill="none" xmlns="http://www.w3.org/2000/svg">
<mask id="path-1-inside-1_542_3485" fill="white">
<path fill-rule="evenodd" clip-rule="evenodd" d="M16.4706 2L21 5.5V22H3V2H16.4706Z"/>
</mask>
<path fill-rule="evenodd" clip-rule="evenodd" d="M16.4706 2L21 5.5V22H3V2H16.4706Z" fill="white"/>
<path d="M21 5.5H22V5.00896L21.6114 4.70872L21 5.5ZM16.4706 2L17.082 1.20872L16.8119 1H16.4706V2ZM21 22V23H22V22H21ZM3 22H2V23H3V22ZM3 2V1H2V2H3ZM21 5.5L21.6114 4.70872L17.082 1.20872L16.4706 2L15.8591 2.79128L20.3886 6.29128L21 5.5ZM21 5.5H20V22H21H22V5.5H21ZM21 22V21H3V22V23H21V22ZM3 22H4V2H3H2V22H3ZM3 2V3H16.4706V2V1H3V2Z" fill="#BDC2CA" mask="url(#path-1-inside-1_542_3485)"/>
<rect width="18" height="9" transform="translate(3 14)" fill="#78A2AE"/>
<path d="M5.24858 16.7965V15.9091H9.42969V16.7965H7.87109V21H6.80717V16.7965H5.24858ZM11.1275 15.9091L12.1541 17.6442H12.1939L13.2255 15.9091H14.4411L12.8874 18.4545L14.4759 21H13.2379L12.1939 19.2624H12.1541L11.1101 21H9.87713L11.4705 18.4545L9.90696 15.9091H11.1275ZM14.9283 16.7965V15.9091H19.1094V16.7965H17.5508V21H16.4869V16.7965H14.9283Z" fill="white"/>
<rect x="7" y="12" width="10" height="1" fill="#AFB6C2"/>
<rect x="7" y="9" width="10" height="1" fill="#AFB6C2"/>
<rect x="7" y="6" width="10" height="1" fill="#AFB6C2"/>
</svg>
