<svg width="24" height="24" viewBox="0 0 24 24" fill="none" xmlns="http://www.w3.org/2000/svg">
<mask id="path-1-inside-1_542_3495" fill="white">
<path fill-rule="evenodd" clip-rule="evenodd" d="M16.4706 2L21 5.5V22H3V2H16.4706Z"/>
</mask>
<path fill-rule="evenodd" clip-rule="evenodd" d="M16.4706 2L21 5.5V22H3V2H16.4706Z" fill="white"/>
<path d="M21 5.5H22V5.00896L21.6114 4.70872L21 5.5ZM16.4706 2L17.082 1.20872L16.8119 1H16.4706V2ZM21 22V23H22V22H21ZM3 22H2V23H3V22ZM3 2V1H2V2H3ZM21 5.5L21.6114 4.70872L17.082 1.20872L16.4706 2L15.8591 2.79128L20.3886 6.29128L21 5.5ZM21 5.5H20V22H21H22V5.5H21ZM21 22V21H3V22V23H21V22ZM3 22H4V2H3H2V22H3ZM3 2V3H16.4706V2V1H3V2Z" fill="#BDC2CA" mask="url(#path-1-inside-1_542_3495)"/>
<rect width="18" height="9" transform="translate(3 14)" fill="#295695"/>
<path d="M6.24716 21H4.44247V15.9091H6.26207C6.77415 15.9091 7.21496 16.011 7.58452 16.2148C7.95407 16.417 8.23828 16.7079 8.43715 17.0874C8.63767 17.4669 8.73793 17.9209 8.73793 18.4496C8.73793 18.9799 8.63767 19.4356 8.43715 19.8168C8.23828 20.1979 7.95241 20.4904 7.57955 20.6942C7.20833 20.8981 6.7642 21 6.24716 21ZM5.51882 20.0778H6.20241C6.5206 20.0778 6.78823 20.0214 7.00533 19.9087C7.22408 19.7944 7.38814 19.6179 7.49751 19.3793C7.60855 19.139 7.66406 18.8291 7.66406 18.4496C7.66406 18.0734 7.60855 17.766 7.49751 17.5273C7.38814 17.2887 7.22491 17.113 7.00781 17.0004C6.79072 16.8877 6.52308 16.8313 6.2049 16.8313H5.51882V20.0778ZM14.2135 18.4545C14.2135 19.0097 14.1083 19.482 13.8978 19.8714C13.689 20.2609 13.404 20.5584 13.0427 20.7638C12.6831 20.9677 12.2787 21.0696 11.8296 21.0696C11.3772 21.0696 10.9712 20.9669 10.6116 20.7614C10.252 20.5559 9.96777 20.2584 9.75897 19.869C9.55016 19.4795 9.44576 19.008 9.44576 18.4545C9.44576 17.8994 9.55016 17.4271 9.75897 17.0376C9.96777 16.6482 10.252 16.3516 10.6116 16.1477C10.9712 15.9422 11.3772 15.8395 11.8296 15.8395C12.2787 15.8395 12.6831 15.9422 13.0427 16.1477C13.404 16.3516 13.689 16.6482 13.8978 17.0376C14.1083 17.4271 14.2135 17.8994 14.2135 18.4545ZM13.1222 18.4545C13.1222 18.0949 13.0684 17.7917 12.9607 17.5447C12.8546 17.2978 12.7046 17.1106 12.5107 16.983C12.3169 16.8554 12.0898 16.7915 11.8296 16.7915C11.5695 16.7915 11.3424 16.8554 11.1485 16.983C10.9546 17.1106 10.8038 17.2978 10.6961 17.5447C10.5901 17.7917 10.537 18.0949 10.537 18.4545C10.537 18.8142 10.5901 19.1174 10.6961 19.3643C10.8038 19.6113 10.9546 19.7985 11.1485 19.9261C11.3424 20.0537 11.5695 20.1175 11.8296 20.1175C12.0898 20.1175 12.3169 20.0537 12.5107 19.9261C12.7046 19.7985 12.8546 19.6113 12.9607 19.3643C13.0684 19.1174 13.1222 18.8142 13.1222 18.4545ZM19.5027 17.6914H18.4139C18.394 17.5505 18.3534 17.4254 18.2921 17.3161C18.2308 17.205 18.152 17.1106 18.0559 17.0327C17.9598 16.9548 17.8488 16.8951 17.7228 16.8537C17.5985 16.8123 17.4635 16.7915 17.3176 16.7915C17.0542 16.7915 16.8246 16.857 16.6291 16.9879C16.4335 17.1172 16.2819 17.3061 16.1742 17.5547C16.0665 17.8016 16.0126 18.1016 16.0126 18.4545C16.0126 18.8175 16.0665 19.1224 16.1742 19.3693C16.2836 19.6162 16.436 19.8027 16.6316 19.9286C16.8271 20.0546 17.0533 20.1175 17.3102 20.1175C17.4544 20.1175 17.5878 20.0985 17.7104 20.0604C17.8347 20.0223 17.9449 19.9667 18.041 19.8938C18.1371 19.8192 18.2167 19.7289 18.2797 19.6229C18.3443 19.5168 18.389 19.3958 18.4139 19.2599L19.5027 19.2649C19.4745 19.4986 19.4041 19.724 19.2914 19.9411C19.1803 20.1565 19.0304 20.3496 18.8414 20.5202C18.6542 20.6893 18.4305 20.8235 18.1703 20.9229C17.9118 21.0207 17.6193 21.0696 17.2928 21.0696C16.8387 21.0696 16.4327 20.9669 16.0748 20.7614C15.7185 20.5559 15.4367 20.2584 15.2296 19.869C15.0241 19.4795 14.9213 19.008 14.9213 18.4545C14.9213 17.8994 15.0257 17.4271 15.2346 17.0376C15.4434 16.6482 15.7267 16.3516 16.0847 16.1477C16.4426 15.9422 16.8453 15.8395 17.2928 15.8395C17.5878 15.8395 17.8612 15.8809 18.1131 15.9638C18.3667 16.0466 18.5912 16.1676 18.7868 16.3267C18.9823 16.4841 19.1414 16.6772 19.264 16.9059C19.3883 17.1346 19.4679 17.3964 19.5027 17.6914Z" fill="white"/>
<rect x="7" y="12" width="10" height="1" fill="#AFB6C2"/>
<rect x="7" y="9" width="10" height="1" fill="#AFB6C2"/>
<rect x="7" y="6" width="10" height="1" fill="#AFB6C2"/>
</svg>
