<svg width="30" height="30" viewBox="0 0 30 30" fill="none" xmlns="http://www.w3.org/2000/svg">
<g clip-path="url(#clip0_2944_7370)">
<path d="M13.4111 4C18.6088 4 22.823 8.21348 22.8232 13.4111C22.8232 15.4282 22.1859 17.2951 21.1055 18.8271C21.163 18.871 21.2189 18.9182 21.2715 18.9707L25.5225 23.2217C26.1568 23.856 26.1566 24.8851 25.5225 25.5195C24.8881 26.1539 23.859 26.1539 23.2246 25.5195L18.9736 21.2686C18.9213 21.2162 18.8748 21.1599 18.8311 21.1025C17.2983 22.1847 15.4299 22.8232 13.4111 22.8232C8.21347 22.8231 4 18.6089 4 13.4111C4.0002 8.21358 8.2136 4.00018 13.4111 4ZM13.4111 6.67773C9.69232 6.67791 6.67794 9.6923 6.67773 13.4111C6.67773 17.1301 9.6922 20.1453 13.4111 20.1455C17.1302 20.1455 20.1455 17.1302 20.1455 13.4111C20.1453 9.69219 17.1301 6.67773 13.4111 6.67773Z" fill="#513EAD"/>
</g>
<defs>
<clipPath id="clip0_2944_7370">
<rect width="30" height="30" fill="white"/>
</clipPath>
</defs>
</svg>
