<svg width="24" height="24" viewBox="0 0 24 24" fill="none" xmlns="http://www.w3.org/2000/svg">
<mask id="path-1-inside-1_613_3756" fill="white">
<path fill-rule="evenodd" clip-rule="evenodd" d="M16.4706 1L21 4.5V21H3V1H16.4706Z"/>
</mask>
<path fill-rule="evenodd" clip-rule="evenodd" d="M16.4706 1L21 4.5V21H3V1H16.4706Z" fill="white"/>
<path d="M21 4.5H22V4.00896L21.6114 3.70872L21 4.5ZM16.4706 1L17.082 0.208715L16.8119 0H16.4706V1ZM21 21V22H22V21H21ZM3 21H2V22H3V21ZM3 1V0H2V1H3ZM21 4.5L21.6114 3.70872L17.082 0.208715L16.4706 1L15.8591 1.79128L20.3886 5.29128L21 4.5ZM21 4.5H20V21H21H22V4.5H21ZM21 21V20H3V21V22H21V21ZM3 21H4V1H3H2V21H3ZM3 1V2H16.4706V1V0H3V1Z" fill="#BDC2CA" mask="url(#path-1-inside-1_613_3756)"/>
<rect width="18" height="9" transform="translate(3 13)" fill="#778497"/>
<path d="M5.94247 20V14.9091H9.37287V15.7965H7.01882V17.0096H9.19638V17.897H7.01882V19.1126H9.38281V20H5.94247ZM10.0347 15.7965V14.9091H14.2158V15.7965H12.6572V20H11.5933V15.7965H10.0347ZM19.1638 16.6914H18.075C18.0551 16.5505 18.0145 16.4254 17.9532 16.3161C17.8919 16.205 17.8132 16.1106 17.7171 16.0327C17.6209 15.9548 17.5099 15.8951 17.384 15.8537C17.2597 15.8123 17.1246 15.7915 16.9788 15.7915C16.7153 15.7915 16.4858 15.857 16.2902 15.9879C16.0947 16.1172 15.943 16.3061 15.8353 16.5547C15.7276 16.8016 15.6737 17.1016 15.6737 17.4545C15.6737 17.8175 15.7276 18.1224 15.8353 18.3693C15.9447 18.6162 16.0972 18.8027 16.2927 18.9286C16.4883 19.0546 16.7145 19.1175 16.9713 19.1175C17.1155 19.1175 17.2489 19.0985 17.3715 19.0604C17.4958 19.0223 17.606 18.9667 17.7021 18.8938C17.7983 18.8192 17.8778 18.7289 17.9408 18.6229C18.0054 18.5168 18.0502 18.3958 18.075 18.2599L19.1638 18.2649C19.1356 18.4986 19.0652 18.724 18.9525 18.9411C18.8415 19.1565 18.6915 19.3496 18.5026 19.5202C18.3153 19.6893 18.0916 19.8235 17.8314 19.9229C17.5729 20.0207 17.2804 20.0696 16.9539 20.0696C16.4999 20.0696 16.0938 19.9669 15.7359 19.7614C15.3796 19.5559 15.0979 19.2584 14.8907 18.869C14.6852 18.4795 14.5825 18.008 14.5825 17.4545C14.5825 16.8994 14.6869 16.4271 14.8957 16.0376C15.1045 15.6482 15.3879 15.3516 15.7458 15.1477C16.1038 14.9422 16.5065 14.8395 16.9539 14.8395C17.2489 14.8395 17.5223 14.8809 17.7742 14.9638C18.0278 15.0466 18.2523 15.1676 18.4479 15.3267C18.6434 15.4841 18.8025 15.6772 18.9252 15.9059C19.0494 16.1346 19.129 16.3964 19.1638 16.6914Z" fill="white"/>
<rect x="7" y="11" width="10" height="1" fill="#AFB6C2"/>
<rect x="7" y="8" width="10" height="1" fill="#AFB6C2"/>
<rect x="7" y="5" width="10" height="1" fill="#AFB6C2"/>
</svg>
