<svg width="32" height="32" viewBox="0 0 32 32" fill="none" xmlns="http://www.w3.org/2000/svg">
<path d="M9.92871 16.5723C10.1452 17.094 10.4201 17.5877 10.7598 18.0723H9.49902L8.36914 19.7979L8.14746 20.1367H6C5.73591 20.6129 5.22861 20.9355 4.64551 20.9355C3.79037 20.9355 3.09668 20.2419 3.09668 19.3867C3.09688 18.5318 3.7905 17.8389 4.64551 17.8389C5.2282 17.8389 5.73478 18.1611 5.99902 18.6367H7.33594L8.46582 16.9111L8.6875 16.5723H9.92871ZM23.5342 16.9111L24.6641 18.6367H26.001C26.2652 18.1611 26.7718 17.8389 27.3545 17.8389C28.2095 17.8389 28.9031 18.5318 28.9033 19.3867C28.9033 20.2419 28.2096 20.9355 27.3545 20.9355C26.7714 20.9355 26.2641 20.6129 26 20.1367H23.8525L23.6309 19.7979L22.501 18.0723H21.2402C21.5799 17.5876 21.8557 17.0942 22.0723 16.5723H23.3125L23.5342 16.9111ZM20.9746 16.5723C20.7785 16.9681 20.5407 17.3474 20.2578 17.7246C20.1673 17.8453 20.0819 17.9609 20 18.0723H19.6123C19.1982 18.0721 18.8623 17.7364 18.8623 17.3223C18.8625 16.9083 19.1983 16.5724 19.6123 16.5723H20.9746ZM12.3877 16.5723C12.8017 16.5724 13.1375 16.9083 13.1377 17.3223C13.1377 17.7364 12.8018 18.0721 12.3877 18.0723H12C11.9181 17.9609 11.8327 17.8453 11.7422 17.7246C11.4593 17.3475 11.2224 16.9679 11.0264 16.5723H12.3877ZM1.54883 12.6777C2.13173 12.6778 2.63917 12.9997 2.90332 13.4756H9.32715C9.34002 14.0118 9.38794 14.5083 9.46973 14.9756H2.90332C2.63922 15.4517 2.13187 15.7744 1.54883 15.7744C0.693677 15.7744 3.73798e-08 15.0807 0 14.2256C0.000119045 13.3705 0.693751 12.6777 1.54883 12.6777ZM30.4512 12.6777C31.3062 12.6777 31.9999 13.3705 32 14.2256C32 15.0807 31.3063 15.7744 30.4512 15.7744C29.8681 15.7744 29.3608 15.4517 29.0967 14.9756H22.5322C22.614 14.5084 22.66 14.0117 22.6729 13.4756H29.0967C29.3608 12.9997 29.8683 12.6778 30.4512 12.6777ZM10.3271 13.4756C10.739 13.4782 11.0721 13.8131 11.0723 14.2256C11.0723 14.5851 10.819 14.8839 10.4814 14.957C10.392 14.5032 10.3412 14.0142 10.3271 13.4756ZM21.6719 13.4756C21.6579 14.0144 21.6071 14.5031 21.5176 14.957C21.1805 14.8836 20.9277 14.5847 20.9277 14.2256C20.9279 13.8134 21.2604 13.4787 21.6719 13.4756ZM4.64551 7C5.22863 7 5.73592 7.32263 6 7.79883H8.14746L8.36914 8.1377L9.49902 9.86328H9.89355C9.70883 10.3345 9.5704 10.8361 9.47656 11.3633H8.6875L8.46582 11.0244L7.33594 9.29883H5.99902C5.73477 9.77442 5.22818 10.0967 4.64551 10.0967C3.79052 10.0967 3.09692 9.40377 3.09668 8.54883C3.09668 7.69369 3.79037 7.00002 4.64551 7ZM21.0195 9.86328C21.2346 10.3174 21.3971 10.8189 21.5068 11.3633H19.6123C19.1983 11.3632 18.8625 11.0272 18.8623 10.6133C18.8623 10.1992 19.1982 9.8634 19.6123 9.86328H21.0195ZM27.3545 7C28.2096 7.00002 28.9033 7.69369 28.9033 8.54883C28.9031 9.40377 28.2095 10.0967 27.3545 10.0967C26.7718 10.0967 26.2652 9.77442 26.001 9.29883H24.6641L23.5342 11.0244L23.3125 11.3633H22.5244C22.4306 10.836 22.2912 10.3345 22.1064 9.86328H22.501L23.6309 8.1377L23.8525 7.79883H26C26.2641 7.32263 26.7714 7 27.3545 7ZM12.3877 9.86328C12.8018 9.8634 13.1377 10.1992 13.1377 10.6133C13.1375 11.0272 12.8017 11.3632 12.3877 11.3633H10.4932C10.6029 10.8189 10.7655 10.3174 10.9805 9.86328H12.3877Z" fill="#6D7882"/>
<path d="M13.418 24.5469H18.5793" stroke="#6D7882" stroke-width="1.5" stroke-linecap="round" stroke-linejoin="round"/>
<path d="M14.4531 26.6094H17.5499" stroke="#6D7882" stroke-width="1.5" stroke-linecap="round" stroke-linejoin="round"/>
<path d="M16.002 7C19.7867 7 21.7241 9.46083 21.6787 13.3086C21.6566 15.1845 21.2058 16.463 20.2598 17.7246C19.3139 18.9861 18.841 19.6174 18.8408 22.1406H13.1641C13.1642 19.6173 12.6904 18.9863 11.7441 17.7246C10.7979 16.463 10.3474 15.1845 10.3252 13.3086C10.2798 9.46087 12.2174 7.00005 16.002 7ZM15.2246 9.83887C15.178 9.83978 15.1331 9.85631 15.0977 9.88574C15.0622 9.91532 15.0384 9.9562 15.0303 10.001L14.8848 11.001C14.6509 11.0975 14.4308 11.2231 14.2295 11.374L13.2617 10.9961C13.2185 10.9801 13.1707 10.9793 13.127 10.9941C13.0833 11.009 13.0461 11.0385 13.0225 11.0771L12.2441 12.3857C12.2209 12.4246 12.2127 12.4703 12.2207 12.5146C12.2288 12.5592 12.2532 12.6001 12.2891 12.6289L13.1113 13.2559C13.0936 13.3777 13.0847 13.501 13.084 13.624C13.0849 13.7487 13.0938 13.8735 13.1113 13.9971L12.2891 14.624C12.2532 14.6528 12.2288 14.6937 12.2207 14.7383C12.2127 14.7826 12.2209 14.8283 12.2441 14.8672L13.0225 16.1758C13.0461 16.2145 13.0833 16.244 13.127 16.2588C13.1707 16.2736 13.2185 16.2729 13.2617 16.2568L14.2295 15.8779C14.4301 16.0302 14.6501 16.1565 14.8848 16.252L15.0303 17.252C15.0397 17.2955 15.0635 17.3348 15.0986 17.3633C15.134 17.3918 15.1788 17.4083 15.2246 17.4092H16.7812C16.8279 17.4082 16.8728 17.3909 16.9082 17.3613C16.9436 17.3317 16.9675 17.2908 16.9756 17.2461L17.1201 16.2461C17.3542 16.1495 17.5749 16.0241 17.7764 15.873L18.7441 16.252C18.7871 16.2678 18.8345 16.2685 18.8779 16.2539C18.9215 16.2391 18.9588 16.2095 18.9824 16.1709L19.7607 14.8623C19.7842 14.8233 19.7933 14.7769 19.7852 14.7324C19.777 14.688 19.7525 14.6479 19.7168 14.6191L18.8936 13.9912C18.9113 13.8695 18.9212 13.7469 18.9219 13.624C18.921 13.4993 18.9111 13.3745 18.8936 13.251L19.7168 12.623C19.7524 12.5942 19.777 12.5542 19.7852 12.5098C19.7932 12.4653 19.7841 12.4189 19.7607 12.3799L18.9824 11.0713C18.9587 11.0328 18.9215 11.004 18.8779 10.9893C18.8345 10.9746 18.7872 10.9744 18.7441 10.9902L17.7773 11.3691C17.5764 11.2168 17.3552 11.0915 17.1201 10.9961L16.9756 9.99512C16.9661 9.95157 16.9415 9.91218 16.9062 9.88379C16.871 9.85547 16.8269 9.83977 16.7812 9.83887H15.2246ZM16.0029 12.3076C16.3611 12.3087 16.7038 12.4477 16.957 12.6943C17.2103 12.941 17.3534 13.2752 17.3545 13.624C17.3544 13.8843 17.2755 14.139 17.127 14.3555C16.9785 14.5718 16.7673 14.7402 16.5205 14.8398C16.2736 14.9395 16.0014 14.9658 15.7393 14.915C15.477 14.8642 15.2359 14.7388 15.0469 14.5547C14.8579 14.3706 14.729 14.1361 14.6768 13.8809C14.6246 13.6255 14.6516 13.3607 14.7539 13.1201C14.8562 12.8796 15.0296 12.674 15.252 12.5293C15.4742 12.3847 15.7356 12.3076 16.0029 12.3076Z" fill="#6D7882"/>
</svg>
