<svg width="24" height="24" viewBox="0 0 24 24" fill="none" xmlns="http://www.w3.org/2000/svg">
<mask id="path-1-inside-1_542_3552" fill="white">
<path fill-rule="evenodd" clip-rule="evenodd" d="M16.4706 2L21 5.5V22H3V2H16.4706Z"/>
</mask>
<path fill-rule="evenodd" clip-rule="evenodd" d="M16.4706 2L21 5.5V22H3V2H16.4706Z" fill="white"/>
<path d="M21 5.5H22V5.00896L21.6114 4.70872L21 5.5ZM16.4706 2L17.082 1.20872L16.8119 1H16.4706V2ZM21 22V23H22V22H21ZM3 22H2V23H3V22ZM3 2V1H2V2H3ZM21 5.5L21.6114 4.70872L17.082 1.20872L16.4706 2L15.8591 2.79128L20.3886 6.29128L21 5.5ZM21 5.5H20V22H21H22V5.5H21ZM21 22V21H3V22V23H21V22ZM3 22H4V2H3H2V22H3ZM3 2V3H16.4706V2V1H3V2Z" fill="#BDC2CA" mask="url(#path-1-inside-1_542_3552)"/>
<rect width="18" height="9" transform="translate(3 14)" fill="#EA561C"/>
<path d="M5.44247 21V15.9091H7.45099C7.83712 15.9091 8.16607 15.9828 8.43786 16.1303C8.70964 16.2762 8.91679 16.4792 9.0593 16.7393C9.20348 16.9979 9.27557 17.2962 9.27557 17.6342C9.27557 17.9723 9.20265 18.2706 9.05682 18.5291C8.91099 18.7876 8.69969 18.989 8.42294 19.1332C8.14785 19.2773 7.81475 19.3494 7.42365 19.3494H6.14347V18.4869H7.24964C7.45679 18.4869 7.62749 18.4512 7.76172 18.38C7.89761 18.3071 7.9987 18.2068 8.06499 18.0792C8.13293 17.9499 8.1669 17.8016 8.1669 17.6342C8.1669 17.4652 8.13293 17.3177 8.06499 17.1918C7.9987 17.0642 7.89761 16.9656 7.76172 16.896C7.62583 16.8247 7.45348 16.7891 7.24467 16.7891H6.51882V21H5.44247ZM9.9747 21V15.9091H11.9832C12.3693 15.9091 12.6983 15.9828 12.9701 16.1303C13.2419 16.2762 13.449 16.4792 13.5915 16.7393C13.7357 16.9979 13.8078 17.2962 13.8078 17.6342C13.8078 17.9723 13.7349 18.2706 13.589 18.5291C13.4432 18.7876 13.2319 18.989 12.9552 19.1332C12.6801 19.2773 12.347 19.3494 11.9559 19.3494H10.6757V18.4869H11.7819C11.989 18.4869 12.1597 18.4512 12.2939 18.38C12.4298 18.3071 12.5309 18.2068 12.5972 18.0792C12.6652 17.9499 12.6991 17.8016 12.6991 17.6342C12.6991 17.4652 12.6652 17.3177 12.5972 17.1918C12.5309 17.0642 12.4298 16.9656 12.2939 16.896C12.1581 16.8247 11.9857 16.7891 11.7769 16.7891H11.051V21H9.9747ZM14.313 16.7965V15.9091H18.4941V16.7965H16.9355V21H15.8716V16.7965H14.313Z" fill="white"/>
<rect x="7" y="6" width="4" height="4" fill="#AFB6C2"/>
<rect x="7" y="12" width="10" height="1" fill="#AFB6C2"/>
<rect x="13" y="9" width="4" height="1" fill="#AFB6C2"/>
<rect x="13" y="6" width="4" height="1" fill="#AFB6C2"/>
</svg>
