<svg width="20" height="20" viewBox="0 0 20 20" fill="none" xmlns="http://www.w3.org/2000/svg">
<mask id="mask0_1428_7401" style="mask-type:alpha" maskUnits="userSpaceOnUse" x="0" y="0" width="20" height="20">
<rect width="20" height="20" fill="#D9D9D9"/>
</mask>
<g mask="url(#mask0_1428_7401)">
<path d="M12.8 2.61286L19.501 13.7739C20.464 15.3769 19.991 17.4859 18.444 18.4839C17.9248 18.8201 17.3196 18.9992 16.701 18.9999H3.298C1.477 18.9999 0 17.4699 0 15.5809C0 14.9419 0.173 14.3169 0.498 13.7739L7.2 2.61286C8.162 1.00986 10.196 0.518858 11.743 1.51686C12.171 1.79286 12.533 2.16786 12.8 2.61286ZM10 14.9999C10.2652 14.9999 10.5196 14.8945 10.7071 14.707C10.8946 14.5194 11 14.2651 11 13.9999C11 13.7346 10.8946 13.4803 10.7071 13.2928C10.5196 13.1052 10.2652 12.9999 10 12.9999C9.73478 12.9999 9.48043 13.1052 9.29289 13.2928C9.10536 13.4803 9 13.7346 9 13.9999C9 14.2651 9.10536 14.5194 9.29289 14.707C9.48043 14.8945 9.73478 14.9999 10 14.9999ZM10 5.99986C9.73478 5.99986 9.48043 6.10522 9.29289 6.29275C9.10536 6.48029 9 6.73464 9 6.99986V10.9999C9 11.2651 9.10536 11.5194 9.29289 11.707C9.48043 11.8945 9.73478 11.9999 10 11.9999C10.2652 11.9999 10.5196 11.8945 10.7071 11.707C10.8946 11.5194 11 11.2651 11 10.9999V6.99986C11 6.73464 10.8946 6.48029 10.7071 6.29275C10.5196 6.10522 10.2652 5.99986 10 5.99986Z" fill="#D63D4A"/>
</g>
</svg>
