<svg width="32" height="32" viewBox="0 0 32 32" fill="none" xmlns="http://www.w3.org/2000/svg">
<path d="M2 2.25C2.4142 2.25 2.74998 2.58581 2.75 3V20.25H13V21.75H2C1.58579 21.75 1.25 21.4142 1.25 21V3C1.25002 2.58581 1.5858 2.25 2 2.25ZM19.0156 21.25C19.0065 21.3326 19 21.4159 19 21.5C19 21.5841 19.0063 21.6674 19.0156 21.75H19V21.25H19.0156ZM19.3633 20.25C19.1751 20.5634 19.0549 20.8978 19.0156 21.2471H19V20.251L19.001 20.25H19.3633ZM19.8184 2.27246C20.2201 2.17216 20.6271 2.41662 20.7275 2.81836C20.8278 3.22013 20.5834 3.62709 20.1816 3.72754L14.4922 5.14941C14.4613 5.67212 14.2702 6.14943 13.9668 6.53711L16.2705 9.6084C16.5013 9.53808 16.7462 9.5 17 9.5C17.8761 9.5 18.6454 9.95166 19.0918 10.6338C17.5008 11.2469 16.1161 12.2753 15.0703 13.5869C15.0079 13.5111 14.9498 13.4316 14.8965 13.3486L10.4941 15.1094C10.4368 16.4393 9.34401 17.5 8 17.5C6.61929 17.5 5.5 16.3807 5.5 15C5.50002 13.6193 6.6193 12.5 8 12.5C8.88317 12.5 9.6578 12.959 10.1025 13.6504L14.5049 11.8896C14.5283 11.3507 14.7211 10.8567 15.0332 10.459L12.7324 7.38965C12.5007 7.46059 12.255 7.5 12 7.5C10.6193 7.5 9.5 6.38071 9.5 5C9.50002 3.61931 10.6193 2.5 12 2.5C12.9015 2.5 13.6891 2.97875 14.1289 3.69434L19.8184 2.27246Z" fill="#6D7882"/>
<path d="M23.5 13C19.3645 13 16 16.3047 16 20.3667V25.8502L18.9567 27.0123L19.5654 30H21.1923V27.7333H22.3462V30H22.9231V27.7333H24.0769V30H24.6538V27.7333H25.8077V30H27.4346L28.0433 27.0123L31 25.8502V20.3667C31 16.3047 27.6355 13 23.5 13ZM20.3269 24.3333C19.9276 24.3333 19.5372 24.217 19.2051 23.9991C18.873 23.7811 18.6142 23.4714 18.4614 23.109C18.3086 22.7466 18.2686 22.3478 18.3465 21.9631C18.4244 21.5783 18.6167 21.2249 18.8991 20.9476C19.1815 20.6702 19.5413 20.4813 19.933 20.4048C20.3247 20.3282 20.7307 20.3675 21.0996 20.5176C21.4686 20.6678 21.784 20.922 22.0059 21.2481C22.2277 21.5743 22.3462 21.9577 22.3462 22.35C22.3456 22.8758 22.1327 23.38 21.7541 23.7518C21.3755 24.1236 20.8623 24.3328 20.3269 24.3333ZM22.1843 26.6L23.0673 23.7667H23.9327L24.8157 26.6H22.1843ZM26.6731 24.3333C26.2737 24.3333 25.8833 24.217 25.5513 23.9991C25.2192 23.7811 24.9604 23.4714 24.8076 23.109C24.6547 22.7466 24.6147 22.3478 24.6926 21.9631C24.7706 21.5783 24.9629 21.2249 25.2453 20.9476C25.5277 20.6702 25.8875 20.4813 26.2791 20.4048C26.6708 20.3282 27.0768 20.3675 27.4458 20.5176C27.8148 20.6678 28.1301 20.922 28.352 21.2481C28.5739 21.5743 28.6923 21.9577 28.6923 22.35C28.6917 22.8758 28.4788 23.38 28.1003 23.7518C27.7217 24.1236 27.2084 24.3328 26.6731 24.3333Z" fill="#6D7882"/>
</svg>
