<svg width="127" height="81" viewBox="0 0 127 81" fill="none" xmlns="http://www.w3.org/2000/svg">
<mask id="path-1-inside-1_2142_10116" fill="white">
<path d="M9.52344 4.03907C9.52344 1.82993 11.3143 0.0390625 13.5234 0.0390625H113.473C115.683 0.0390625 117.473 1.82992 117.473 4.03906V73.0641H9.52344V4.03907Z"/>
</mask>
<path d="M9.52344 4.03907C9.52344 1.82993 11.3143 0.0390625 13.5234 0.0390625H113.473C115.683 0.0390625 117.473 1.82992 117.473 4.03906V73.0641H9.52344V4.03907Z" fill="white" stroke="#CBCFD3" stroke-width="10" mask="url(#path-1-inside-1_2142_10116)"/>
<rect y="73.0625" width="127" height="7.9375" rx="3.96875" fill="#B5BBC0"/>
<path d="M45.3915 28.3915C45.5153 28.2674 45.6624 28.1689 45.8243 28.1018C45.9862 28.0346 46.1597 28 46.335 28C46.5103 28 46.6839 28.0346 46.8458 28.1018C47.0077 28.1689 47.1548 28.2674 47.2786 28.3915L50.0003 31.116L52.7221 28.3915C52.846 28.2676 52.9931 28.1693 53.155 28.1023C53.3169 28.0352 53.4904 28.0007 53.6657 28.0007C53.8409 28.0007 54.0144 28.0352 54.1763 28.1023C54.3382 28.1693 54.4853 28.2676 54.6092 28.3915C54.7331 28.5154 54.8314 28.6625 54.8984 28.8244C54.9655 28.9863 55 29.1598 55 29.335C55 29.5103 54.9655 29.6838 54.8984 29.8457C54.8314 30.0076 54.7331 30.1547 54.6092 30.2786L51.8847 33.0004L54.6092 35.7221C54.7331 35.846 54.8314 35.9931 54.8984 36.155C54.9655 36.3169 55 36.4904 55 36.6657C55 36.8409 54.9655 37.0144 54.8984 37.1763C54.8314 37.3382 54.7331 37.4853 54.6092 37.6092C54.4853 37.7331 54.3382 37.8314 54.1763 37.8984C54.0144 37.9655 53.8409 38 53.6657 38C53.4904 38 53.3169 37.9655 53.155 37.8984C52.9931 37.8314 52.846 37.7331 52.7221 37.6092L50.0003 34.8847L47.2786 37.6092C47.1547 37.7331 47.0076 37.8314 46.8457 37.8984C46.6838 37.9655 46.5103 38 46.335 38C46.1598 38 45.9863 37.9655 45.8244 37.8984C45.6625 37.8314 45.5154 37.7331 45.3915 37.6092C45.2676 37.4853 45.1693 37.3382 45.1023 37.1763C45.0352 37.0144 45.0007 36.8409 45.0007 36.6657C45.0007 36.4904 45.0352 36.3169 45.1023 36.155C45.1693 35.9931 45.2676 35.846 45.3915 35.7221L48.116 33.0004L45.3915 30.2786C45.2674 30.1548 45.1689 30.0077 45.1018 29.8458C45.0346 29.6839 45 29.5103 45 29.335C45 29.1597 45.0346 28.9862 45.1018 28.8243C45.1689 28.6624 45.2674 28.5153 45.3915 28.3915Z" fill="#B5BBC0"/>
<path d="M73.3915 28.3915C73.5153 28.2674 73.6624 28.1689 73.8243 28.1018C73.9862 28.0346 74.1597 28 74.335 28C74.5103 28 74.6839 28.0346 74.8458 28.1018C75.0077 28.1689 75.1548 28.2674 75.2786 28.3915L78.0003 31.116L80.7221 28.3915C80.846 28.2676 80.9931 28.1693 81.155 28.1023C81.3169 28.0352 81.4904 28.0007 81.6657 28.0007C81.8409 28.0007 82.0144 28.0352 82.1763 28.1023C82.3382 28.1693 82.4853 28.2676 82.6092 28.3915C82.7331 28.5154 82.8314 28.6625 82.8984 28.8244C82.9655 28.9863 83 29.1598 83 29.335C83 29.5103 82.9655 29.6838 82.8984 29.8457C82.8314 30.0076 82.7331 30.1547 82.6092 30.2786L79.8847 33.0004L82.6092 35.7221C82.7331 35.846 82.8314 35.9931 82.8984 36.155C82.9655 36.3169 83 36.4904 83 36.6657C83 36.8409 82.9655 37.0144 82.8984 37.1763C82.8314 37.3382 82.7331 37.4853 82.6092 37.6092C82.4853 37.7331 82.3382 37.8314 82.1763 37.8984C82.0144 37.9655 81.8409 38 81.6657 38C81.4904 38 81.3169 37.9655 81.155 37.8984C80.9931 37.8314 80.846 37.7331 80.7221 37.6092L78.0003 34.8847L75.2786 37.6092C75.1547 37.7331 75.0076 37.8314 74.8457 37.8984C74.6838 37.9655 74.5103 38 74.335 38C74.1598 38 73.9863 37.9655 73.8244 37.8984C73.6625 37.8314 73.5154 37.7331 73.3915 37.6092C73.2676 37.4853 73.1693 37.3382 73.1023 37.1763C73.0352 37.0144 73.0007 36.8409 73.0007 36.6657C73.0007 36.4904 73.0352 36.3169 73.1023 36.155C73.1693 35.9931 73.2676 35.846 73.3915 35.7221L76.116 33.0004L73.3915 30.2786C73.2674 30.1548 73.1689 30.0077 73.1018 29.8458C73.0346 29.6839 73 29.5103 73 29.335C73 29.1597 73.0346 28.9862 73.1018 28.8243C73.1689 28.6624 73.2674 28.5153 73.3915 28.3915Z" fill="#B5BBC0"/>
<path d="M49.9991 48.4853L52.8275 51.3137L55.6559 48.4853L58.4844 51.3137L61.3128 48.4853L64.1412 51.3137L66.9697 48.4853L69.7981 51.3137" stroke="#B5BBC0" stroke-width="2" stroke-linecap="round" stroke-linejoin="round"/>
<path d="M66.8978 48.485L69.7263 51.3134L72.5547 48.485L75.3831 51.3134L78.2115 48.485" stroke="#B5BBC0" stroke-width="2" stroke-linecap="round" stroke-linejoin="round"/>
</svg>
