<svg width="20" height="20" viewBox="0 0 20 20" fill="none" xmlns="http://www.w3.org/2000/svg">
<path d="M9.08203 2.00037C12.994 2.00037 16.165 5.17143 16.165 9.08337C16.165 10.7989 15.5547 12.3714 14.54 13.597L17.3047 16.3617C17.565 16.622 17.565 17.0447 17.3047 17.3051C17.0444 17.5649 16.6225 17.5651 16.3623 17.3051L13.5977 14.5394C12.3717 15.5553 10.7986 16.1664 9.08203 16.1664C5.17001 16.1664 1.99902 12.9954 1.99902 9.08337C1.99911 5.17143 5.17007 2.00037 9.08203 2.00037ZM9.08203 3.33337C5.90645 3.33337 3.33212 5.90781 3.33203 9.08337C3.33203 12.259 5.90639 14.8334 9.08203 14.8334C10.5986 14.8334 11.9765 14.2448 13.0039 13.2855C13.0345 13.2268 13.0727 13.1708 13.1221 13.1215C13.1711 13.0724 13.2268 13.0348 13.2852 13.0043C14.2438 11.977 14.832 10.5993 14.832 9.08337C14.8319 5.90781 12.2576 3.33337 9.08203 3.33337Z" fill="#33363D"/>
</svg>
