<svg width="24" height="24" viewBox="0 0 24 24" fill="none" xmlns="http://www.w3.org/2000/svg">
<mask id="path-1-inside-1_542_3537" fill="white">
<path fill-rule="evenodd" clip-rule="evenodd" d="M16.4704 2L20.9998 5.49995V2H21V22H3V2H16.4704Z"/>
</mask>
<path fill-rule="evenodd" clip-rule="evenodd" d="M16.4704 2L20.9998 5.49995V2H21V22H3V2H16.4704Z" fill="white"/>
<path d="M20.9998 5.49995L20.3884 6.29124L21.9998 7.53645V5.49995H20.9998ZM16.4704 2L17.0819 1.20872L16.8118 1H16.4704V2ZM20.9998 2V1H19.9998V2H20.9998ZM21 2H22V1H21V2ZM21 22V23H22V22H21ZM3 22H2V23H3V22ZM3 2V1H2V2H3ZM20.9998 5.49995L21.6112 4.70867L17.0819 1.20872L16.4704 2L15.859 2.79128L20.3884 6.29124L20.9998 5.49995ZM20.9998 2H19.9998V5.49995H20.9998H21.9998V2H20.9998ZM20.9998 2V3H21V2V1H20.9998V2ZM21 2H20V22H21H22V2H21ZM21 22V21H3V22V23H21V22ZM3 22H4V2H3H2V22H3ZM3 2V3H16.4704V2V1H3V2Z" fill="#BDC2CA" mask="url(#path-1-inside-1_542_3537)"/>
<rect x="7" y="4" width="3" height="1" fill="#AFB6C2"/>
<rect x="7" y="8" width="3" height="1" fill="#AFB6C2"/>
<rect x="9" y="6" width="3" height="1" fill="#AFB6C2"/>
<rect x="9" y="10" width="3" height="1" fill="#AFB6C2"/>
<rect x="7.5" y="12.5" width="4" height="2" stroke="#AFB6C2"/>
<rect width="18" height="9" transform="translate(3 14)" fill="#E6A900"/>
<path d="M6.88778 21V20.3612L9.42827 16.7965H6.88281V15.9091H10.7805V16.5479L8.23757 20.1126H10.7855V21H6.88778ZM12.6878 15.9091V21H11.6114V15.9091H12.6878ZM13.5733 21V15.9091H15.5819C15.968 15.9091 16.2969 15.9828 16.5687 16.1303C16.8405 16.2762 17.0476 16.4792 17.1902 16.7393C17.3343 16.9979 17.4064 17.2962 17.4064 17.6342C17.4064 17.9723 17.3335 18.2706 17.1877 18.5291C17.0418 18.7876 16.8306 18.989 16.5538 19.1332C16.2787 19.2773 15.9456 19.3494 15.5545 19.3494H14.2743V18.4869H15.3805C15.5877 18.4869 15.7583 18.4512 15.8926 18.38C16.0285 18.3071 16.1296 18.2068 16.1958 18.0792C16.2638 17.9499 16.2978 17.8016 16.2978 17.6342C16.2978 17.4652 16.2638 17.3177 16.1958 17.1918C16.1296 17.0642 16.0285 16.9656 15.8926 16.896C15.7567 16.8247 15.5843 16.7891 15.3755 16.7891H14.6497V21H13.5733Z" fill="white"/>
</svg>
