<svg width="32" height="32" viewBox="0 0 32 32" fill="none" xmlns="http://www.w3.org/2000/svg">
<path d="M10.2979 13.0781C10.4359 13.0781 10.5479 13.1901 10.5479 13.3281C10.5477 14.4366 10.1071 15.5003 9.32324 16.2842C8.67236 16.9349 7.82872 17.3479 6.92676 17.4697L6.66504 17.5576C6.63147 17.5576 6.56803 17.5364 6.48438 17.5049L6.36816 17.5088L6.36621 17.5078V17.5088L6.36523 17.5078C5.25782 17.507 4.19532 17.0672 3.41211 16.2842C2.62826 15.5003 2.1876 14.4366 2.1875 13.3281C2.1875 13.1901 2.29943 13.0781 2.4375 13.0781C2.98645 13.0781 3.52995 13.1864 4.03711 13.3965C4.54422 13.6066 5.00542 13.9146 5.39355 14.3027C5.62196 14.5312 5.82186 14.7852 5.99121 15.0586C6.1903 15.1498 6.39185 15.2537 6.55859 15.3887C6.75769 14.9907 7.02032 14.6232 7.34082 14.3027C8.12476 13.5188 9.18821 13.0781 10.2969 13.0781H10.2979Z" fill="#6D7882"/>
<path d="M10.2979 17.9375C10.4359 17.9375 10.5479 18.0494 10.5479 18.1875C10.5478 19.2961 10.1071 20.3597 9.32324 21.1436C8.58837 21.8782 7.60815 22.3119 6.5752 22.3633L6.36816 22.3682L6.36621 22.3672V22.3682L6.36523 22.3672C6.36002 22.3672 6.35482 22.3653 6.34961 22.3652L6.14648 22.417C6.10813 22.417 6.05634 22.3903 5.99414 22.3506C5.0227 22.2633 4.10736 21.8387 3.41211 21.1436C2.62821 20.3597 2.18755 19.2961 2.1875 18.1875C2.1875 18.0494 2.29943 17.9375 2.4375 17.9375C2.98645 17.9375 3.52995 18.0458 4.03711 18.2559C4.54425 18.4659 5.0054 18.774 5.39355 19.1621C5.72542 19.4941 5.99854 19.8791 6.20215 20.3008L6.76953 19.875C6.9322 19.6192 7.12313 19.3798 7.34082 19.1621C8.12476 18.3782 9.18823 17.9375 10.2969 17.9375H10.2979Z" fill="#6D7882"/>
<rect x="6.13241" y="12.9996" width="0.436691" height="11.7907" fill="black" stroke="#6D7882" stroke-width="0.436691"/>
<path d="M6.34668 8.17383C6.39047 8.17975 6.43383 8.19688 6.4707 8.22656C6.89352 8.56708 7.22832 8.9833 7.44824 9.44824C7.52846 9.61795 7.59187 9.79287 7.63965 9.9707L7.64844 9.97949L7.64551 9.99023C7.71186 10.244 7.74393 10.5042 7.74219 10.7656C7.7452 11.2173 7.64574 11.6652 7.44824 12.083C7.22832 12.548 6.89352 12.9642 6.4707 13.3047C6.43386 13.3343 6.39043 13.3505 6.34668 13.3564C6.34304 13.357 6.3396 13.359 6.33594 13.3594H6.28711C6.28313 13.359 6.27935 13.357 6.27539 13.3564C6.23197 13.3503 6.18896 13.3342 6.15234 13.3047C5.72925 12.9641 5.39384 12.5482 5.17383 12.083C4.9813 11.6757 4.88105 11.2399 4.87891 10.7998V10.7314C4.88105 10.2913 4.9813 9.85553 5.17383 9.44824C5.39384 8.98307 5.72925 8.56718 6.15234 8.22656C6.18899 8.19706 6.23192 8.17991 6.27539 8.17383C6.2793 8.17324 6.28318 8.17228 6.28711 8.17188H6.33594C6.33955 8.17225 6.34308 8.1733 6.34668 8.17383Z" fill="#6D7882"/>
<path d="M19.9482 8.9375C20.0858 8.938 20.1981 9.04983 20.1982 9.1875C20.1982 9.19212 20.1965 9.19662 20.1963 9.20117C20.1927 10.3048 19.7532 11.3628 18.9727 12.1436C18.3226 12.7935 17.4798 13.2056 16.5791 13.3281L16.3154 13.417C16.282 13.4168 16.22 13.3962 16.1377 13.3652C16.0977 13.3664 16.0577 13.3682 16.0176 13.3682C14.9091 13.3682 13.8454 12.9273 13.0615 12.1436C12.2776 11.3596 11.8369 10.2962 11.8369 9.1875C11.837 9.06672 11.9222 8.96562 12.0361 8.94238C12.0524 8.93907 12.0697 8.9375 12.0869 8.9375L12.292 8.94238C12.7707 8.96598 13.2428 9.07205 13.6865 9.25586C14.1936 9.46593 14.6549 9.77403 15.043 10.1621C15.2709 10.3901 15.4695 10.6443 15.6387 10.917C15.8389 11.0085 16.0422 11.1123 16.21 11.248C16.4091 10.8501 16.6717 10.4826 16.9922 10.1621C17.7761 9.37838 18.8397 8.9375 19.9482 8.9375Z" fill="#6D7882"/>
<path d="M19.9482 13.7891C20.0858 13.7896 20.1981 13.9014 20.1982 14.0391C20.1982 14.0437 20.1965 14.0482 20.1963 14.0527C20.1927 15.1564 19.7532 16.2144 18.9727 16.9951C18.189 17.7787 17.1258 18.2195 16.0176 18.2197C16.0099 18.2197 16.0018 18.2188 15.9941 18.2188L15.7969 18.2686C15.7585 18.2684 15.7075 18.2418 15.6455 18.2021C14.6732 18.1153 13.7573 17.6908 13.0615 16.9951C12.2776 16.2112 11.8369 15.1477 11.8369 14.0391C11.837 13.9183 11.9222 13.8172 12.0361 13.7939C12.0524 13.7906 12.0697 13.7891 12.0869 13.7891L12.292 13.7939C12.7707 13.8175 13.2428 13.9236 13.6865 14.1074C14.1936 14.3175 14.6549 14.6256 15.043 15.0137C15.3749 15.3457 15.647 15.7315 15.8506 16.1533L16.4219 15.7246C16.5843 15.4695 16.775 15.2308 16.9922 15.0137C17.7761 14.2299 18.8397 13.7891 19.9482 13.7891Z" fill="#6D7882"/>
<rect x="15.9727" y="8.39844" width="0" height="14.52" fill="black" stroke="#6D7882"/>
<path d="M15.9922 4C16.0442 4.0055 16.0936 4.02834 16.1338 4.06543C16.5507 4.40405 16.8809 4.81602 17.0986 5.27637C17.1782 5.44458 17.2414 5.61774 17.2891 5.79395L17.3008 5.80566L17.2959 5.82129C17.3618 6.07424 17.3943 6.33317 17.3926 6.59375C17.3956 7.04555 17.2962 7.49323 17.0986 7.91113C16.881 8.3713 16.5505 8.78254 16.1338 9.12109C16.0935 9.15845 16.0444 9.18198 15.9922 9.1875H15.9375C15.8855 9.182 15.8362 9.15901 15.7959 9.12207C15.3787 8.78335 15.0479 8.37172 14.8301 7.91113C14.6325 7.49322 14.5321 7.04557 14.5352 6.59375C14.5321 6.14193 14.6325 5.69428 14.8301 5.27637C15.048 4.81561 15.3785 4.40325 15.7959 4.06445C15.8361 4.02778 15.8857 4.00547 15.9375 4H15.9922Z" fill="#6D7882"/>
<path d="M29.5957 13.0781C29.6393 13.0782 29.6801 13.0897 29.7158 13.1094C29.7225 13.1131 29.7291 13.1168 29.7354 13.1211C29.7556 13.1348 29.7727 13.1521 29.7881 13.1709C29.7962 13.1809 29.804 13.191 29.8105 13.2021C29.8324 13.2392 29.8457 13.282 29.8457 13.3281C29.8457 13.3324 29.844 13.3366 29.8438 13.3408C29.8403 14.4448 29.401 15.5033 28.6201 16.2842C27.9701 16.9339 27.1281 17.3463 26.2275 17.4688L25.9639 17.5576C25.9302 17.5575 25.8669 17.5364 25.7832 17.5049C25.744 17.506 25.7044 17.5088 25.665 17.5088C24.5566 17.5087 23.4928 17.0679 22.709 16.2842C21.9251 15.5003 21.4845 14.4366 21.4844 13.3281C21.4844 13.1902 21.5964 13.0783 21.7344 13.0781C22.2833 13.0781 22.8269 13.1864 23.334 13.3965C23.8412 13.6066 24.3023 13.9146 24.6904 14.3027C24.9183 14.5307 25.118 14.784 25.2871 15.0566C25.4873 15.1482 25.6907 15.252 25.8584 15.3877C26.0574 14.9902 26.3195 14.6229 26.6396 14.3027C27.4235 13.5189 28.4871 13.0782 29.5957 13.0781Z" fill="#6D7882"/>
<path d="M29.5957 17.9375C29.699 17.9377 29.7881 18.0004 29.8262 18.0898C29.8325 18.1047 29.8375 18.1205 29.8408 18.1367C29.8442 18.1531 29.8457 18.1701 29.8457 18.1875C29.8457 18.1918 29.844 18.196 29.8438 18.2002C29.8403 19.3042 29.401 20.3627 28.6201 21.1436C27.8363 21.9271 26.7733 22.368 25.665 22.3682C25.6575 22.3682 25.6501 22.3672 25.6426 22.3672L25.4453 22.417C25.4069 22.4169 25.3552 22.3904 25.293 22.3506C24.3209 22.2636 23.4046 21.8391 22.709 21.1436C21.9251 20.3597 21.4844 19.2961 21.4844 18.1875C21.4844 18.0495 21.5964 17.9377 21.7344 17.9375C22.2833 17.9375 22.8269 18.0458 23.334 18.2559C23.8411 18.4659 24.3023 18.774 24.6904 19.1621C25.0225 19.4943 25.2954 19.8798 25.499 20.3018L26.0693 19.874C26.2318 19.6187 26.4223 19.3795 26.6396 19.1621C27.4235 18.3782 28.4871 17.9376 29.5957 17.9375Z" fill="#6D7882"/>
<rect x="25.4254" y="12.9996" width="0.436691" height="11.7907" fill="black" stroke="#6D7882" stroke-width="0.436691"/>
<path d="M25.6367 8.17188C25.6881 8.1772 25.7373 8.19915 25.7773 8.23535C26.1951 8.57426 26.5261 8.98722 26.7441 9.44824C26.8233 9.61577 26.886 9.7884 26.9336 9.96387L26.9492 9.97949L26.9434 10C27.0081 10.2507 27.0398 10.5074 27.0381 10.7656C27.0411 11.2174 26.9417 11.6652 26.7441 12.083C26.5262 12.5439 26.1949 12.9561 25.7773 13.2949C25.7372 13.3314 25.6883 13.354 25.6367 13.3594H25.583C25.5312 13.354 25.4817 13.3316 25.4414 13.2949C25.0239 12.9561 24.6926 12.5439 24.4746 12.083C24.2821 11.6757 24.1818 11.2399 24.1797 10.7998V10.7314C24.1818 10.2913 24.2821 9.85556 24.4746 9.44824C24.6927 8.98721 25.0236 8.57426 25.4414 8.23535C25.4816 8.19898 25.5314 8.17724 25.583 8.17188H25.6367Z" fill="#6D7882"/>
<mask id="mask0_2045_8170" style="mask-type:alpha" maskUnits="userSpaceOnUse" x="1" y="21" width="30" height="6">
<rect x="1" y="21.2109" width="29.9" height="5.75" fill="#7D4747"/>
</mask>
<g mask="url(#mask0_2045_8170)">
<path d="M16.1162 22C18.6129 22 20.8033 23.0352 22.041 24.3223C22.9727 23.8349 24.0627 23.5088 25.1504 23.5088C27.999 23.509 30.9048 25.7436 30.9053 27.2637C30.9053 28.7838 27.4457 30.0166 24.5967 30.0166C23.1784 30.0166 21.8944 29.7101 20.9619 29.2158C19.7048 29.8591 17.9976 30.2568 16.1162 30.2568C13.9928 30.2568 12.0913 29.7514 10.8086 28.9561C9.8633 29.5283 8.47958 29.8906 6.9375 29.8906C4.08875 29.8905 1.00026 29.0541 1 27.5342C1 26.0141 3.32589 24.0841 6.1748 24.084C7.41882 24.084 8.70589 24.3759 9.76074 24.832C10.8677 23.3196 13.2968 22.0001 16.1162 22Z" fill="#6D7882"/>
</g>
</svg>
