<svg width="158" height="39" viewBox="0 0 158 39" fill="none" xmlns="http://www.w3.org/2000/svg">
<path d="M55.635 3.445H57.525V17.335H55.635V3.445ZM53.775 8.785H56.085V10.39H53.775V8.785ZM52.53 3.685H54.375V16.675H52.53V3.685ZM45.99 12.565H46.965C48.675 12.565 50.1 12.505 51.75 12.205L51.9 13.825C50.22 14.155 48.75 14.2 46.965 14.2H45.99V12.565ZM45.99 5.05H51.12V6.655H47.97V13.345H45.99V5.05ZM67.4388 3.46H69.4338V13.84H67.4388V3.46ZM68.8638 7.69H71.2788V9.325H68.8638V7.69ZM58.4988 4.9H66.6738V6.46H58.4988V4.9ZM62.5938 6.955C64.5888 6.955 65.9988 8.05 65.9988 9.64C65.9988 11.23 64.5888 12.31 62.5938 12.31C60.5838 12.31 59.1738 11.23 59.1738 9.64C59.1738 8.05 60.5838 6.955 62.5938 6.955ZM62.5938 8.47C61.7088 8.47 61.0938 8.89 61.0938 9.64C61.0938 10.39 61.7088 10.795 62.5938 10.795C63.4788 10.795 64.0938 10.39 64.0938 9.64C64.0938 8.89 63.4788 8.47 62.5938 8.47ZM61.5888 3.43H63.5838V5.665H61.5888V3.43ZM60.4788 15.505H69.9288V17.095H60.4788V15.505ZM60.4788 13.06H62.4738V16.195H60.4788V13.06ZM72.1027 4.54H78.8377V11.26H72.1027V4.54ZM76.8877 6.115H74.0527V9.685H76.8877V6.115ZM80.9377 3.46H82.9477V13.33H80.9377V3.46ZM73.6927 15.445H83.2927V17.05H73.6927V15.445ZM73.6927 12.43H75.6877V16.15H73.6927V12.43ZM85.8415 4.03H94.6465V5.62H85.8415V4.03ZM84.3115 8.83H96.8815V10.42H84.3115V8.83ZM89.5765 9.955H91.5715V12.865H89.5765V9.955ZM93.4465 4.03H95.4115V5.14C95.4115 6.34 95.4115 7.735 94.9765 9.565L93.0115 9.37C93.4465 7.585 93.4465 6.31 93.4465 5.14V4.03ZM85.5715 12.37H95.4265V17.335H93.4315V13.945H85.5715V12.37ZM50.775 35.21C47.82 35.21 45.81 33.02 45.81 29.405C45.81 25.79 47.82 23.705 50.775 23.705C53.715 23.705 55.725 25.805 55.725 29.405C55.725 33.02 53.715 35.21 50.775 35.21ZM50.775 33.29C52.425 33.29 53.475 31.775 53.475 29.405C53.475 27.035 52.425 25.61 50.775 25.61C49.11 25.61 48.075 27.035 48.075 29.405C48.075 31.775 49.11 33.29 50.775 33.29ZM57.008 35V23.9H60.053C63.443 23.9 65.528 25.655 65.528 29.405C65.528 33.14 63.443 35 60.173 35H57.008ZM59.228 33.215H59.903C61.988 33.215 63.263 32.105 63.263 29.405C63.263 26.705 61.988 25.67 59.903 25.67H59.228V33.215ZM65.142 35L68.697 23.9H71.307L74.862 35H72.537L70.947 29.225C70.617 28.07 70.302 26.78 69.987 25.595H69.927C69.627 26.795 69.312 28.07 68.982 29.225L67.392 35H65.142ZM67.347 32.15V30.44H72.627V32.15H67.347ZM79.4932 29.6H92.0632V31.16H79.4932V29.6ZM84.7732 28.115H86.7682V30.17H84.7732V28.115ZM81.0532 27.245H90.7282V28.76H81.0532V27.245ZM81.0532 22.79H90.6232V24.305H83.0332V28.1H81.0532V22.79ZM82.4782 25.04H90.3082V26.495H82.4782V25.04ZM85.7632 31.775C88.8082 31.775 90.5782 32.585 90.5782 34.055C90.5782 35.54 88.8082 36.335 85.7632 36.335C82.7032 36.335 80.9332 35.54 80.9332 34.055C80.9332 32.585 82.7032 31.775 85.7632 31.775ZM85.7632 33.245C83.8282 33.245 82.9432 33.485 82.9432 34.055C82.9432 34.64 83.8282 34.88 85.7632 34.88C87.6832 34.88 88.5682 34.64 88.5682 34.055C88.5682 33.485 87.6832 33.245 85.7632 33.245ZM101.347 22.445H103.342V30.575H101.347V22.445ZM102.547 25.775H105.187V27.425H102.547V25.775ZM94.312 31.115H96.277V32.165H101.362V31.115H103.342V36.185H94.312V31.115ZM96.277 33.665V34.625H101.362V33.665H96.277ZM92.407 23.645H100.582V25.22H92.407V23.645ZM96.502 25.595C98.512 25.595 99.907 26.585 99.907 28.055C99.907 29.525 98.512 30.515 96.502 30.515C94.477 30.515 93.082 29.525 93.082 28.055C93.082 26.585 94.477 25.595 96.502 25.595ZM96.502 27.05C95.602 27.05 95.002 27.41 95.002 28.055C95.002 28.715 95.602 29.06 96.502 29.06C97.387 29.06 98.002 28.715 98.002 28.055C98.002 27.41 97.387 27.05 96.502 27.05ZM95.497 22.34H97.492V24.53H95.497V22.34ZM112.836 25.805H115.476V27.425H112.836V25.805ZM114.936 22.445H116.931V30.695H114.936V22.445ZM112.221 30.995C115.161 30.995 116.976 32 116.976 33.68C116.976 35.375 115.161 36.35 112.221 36.35C109.281 36.35 107.466 35.375 107.466 33.68C107.466 32 109.281 30.995 112.221 30.995ZM112.221 32.51C110.421 32.51 109.461 32.885 109.461 33.68C109.461 34.46 110.421 34.835 112.221 34.835C114.036 34.835 114.996 34.46 114.996 33.68C114.996 32.885 114.036 32.51 112.221 32.51ZM108.516 23.84H110.136V24.71C110.136 27.365 108.906 29.795 106.251 30.695L105.231 29.12C107.526 28.34 108.516 26.495 108.516 24.71V23.84ZM108.936 23.84H110.541V24.71C110.541 26.345 111.486 28.04 113.676 28.775L112.701 30.35C110.121 29.495 108.936 27.185 108.936 24.71V23.84ZM105.771 23.285H113.241V24.875H105.771V23.285ZM118.22 33.11H130.79V34.73H118.22V33.11ZM123.485 30.14H125.48V33.5H123.485V30.14ZM119.54 23.33H121.52V25.46H127.445V23.33H129.425V30.56H119.54V23.33ZM121.52 27.02V28.97H127.445V27.02H121.52ZM131.119 33.155H143.689V34.79H131.119V33.155ZM136.369 30.02H138.364V33.89H136.369V30.02ZM132.079 23.585H142.654V25.175H132.079V23.585ZM132.139 29.12H142.609V30.68H132.139V29.12ZM133.969 24.905H135.964V29.3H133.969V24.905ZM138.784 24.905H140.764V29.3H138.784V24.905ZM144.647 27.965H145.727C148.232 27.965 149.747 27.95 151.517 27.695L151.667 29.24C149.852 29.51 148.292 29.525 145.727 29.525H144.647V27.965ZM144.647 23.21H151.052V24.755H146.627V28.985H144.647V23.21ZM146.132 25.595H150.632V27.065H146.132V25.595ZM151.442 25.385H154.007V26.945H151.442V25.385ZM153.632 22.445H155.627V29.795H153.632V22.445ZM146.447 30.305H155.627V33.965H148.442V35.705H146.462V32.54H153.647V31.82H146.447V30.305ZM146.462 34.73H156.017V36.245H146.462V34.73Z" fill="#26282C"/>
<path d="M27.6613 18.5607C24.6845 16.5382 20.8735 17.3664 18.8689 20.4092C17.1945 22.9539 14.6738 23.266 13.6956 23.266C10.5147 23.266 8.33011 21.0274 7.68794 18.7108C7.68794 18.7108 7.67594 18.6687 7.66993 18.6447C7.66393 18.6207 7.65793 18.5907 7.65193 18.5667C7.39986 17.6005 7.33384 17.1383 7.33384 16.1121C7.33384 10.5666 13.0234 4.39691 21.2156 4.39691C29.4078 4.39691 34.4011 10.7826 35.6374 14.3296C35.6194 14.2636 35.6014 14.2035 35.5774 14.1435C33.1948 7.19366 26.611 2.20032 18.8629 2.20032C9.11032 2.20032 1.2002 10.1104 1.2002 19.8631C1.2002 28.5834 7.48989 36.0494 16.2102 36.0494C23.1661 36.0494 27.8474 32.1484 29.9899 26.7709C31.1662 23.8301 30.332 20.3732 27.6613 18.5607Z" fill="#003668"/>
<path d="M35.7516 14.6656C34.7193 11.2027 29.882 4.38489 21.2157 4.38489C13.0235 4.38489 7.33398 10.5545 7.33398 16.1C7.33398 17.1263 7.394 17.5884 7.65207 18.5547C7.54404 18.1286 7.49003 17.7085 7.49003 17.2944C7.49003 11.5208 13.2696 7.51773 19.2172 7.51773C27.2593 7.51773 33.7831 14.0415 33.7831 22.0836C33.7831 28.3913 30.1521 33.8468 24.8827 36.4695C31.6825 34.0148 36.5318 27.5031 36.5318 19.857C36.5318 18.0506 36.2858 16.4541 35.7576 14.6596L35.7516 14.6656Z" fill="#E6002D"/>
</svg>
