<svg width="180" height="32" viewBox="0 0 180 32" fill="none" xmlns="http://www.w3.org/2000/svg">
<mask id="mask0_2680_42360" style="mask-type:alpha" maskUnits="userSpaceOnUse" x="0" y="0" width="180" height="32">
<rect width="180" height="32" fill="#D9D9D9"/>
</mask>
<g mask="url(#mask0_2680_42360)">
<path d="M164.234 14.0893H165.632C166.692 14.0893 167.636 14.0893 168.466 14.0893C169.296 14.0765 170.075 14.0443 170.802 13.9929C171.53 13.9415 172.271 13.8579 173.024 13.7422L173.196 15.7286C172.43 15.8443 171.671 15.9343 170.917 15.9986C170.177 16.05 169.379 16.0822 168.524 16.095C167.681 16.095 166.717 16.095 165.632 16.095H164.234V14.0893ZM164.234 7.99505H172.43V9.96219H166.781V15.4008H164.234V7.99505ZM166.13 11.0615H171.894V12.9322H166.13V11.0615ZM172.928 10.7915H176.183V12.7972H172.928V10.7915ZM175.705 6.99219H178.251V16.4422H175.705V6.99219ZM166.532 17.0979H178.251V21.8036H169.079V24.06H166.571V19.9908H175.743V19.0458H166.532V17.0979ZM166.571 22.8065H178.768V24.7543H166.571V22.8065Z" fill="#26282C"/>
<path d="M146.961 20.7689H163.027V22.8517H146.961V20.7689ZM153.682 16.7189H156.21V21.6946H153.682V16.7189ZM148.186 8.44531H161.706V10.5089H148.186V8.44531ZM148.282 15.5617H161.648V17.5867H148.282V15.5617ZM150.599 10.1425H153.146V15.7932H150.599V10.1425ZM156.746 10.1425H159.293V15.7932H156.746V10.1425Z" fill="#26282C"/>
<path d="M130.492 20.6993H146.558V22.7821H130.492V20.6993ZM137.233 16.8807H139.76V21.2007H137.233V16.8807ZM132.177 8.125H134.724V10.8829H142.269V8.125H144.796V17.4207H132.177V8.125ZM134.724 12.8886V15.3764H142.269V12.8886H134.724Z" fill="#26282C"/>
<path d="M123.638 11.3085H127.008V13.3914H123.638V11.3085ZM126.3 7.00781H128.866V17.615H126.3V7.00781ZM122.853 18.0007C124.104 18.0007 125.183 18.1357 126.089 18.4057C126.996 18.6757 127.691 19.0678 128.176 19.5821C128.674 20.0964 128.923 20.7135 128.923 21.4335C128.923 22.5392 128.381 23.3878 127.296 23.9792C126.211 24.5835 124.73 24.8857 122.853 24.8857C120.976 24.8857 119.496 24.5835 118.411 23.9792C117.325 23.3878 116.783 22.5392 116.783 21.4335C116.783 20.7135 117.025 20.0964 117.511 19.5821C118.008 19.0678 118.711 18.6757 119.617 18.4057C120.523 18.1357 121.602 18.0007 122.853 18.0007ZM122.853 19.9485C122.087 19.9485 121.442 20.0064 120.919 20.1221C120.396 20.225 119.994 20.3857 119.713 20.6042C119.445 20.8228 119.311 21.0992 119.311 21.4335C119.311 21.7678 119.445 22.0507 119.713 22.2821C119.994 22.5007 120.396 22.6678 120.919 22.7835C121.442 22.8864 122.087 22.9378 122.853 22.9378C123.619 22.9378 124.264 22.8864 124.787 22.7835C125.311 22.6678 125.706 22.5007 125.974 22.2821C126.242 22.0507 126.376 21.7678 126.376 21.4335C126.376 21.0992 126.242 20.8228 125.974 20.6042C125.706 20.3857 125.311 20.225 124.787 20.1221C124.264 20.0064 123.619 19.9485 122.853 19.9485ZM118.123 8.7821H120.191V9.91995C120.191 11.0514 120.013 12.1314 119.655 13.16C119.298 14.1885 118.749 15.095 118.008 15.8792C117.281 16.6507 116.349 17.2292 115.213 17.615L113.93 15.59C114.657 15.3457 115.283 15.0178 115.806 14.6064C116.342 14.195 116.776 13.7385 117.108 13.2371C117.453 12.7228 117.708 12.1828 117.874 11.6171C118.04 11.0514 118.123 10.4857 118.123 9.91995V8.7821ZM118.659 8.7821H120.689V9.90067C120.689 10.6078 120.83 11.3021 121.111 11.9835C121.391 12.665 121.825 13.2821 122.413 13.835C123.013 14.3878 123.779 14.825 124.711 15.1464L123.466 17.1521C122.368 16.7792 121.462 16.2328 120.747 15.5128C120.045 14.78 119.521 13.9314 119.176 12.9671C118.832 11.99 118.659 10.9678 118.659 9.90067V8.7821ZM114.619 8.08781H124.155V10.1128H114.619V8.08781Z" fill="#26282C"/>
<path d="M108.948 7.01366H111.495V17.4665H108.948V7.01366ZM110.499 11.2951H113.85V13.3972H110.499V11.2951ZM99.9675 18.1608H102.495V19.4915H108.987V18.1608H111.495V24.6794H99.9675V18.1608ZM102.495 21.4201V22.6737H108.987V21.4201H102.495ZM97.5547 8.55652H107.972V10.5815H97.5547V8.55652ZM102.763 11.0444C103.631 11.0444 104.391 11.1794 105.042 11.4494C105.693 11.7065 106.204 12.0729 106.574 12.5487C106.944 13.0244 107.129 13.5772 107.129 14.2072C107.129 14.8372 106.944 15.3901 106.574 15.8658C106.204 16.3415 105.693 16.7144 105.042 16.9844C104.391 17.2415 103.631 17.3701 102.763 17.3701C101.908 17.3701 101.148 17.2415 100.484 16.9844C99.8334 16.7144 99.3228 16.3415 98.9526 15.8658C98.5823 15.3901 98.3972 14.8372 98.3972 14.2072C98.3972 13.5772 98.5823 13.0244 98.9526 12.5487C99.3228 12.0729 99.8334 11.7065 100.484 11.4494C101.148 11.1794 101.908 11.0444 102.763 11.0444ZM102.763 12.9151C102.201 12.9151 101.742 13.0308 101.384 13.2622C101.027 13.4808 100.848 13.7958 100.848 14.2072C100.848 14.6315 101.027 14.9594 101.384 15.1908C101.742 15.4094 102.201 15.5187 102.763 15.5187C103.338 15.5187 103.797 15.4094 104.142 15.1908C104.499 14.9594 104.678 14.6315 104.678 14.2072C104.678 13.7958 104.499 13.4808 104.142 13.2622C103.797 13.0308 103.338 12.9151 102.763 12.9151ZM101.499 6.85938H104.027V9.67509H101.499V6.85938Z" fill="#26282C"/>
<path d="M81.0625 16.1817H97.1093V18.1875H81.0625V16.1817ZM87.8221 14.2917H90.3497V16.9339H87.8221V14.2917ZM83.0731 13.1539H95.4242V15.1017H83.0731V13.1539ZM83.0731 7.44531H95.271V9.39317H85.6008V14.2725H83.0731V7.44531ZM84.8731 10.3189H94.888V12.1896H84.8731V10.3189ZM89.0668 18.9975C91.0199 18.9975 92.5327 19.2482 93.6051 19.7496C94.6902 20.251 95.2327 20.9775 95.2327 21.9289C95.2327 22.8803 94.6902 23.6067 93.6051 24.1082C92.5327 24.6096 91.0199 24.8603 89.0668 24.8603C87.1263 24.8603 85.6136 24.6096 84.5285 24.1082C83.4561 23.6067 82.9199 22.8803 82.9199 21.9289C82.9199 20.9775 83.4561 20.251 84.5285 19.7496C85.6136 19.2482 87.1263 18.9975 89.0668 18.9975ZM89.0668 20.8682C87.8412 20.8682 86.9348 20.9517 86.3476 21.1189C85.7604 21.286 85.4668 21.556 85.4668 21.9289C85.4668 22.3017 85.7604 22.5717 86.3476 22.7389C86.9348 22.8932 87.8412 22.9703 89.0668 22.9703C90.2923 22.9703 91.1987 22.8932 91.7859 22.7389C92.3731 22.5717 92.6668 22.3017 92.6668 21.9289C92.6668 21.556 92.3731 21.286 91.7859 21.1189C91.1987 20.9517 90.2923 20.8682 89.0668 20.8682Z" fill="#26282C"/>
<path d="M62.7344 23.1423L67.2727 8.85156H70.6237L75.162 23.1423H72.1748L70.1642 15.698C69.9471 14.9523 69.7365 14.1808 69.5322 13.3837C69.3408 12.5737 69.1365 11.7894 68.9195 11.0308H68.8429C68.6642 11.8023 68.4663 12.5866 68.2493 13.3837C68.045 14.1808 67.8408 14.9523 67.6365 15.698L65.6067 23.1423H62.7344ZM65.5493 19.478V17.2601H72.2897V19.478H65.5493Z" fill="#26282C"/>
<path d="M52.3594 23.1423V8.85156H56.2466C57.7019 8.85156 58.9466 9.10871 59.9807 9.62299C61.0275 10.1373 61.8317 10.9151 62.3934 11.9566C62.9679 12.998 63.2551 14.3223 63.2551 15.9294C63.2551 17.5366 62.9743 18.8737 62.4126 19.9408C61.8509 21.008 61.0594 21.8116 60.0381 22.3516C59.0168 22.8787 57.8041 23.1423 56.3998 23.1423H52.3594ZM55.1934 20.828H56.0551C56.9487 20.828 57.7147 20.6673 58.353 20.3458C59.0041 20.0116 59.5019 19.4844 59.8466 18.7644C60.1913 18.0316 60.3636 17.0866 60.3636 15.9294C60.3636 14.7723 60.1913 13.8466 59.8466 13.1523C59.5019 12.4451 59.0041 11.9373 58.353 11.6287C57.7147 11.3073 56.9487 11.1466 56.0551 11.1466H55.1934V20.828Z" fill="#26282C"/>
<path d="M44.393 23.4052C43.1419 23.4052 42.0377 23.1095 41.0802 22.518C40.1355 21.9137 39.3951 21.0523 38.8589 19.9337C38.3228 18.8152 38.0547 17.478 38.0547 15.9223C38.0547 14.3795 38.3228 13.0616 38.8589 11.9687C39.3951 10.8759 40.1355 10.0402 41.0802 9.46161C42.0377 8.88304 43.1419 8.59375 44.393 8.59375C45.6568 8.59375 46.7611 8.88946 47.7058 9.48089C48.6504 10.0595 49.3909 10.8952 49.927 11.988C50.4632 13.068 50.7313 14.3795 50.7313 15.9223C50.7313 17.478 50.4632 18.8152 49.927 19.9337C49.3909 21.0523 48.6504 21.9137 47.7058 22.518C46.7611 23.1095 45.6568 23.4052 44.393 23.4052ZM44.393 20.9366C45.0951 20.9366 45.7015 20.7309 46.2121 20.3195C46.7355 19.908 47.1377 19.3295 47.4185 18.5837C47.6994 17.8252 47.8398 16.938 47.8398 15.9223C47.8398 14.9066 47.6994 14.0387 47.4185 13.3187C47.1377 12.5859 46.7355 12.0266 46.2121 11.6409C45.7015 11.2423 45.0951 11.043 44.393 11.043C43.6909 11.043 43.0781 11.2423 42.5547 11.6409C42.044 12.0266 41.6483 12.5859 41.3675 13.3187C41.0994 14.0387 40.9653 14.9066 40.9653 15.9223C40.9653 16.938 41.0994 17.8252 41.3675 18.5837C41.6483 19.3295 42.044 19.908 42.5547 20.3195C43.0781 20.7309 43.6909 20.9366 44.393 20.9366Z" fill="#26282C"/>
<path d="M22.4972 15.2902C19.9664 13.5584 16.7262 14.2676 15.022 16.873C13.5984 19.052 11.4553 19.3192 10.6236 19.3192C7.91919 19.3192 6.06186 17.4024 5.51588 15.4187C5.51588 15.4187 5.50568 15.3827 5.50057 15.3622C5.49547 15.3416 5.49037 15.3159 5.48527 15.2954C5.27096 14.468 5.21483 14.0723 5.21483 13.1935C5.21483 8.44504 10.0521 3.16213 17.0171 3.16213C23.9821 3.16213 28.2274 8.63005 29.2786 11.6672C29.2633 11.6107 29.2479 11.5593 29.2275 11.5079C27.2018 5.55691 21.6043 1.28125 15.0169 1.28125C6.72519 1.28125 0 8.05448 0 16.4054C0 23.8724 5.3475 30.2653 12.7615 30.2653C18.6754 30.2653 22.6554 26.925 24.477 22.3204C25.4771 19.8023 24.7679 16.8422 22.4972 15.2902Z" fill="#003668"/>
<path d="M29.3794 11.9438C28.5018 8.97855 24.3891 3.14062 17.021 3.14062C10.056 3.14062 5.21875 8.42354 5.21875 13.172C5.21875 14.0508 5.26978 14.4465 5.48919 15.2738C5.39734 14.909 5.35142 14.5492 5.35142 14.1947C5.35142 9.25092 10.2652 5.82319 15.3218 5.82319C22.1593 5.82319 27.7058 11.4093 27.7058 18.2956C27.7058 23.6967 24.6187 28.3681 20.1387 30.6138C25.9199 28.512 30.0428 22.9361 30.0428 16.389C30.0428 14.8422 29.8336 13.4752 29.3845 11.9386L29.3794 11.9438Z" fill="#E6002D"/>
</g>
</svg>
