<svg width="313" height="54" viewBox="0 0 313 54" fill="none" xmlns="http://www.w3.org/2000/svg">
<path d="M63.2559 27.2734C63.2559 35.6758 57.9824 40.3516 51.1621 40.3516C44.3066 40.3516 39.0684 35.6406 39.0684 27.2734C39.0684 18.8711 44.3066 14.1953 51.1621 14.1953C57.9824 14.1953 63.2559 18.8711 63.2559 27.2734ZM57.1387 27.2734C57.1387 22.2109 54.8887 19.4688 51.1621 19.4688C47.4355 19.4688 45.1855 22.2109 45.1855 27.2734C45.1855 32.3359 47.4355 35.0781 51.1621 35.0781C54.8887 35.0781 57.1387 32.3359 57.1387 27.2734ZM76.123 40H66.8066V14.5469H76.123C83.8926 14.5469 88.6738 19.3281 88.6738 27.2734C88.6738 35.2188 83.8926 40 76.123 40ZM72.7832 34.8672H75.9121C80.2715 34.8672 82.6621 32.793 82.6621 27.2734C82.6621 21.7539 80.2715 19.6445 75.8418 19.6445H72.7832V34.8672ZM95.9863 40H89.5176L98.166 14.5469H106.111L114.725 40H108.291L106.568 34.5508H97.709L95.9863 40ZM99.1504 29.9805H105.127L102.244 20.8398H102.033L99.1504 29.9805ZM156.139 27.5547V31.5273H126.643V27.5547H138.807V25.9727H130.264V11.8398H152.764V15.707H135.291V17.1133H152.061V20.7344H135.291V22.1406H153.08V25.9727H143.904V27.5547H156.139ZM141.373 32.6875C148.475 32.6523 152.623 34.6211 152.623 37.9961C152.623 41.5117 148.475 43.4102 141.373 43.375C134.131 43.4102 130.018 41.5117 130.018 37.9961C130.018 34.6211 134.131 32.6523 141.373 32.6875ZM141.373 36.4141C136.979 36.4141 135.08 36.8359 135.08 37.9961C135.08 39.1914 136.979 39.6836 141.373 39.6836C145.662 39.6836 147.561 39.1914 147.561 37.9961C147.561 36.8359 145.662 36.4141 141.373 36.4141ZM183.525 11.1016V18.7305H187.709V22.9141H183.525V30.0508H178.463V11.1016H183.525ZM167.213 31.2109V33.3906H178.463V31.2109H183.525V43.0234H162.186V31.2109H167.213ZM167.213 39.0859H178.463V37.2227H167.213V39.0859ZM176.916 13.7734V17.7461H157.791V13.7734H164.822V10.9258H169.885V13.7734H176.916ZM167.354 18.4492C172.064 18.4492 175.369 20.7344 175.369 24.1797C175.369 27.625 172.064 29.9102 167.354 29.875C162.607 29.9102 159.268 27.625 159.303 24.1797C159.268 20.7344 162.607 18.4492 167.354 18.4492ZM167.354 22.1406C165.49 22.1406 164.225 22.8438 164.225 24.1797C164.225 25.5859 165.49 26.2188 167.354 26.2188C169.252 26.2188 170.553 25.5859 170.553 24.1797C170.553 22.8438 169.252 22.1406 167.354 22.1406ZM216.256 11.1016V30.2617H211.229V22.8789H206.658V18.8008H211.229V11.1016H216.256ZM205.111 30.8594C212.072 30.8594 216.326 33.1797 216.361 37.1523C216.326 41.0898 212.072 43.4453 205.111 43.4453C198.221 43.4453 193.967 41.0898 193.967 37.1523C193.967 33.1797 198.221 30.8594 205.111 30.8594ZM205.111 34.6914C201.068 34.6914 198.994 35.4648 198.994 37.1523C198.994 38.8398 201.068 39.5781 205.111 39.5781C209.225 39.5781 211.299 38.8398 211.334 37.1523C211.299 35.4648 209.225 34.6914 205.111 34.6914ZM207.572 12.9297V16.9727H201.455C201.701 20.4355 203.775 23.9863 208.662 25.5859L206.201 29.5586C202.686 28.4336 200.33 26.2188 198.924 23.4766C197.518 26.5879 195.021 29.1016 191.26 30.3672L188.623 26.3594C193.844 24.6719 195.988 20.7344 196.252 16.9727H190.064V12.9297H207.572ZM249.549 35.6406V39.7539H220.053V35.6406H232.252V29.9805H223.076V13.1055H228.139V17.8516H241.322V13.1055H246.385V29.9805H237.244V35.6406H249.549ZM228.139 25.9727H241.322V21.8242H228.139V25.9727ZM280.662 35.7109V39.8945H251.166V35.7109H263.295V30.4023H253.521V26.4648H257.635V17.7109H253.381V13.668H278.307V17.7109H273.947V26.4648H278.131V30.4023H268.322V35.7109H280.662ZM262.697 26.4648H268.955V17.7109H262.697V26.4648ZM298.838 12.8242V16.7617H288.783V18.2734H297.818V22H288.783V23.6875C293.178 23.6699 296.254 23.5996 299.787 23.0547L300.139 27.0273C295.885 27.625 292.229 27.6602 286.322 27.6602H283.791V12.8242H298.838ZM309.596 11.1016V28.082H304.568V21.7539H299.611V17.7812H304.568V11.1016H309.596ZM309.596 29.1719V37.9609H293.072V39.332H310.439V43.1992H287.975V34.375H304.568V33.0391H287.975V29.1719H309.596Z" fill="#524C91"/>
<mask id="mask0_2680_42178" style="mask-type:alpha" maskUnits="userSpaceOnUse" x="0" y="10" width="32" height="32">
<rect y="10" width="32" height="32" fill="#D9D9D9"/>
</mask>
<g mask="url(#mask0_2680_42178)">
<path d="M23.7007 25.6129C21.0546 23.8151 17.6671 24.5513 15.8852 27.256C14.3968 29.5179 12.1562 29.7953 11.2867 29.7953C8.45925 29.7953 6.51739 27.8055 5.94657 25.7463C5.94657 25.7463 5.9359 25.7089 5.93057 25.6876C5.92523 25.6662 5.9199 25.6396 5.91456 25.6182C5.6905 24.7593 5.63182 24.3485 5.63182 23.4363C5.63182 18.507 10.6892 13.0228 17.9711 13.0228C25.2531 13.0228 29.6916 18.699 30.7906 21.8519C30.7746 21.7932 30.7586 21.7398 30.7372 21.6865C28.6193 15.5088 22.7671 11.0703 15.8799 11.0703C7.21091 11.0703 0.179688 18.1015 0.179688 26.7705C0.179688 34.5219 5.77052 41.1584 13.5219 41.1584C19.7049 41.1584 23.8661 37.6908 25.7706 32.9108C26.8162 30.2968 26.0746 27.224 23.7007 25.6129Z" fill="#003668"/>
<path d="M30.8851 22.1385C29.9675 19.0603 25.6677 13 17.9643 13C10.6824 13 5.625 18.4841 5.625 23.4135C5.625 24.3257 5.67835 24.7365 5.90774 25.5954C5.81172 25.2166 5.7637 24.8432 5.7637 24.4751C5.7637 19.343 10.9011 15.7847 16.1878 15.7847C23.3364 15.7847 29.1353 21.5836 29.1353 28.7322C29.1353 34.3391 25.9078 39.1884 21.2239 41.5197C27.2681 39.3377 31.5786 33.5495 31.5786 26.753C31.5786 25.1473 31.3599 23.7282 30.8905 22.1331L30.8851 22.1385Z" fill="#E6002D"/>
</g>
</svg>
