<svg width="549" height="227" viewBox="0 0 549 227" fill="none" xmlns="http://www.w3.org/2000/svg">
<path d="M233.812 213.221C233.799 215.436 235.316 217.678 237.107 218.484L236.451 219.332C235.07 218.655 233.874 217.227 233.293 215.49C232.726 217.329 231.529 218.86 230.107 219.578L229.424 218.676C231.229 217.842 232.732 215.531 232.746 213.221V211.006H233.812V213.221ZM239.514 209.953V222.135H238.434V209.953H239.514ZM251.914 209.953V217.65H250.889V214.164H249.262V217.213H248.25V210.199H249.262V213.275H250.889V209.953H251.914ZM247.758 211.416V212.277H241.523V211.416H244.121V210.049H245.188V211.416H247.758ZM244.654 212.934C246.199 212.934 247.252 213.74 247.266 215.012C247.252 216.256 246.199 217.076 244.654 217.076C243.123 217.076 242.043 216.256 242.057 215.012C242.043 213.74 243.123 212.934 244.654 212.934ZM244.654 213.727C243.684 213.727 243.014 214.246 243.014 215.012C243.014 215.764 243.684 216.27 244.654 216.27C245.625 216.27 246.295 215.764 246.295 215.012C246.295 214.246 245.625 213.727 244.654 213.727ZM247.895 217.855C250.451 217.855 251.982 218.621 251.982 219.988C251.982 221.314 250.451 222.08 247.895 222.08C245.338 222.08 243.807 221.314 243.82 219.988C243.807 218.621 245.338 217.855 247.895 217.855ZM247.895 218.703C246.008 218.689 244.873 219.154 244.887 219.988C244.873 220.781 246.008 221.246 247.895 221.246C249.781 221.246 250.902 220.781 250.916 219.988C250.902 219.154 249.781 218.689 247.895 218.703ZM264.096 209.953V222.107H263.07V209.953H264.096ZM261.635 210.281V221.492H260.609V217.281H258.354V216.393H260.609V214.232H258.559C257.964 216.29 256.631 218.108 254.334 219.482L253.678 218.703C256.323 217.138 257.649 214.943 257.861 212.4H254.225V211.512H258.928C258.928 212.134 258.873 212.749 258.764 213.344H260.609V210.281H261.635ZM273.434 211.074V211.895H266.256V211.074H269.305V209.885H270.371V211.074H273.434ZM269.852 212.359C271.588 212.359 272.75 213.057 272.764 214.178C272.75 215.169 271.813 215.825 270.371 215.941V216.748C271.506 216.7 272.654 216.611 273.721 216.461L273.803 217.227C271.137 217.664 268.197 217.705 266.01 217.705L265.846 216.844C266.878 216.844 268.067 216.837 269.305 216.789V215.941C267.855 215.818 266.939 215.169 266.953 214.178C266.939 213.057 268.088 212.359 269.852 212.359ZM269.852 213.125C268.717 213.111 267.965 213.521 267.965 214.178C267.965 214.807 268.717 215.217 269.852 215.203C270.973 215.217 271.725 214.807 271.725 214.178C271.725 213.521 270.973 213.111 269.852 213.125ZM275.812 209.994V218.088H274.732V209.994H275.812ZM275.812 218.662V222.107H274.732V219.523H267.609V218.662H275.812Z" fill="#828AA6"/>
<path d="M347.566 216.406V217.281H336.479V216.406H341.482V215.203H337.955V210.309H346.186V211.184H339.035V212.318H345.857V213.139H339.035V214.342H346.254V215.203H342.549V216.406H347.566ZM342.029 218.197C344.695 218.184 346.199 218.867 346.213 220.139C346.199 221.41 344.695 222.08 342.029 222.08C339.336 222.08 337.832 221.41 337.832 220.139C337.832 218.867 339.336 218.184 342.029 218.197ZM342.029 219.004C340.02 219.004 338.898 219.414 338.912 220.139C338.898 220.877 340.02 221.26 342.029 221.246C344.012 221.26 345.133 220.877 345.133 220.139C345.133 219.414 344.012 219.004 342.029 219.004ZM358.996 209.953V222.107H357.971V209.953H358.996ZM356.535 210.281V221.492H355.51V217.281H353.254V216.393H355.51V214.232H353.459C352.864 216.29 351.531 218.108 349.234 219.482L348.578 218.703C351.224 217.138 352.55 214.943 352.762 212.4H349.125V211.512H353.828C353.828 212.134 353.773 212.749 353.664 213.344H355.51V210.281H356.535ZM360.992 216.324C361.006 213.74 361.703 211.594 362.961 209.762H364C363.07 211.115 362.209 213.891 362.209 216.324C362.209 218.758 363.07 221.52 364 222.873H362.961C361.703 221.055 361.006 218.908 360.992 216.324ZM369.072 213.686C369.072 215.75 370.576 217.842 372.367 218.621L371.766 219.469C370.344 218.819 369.113 217.418 368.553 215.736C367.979 217.521 366.755 219.072 365.367 219.77L364.725 218.922C366.461 218.088 367.979 215.791 367.992 213.686V212.1H365.121V211.211H371.971V212.1H369.072V213.686ZM374.746 209.953V222.107H373.666V209.953H374.746ZM386.846 209.967V219.195H385.766V217.938H383.25V217.158H385.766V209.967H386.846ZM387.146 220.945V221.848H378.506V218.293H379.586V220.945H387.146ZM376.756 215.6C379.025 215.586 382.061 215.572 384.672 215.244L384.74 216.023C383.653 216.194 382.519 216.304 381.404 216.365V218.771H380.324V216.42C379.094 216.475 377.925 216.481 376.906 216.475L376.756 215.6ZM380.748 210.459C382.525 210.459 383.742 211.307 383.756 212.578C383.742 213.877 382.525 214.684 380.748 214.684C378.957 214.684 377.74 213.877 377.74 212.578C377.74 211.307 378.957 210.459 380.748 210.459ZM380.748 211.279C379.559 211.266 378.752 211.799 378.766 212.578C378.752 213.371 379.559 213.891 380.748 213.891C381.896 213.891 382.717 213.371 382.73 212.578C382.717 211.799 381.896 211.266 380.748 211.279ZM391.836 210.719C393.436 210.719 394.625 211.908 394.625 213.59C394.625 215.285 393.436 216.434 391.836 216.434C390.209 216.434 389.047 215.285 389.061 213.59C389.047 211.908 390.209 210.719 391.836 210.719ZM391.836 211.648C390.797 211.648 390.018 212.469 390.031 213.59C390.018 214.711 390.797 215.531 391.836 215.531C392.875 215.531 393.627 214.711 393.641 213.59C393.627 212.469 392.875 211.648 391.836 211.648ZM399.246 209.967V217.199H398.221V213.986H396.607V217.117H395.596V210.199H396.607V213.098H398.221V209.967H399.246ZM399.246 217.883V222.107H398.193V218.744H391.057V217.883H399.246ZM403.771 216.324C403.758 218.908 403.061 221.055 401.803 222.873H400.764C401.693 221.52 402.555 218.758 402.555 216.324C402.555 213.891 401.693 211.115 400.764 209.762H401.803C403.061 211.594 403.758 213.74 403.771 216.324Z" fill="#828AA6"/>
<path d="M191 215H219" stroke="#1C6CCE" stroke-width="3"/>
<circle cx="205" cy="215" r="7" fill="#1C6CCE"/>
<path d="M299 215H327" stroke="#FF6F00" stroke-width="3"/>
<circle cx="313" cy="215" r="7" fill="#FF6F00"/>
<path d="M36 11H549" stroke="#CDD1D5" stroke-dasharray="2 2"/>
<path d="M36 47H549" stroke="#CDD1D5" stroke-dasharray="2 2"/>
<path d="M36 83H549" stroke="#CDD1D5" stroke-dasharray="2 2"/>
<path d="M36 119H549" stroke="#CDD1D5" stroke-dasharray="2 2"/>
<path d="M36 155.5H549" stroke="#D4D4D4"/>
<path d="M74.9023 181V179.742L78.0879 176.338C79.0176 175.354 79.5508 174.779 79.5645 173.918C79.5645 172.961 78.8809 172.414 78.0059 172.414C77.0898 172.414 76.4746 173.029 76.4883 174.055H74.8613C74.8613 172.195 76.1738 170.965 78.0332 170.965C79.8926 170.965 81.2051 172.168 81.2051 173.836C81.2051 174.93 80.7266 175.818 78.9219 177.691L77.2676 179.441V179.51H81.3418V181H74.9023ZM86.0996 181.137C83.8848 181.137 82.5859 179.4 82.5859 176.42V175.682C82.5859 172.701 83.8848 170.965 86.0996 170.965C88.3145 170.965 89.5996 172.701 89.5996 175.682V176.42C89.5996 179.4 88.3145 181.137 86.0996 181.137ZM86.0996 179.646C87.3027 179.646 87.918 178.553 87.918 176.434V175.682C87.918 173.549 87.3027 172.455 86.0996 172.455C84.8965 172.455 84.2812 173.549 84.2812 175.682V176.434C84.2812 178.553 84.8965 179.646 86.0996 179.646ZM91.0352 181V179.742L94.2207 176.338C95.1504 175.354 95.6836 174.779 95.6973 173.918C95.6973 172.961 95.0137 172.414 94.1387 172.414C93.2227 172.414 92.6074 173.029 92.6211 174.055H90.9941C90.9941 172.195 92.3066 170.965 94.166 170.965C96.0254 170.965 97.3379 172.168 97.3379 173.836C97.3379 174.93 96.8594 175.818 95.0547 177.691L93.4004 179.441V179.51H97.4746V181H91.0352ZM103.217 171.102V179.578H105.145V181H99.3477V179.578H101.439V172.879L99.3477 174.301V172.592L101.535 171.102H103.217Z" fill="#252525"/>
<path d="M0.977539 159V158.175L3.97363 154.861C4.98926 153.731 5.48438 153.097 5.49707 152.233C5.48438 151.281 4.74805 150.672 3.7832 150.672C2.75488 150.672 2.10742 151.357 2.10742 152.398H1.01562C1.01562 150.786 2.22168 149.682 3.82129 149.682C5.4209 149.682 6.55078 150.812 6.56348 152.233C6.55078 153.249 6.10645 154.049 4.54492 155.737L2.53906 157.908V157.984H6.71582V159H0.977539ZM11.3242 159.127C9.72461 159.127 8.51855 158.099 8.44238 156.689H9.57227C9.63574 157.515 10.3848 158.124 11.3242 158.124C12.4414 158.124 13.2412 157.261 13.2412 156.093C13.2412 154.887 12.4033 154.023 11.248 154.011C10.5244 153.998 9.96582 154.227 9.64844 154.836H8.53125L9.14062 149.809H13.9395V150.824H10.1182L9.80078 153.516H9.90234C10.2197 153.211 10.8164 152.982 11.4385 152.982C13.1143 152.982 14.3584 154.29 14.3584 156.067C14.3584 157.832 13.0762 159.127 11.3242 159.127ZM18.7256 159.127C16.7451 159.127 15.6406 157.553 15.6406 154.76V154.049C15.6406 151.243 16.7451 149.682 18.7256 149.682C20.6934 149.682 21.7979 151.243 21.7979 154.049V154.76C21.7979 157.553 20.6934 159.127 18.7256 159.127ZM18.7256 158.124C20.0332 158.124 20.6934 157.007 20.6934 154.772V154.049C20.6934 151.802 20.0332 150.685 18.7256 150.685C17.4053 150.685 16.7578 151.802 16.7578 154.049V154.772C16.7578 157.007 17.4053 158.124 18.7256 158.124Z" fill="#8E9FB0"/>
<path d="M1.82812 120.677C1.91699 121.604 2.7168 122.111 3.74512 122.111C4.83691 122.111 5.7002 121.527 5.6875 120.385C5.7002 119.382 5.06543 118.506 3.42773 118.506H2.67871V117.604L4.92578 114.9V114.824H1.10449V113.809H6.46191V114.634L4.0625 117.554V117.63C5.63672 117.719 6.81738 118.874 6.81738 120.397C6.81738 121.972 5.53516 123.127 3.71973 123.127C2.09473 123.127 0.761719 122.213 0.660156 120.677H1.82812ZM11.3242 123.127C9.72461 123.127 8.51855 122.099 8.44238 120.689H9.57227C9.63574 121.515 10.3848 122.124 11.3242 122.124C12.4414 122.124 13.2412 121.261 13.2412 120.093C13.2412 118.887 12.4033 118.023 11.248 118.011C10.5244 117.998 9.96582 118.227 9.64844 118.836H8.53125L9.14062 113.809H13.9395V114.824H10.1182L9.80078 117.516H9.90234C10.2197 117.211 10.8164 116.982 11.4385 116.982C13.1143 116.982 14.3584 118.29 14.3584 120.067C14.3584 121.832 13.0762 123.127 11.3242 123.127ZM18.7256 123.127C16.7451 123.127 15.6406 121.553 15.6406 118.76V118.049C15.6406 115.243 16.7451 113.682 18.7256 113.682C20.6934 113.682 21.7979 115.243 21.7979 118.049V118.76C21.7979 121.553 20.6934 123.127 18.7256 123.127ZM18.7256 122.124C20.0332 122.124 20.6934 121.007 20.6934 118.772V118.049C20.6934 115.802 20.0332 114.685 18.7256 114.685C17.4053 114.685 16.7578 115.802 16.7578 118.049V118.772C16.7578 121.007 17.4053 122.124 18.7256 122.124Z" fill="#8E9FB0"/>
<path d="M0.469727 85.1211V84.1816L4.0498 77.8086H5.17969L1.67578 84.042V84.1182H4.69727V81.249H5.77637V84.1182H7.00781V85.1211H5.77637V87H4.69727V85.1211H0.469727ZM11.3242 87.127C9.72461 87.127 8.51855 86.0986 8.44238 84.6895H9.57227C9.63574 85.5146 10.3848 86.124 11.3242 86.124C12.4414 86.124 13.2412 85.2607 13.2412 84.0928C13.2412 82.8867 12.4033 82.0234 11.248 82.0107C10.5244 81.998 9.96582 82.2266 9.64844 82.8359H8.53125L9.14062 77.8086H13.9395V78.8242H10.1182L9.80078 81.5156H9.90234C10.2197 81.2109 10.8164 80.9824 11.4385 80.9824C13.1143 80.9824 14.3584 82.29 14.3584 84.0674C14.3584 85.832 13.0762 87.127 11.3242 87.127ZM18.7256 87.127C16.7451 87.127 15.6406 85.5527 15.6406 82.7598V82.0488C15.6406 79.2432 16.7451 77.6816 18.7256 77.6816C20.6934 77.6816 21.7979 79.2432 21.7979 82.0488V82.7598C21.7979 85.5527 20.6934 87.127 18.7256 87.127ZM18.7256 86.124C20.0332 86.124 20.6934 85.0068 20.6934 82.7725V82.0488C20.6934 79.8018 20.0332 78.6846 18.7256 78.6846C17.4053 78.6846 16.7578 79.8018 16.7578 82.0488V82.7725C16.7578 85.0068 17.4053 86.124 18.7256 86.124Z" fill="#8E9FB0"/>
<path d="M3.73242 51.127C1.99316 51.127 0.62207 49.8193 0.62207 48.1689C0.62207 47.1914 1.12988 46.2266 2.03125 44.8936L4.10059 41.8086H5.4082L2.93262 45.4902L2.99609 45.541C3.18018 45.3569 3.56738 45.1982 4.12598 45.1982C5.73828 45.1982 6.86816 46.5059 6.86816 48.1689C6.86816 49.8193 5.48438 51.127 3.73242 51.127ZM3.74512 50.124C4.92578 50.124 5.75098 49.2988 5.75098 48.1182C5.75098 46.9375 4.92578 46.0996 3.74512 46.0996C2.56445 46.0996 1.72656 46.9375 1.72656 48.1182C1.72656 49.2988 2.56445 50.124 3.74512 50.124ZM11.3242 51.127C9.72461 51.127 8.51855 50.0986 8.44238 48.6895H9.57227C9.63574 49.5146 10.3848 50.124 11.3242 50.124C12.4414 50.124 13.2412 49.2607 13.2412 48.0928C13.2412 46.8867 12.4033 46.0234 11.248 46.0107C10.5244 45.998 9.96582 46.2266 9.64844 46.8359H8.53125L9.14062 41.8086H13.9395V42.8242H10.1182L9.80078 45.5156H9.90234C10.2197 45.2109 10.8164 44.9824 11.4385 44.9824C13.1143 44.9824 14.3584 46.29 14.3584 48.0674C14.3584 49.832 13.0762 51.127 11.3242 51.127ZM18.7256 51.127C16.7451 51.127 15.6406 49.5527 15.6406 46.7598V46.0488C15.6406 43.2432 16.7451 41.6816 18.7256 41.6816C20.6934 41.6816 21.7979 43.2432 21.7979 46.0488V46.7598C21.7979 49.5527 20.6934 51.127 18.7256 51.127ZM18.7256 50.124C20.0332 50.124 20.6934 49.0068 20.6934 46.7725V46.0488C20.6934 43.8018 20.0332 42.6846 18.7256 42.6846C17.4053 42.6846 16.7578 43.8018 16.7578 46.0488V46.7725C16.7578 49.0068 17.4053 50.124 18.7256 50.124Z" fill="#8E9FB0"/>
<path d="M1.45996 15L5.44629 6.8877V6.82422H0.863281V5.80859H6.65234V6.875L2.66602 15H1.45996ZM11.3242 15.127C9.72461 15.127 8.51855 14.0986 8.44238 12.6895H9.57227C9.63574 13.5146 10.3848 14.124 11.3242 14.124C12.4414 14.124 13.2412 13.2607 13.2412 12.0928C13.2412 10.8867 12.4033 10.0234 11.248 10.0107C10.5244 9.99805 9.96582 10.2266 9.64844 10.8359H8.53125L9.14062 5.80859H13.9395V6.82422H10.1182L9.80078 9.51562H9.90234C10.2197 9.21094 10.8164 8.98242 11.4385 8.98242C13.1143 8.98242 14.3584 10.29 14.3584 12.0674C14.3584 13.832 13.0762 15.127 11.3242 15.127ZM18.7256 15.127C16.7451 15.127 15.6406 13.5527 15.6406 10.7598V10.0488C15.6406 7.24316 16.7451 5.68164 18.7256 5.68164C20.6934 5.68164 21.7979 7.24316 21.7979 10.0488V10.7598C21.7979 13.5527 20.6934 15.127 18.7256 15.127ZM18.7256 14.124C20.0332 14.124 20.6934 13.0068 20.6934 10.7725V10.0488C20.6934 7.80176 20.0332 6.68457 18.7256 6.68457C17.4053 6.68457 16.7578 7.80176 16.7578 10.0488V10.7725C16.7578 13.0068 17.4053 14.124 18.7256 14.124Z" fill="#8E9FB0"/>
<path d="M210.902 181V179.742L214.088 176.338C215.018 175.354 215.551 174.779 215.564 173.918C215.564 172.961 214.881 172.414 214.006 172.414C213.09 172.414 212.475 173.029 212.488 174.055H210.861C210.861 172.195 212.174 170.965 214.033 170.965C215.893 170.965 217.205 172.168 217.205 173.836C217.205 174.93 216.727 175.818 214.922 177.691L213.268 179.441V179.51H217.342V181H210.902ZM222.1 181.137C219.885 181.137 218.586 179.4 218.586 176.42V175.682C218.586 172.701 219.885 170.965 222.1 170.965C224.314 170.965 225.6 172.701 225.6 175.682V176.42C225.6 179.4 224.314 181.137 222.1 181.137ZM222.1 179.646C223.303 179.646 223.918 178.553 223.918 176.434V175.682C223.918 173.549 223.303 172.455 222.1 172.455C220.896 172.455 220.281 173.549 220.281 175.682V176.434C220.281 178.553 220.896 179.646 222.1 179.646ZM227.035 181V179.742L230.221 176.338C231.15 175.354 231.684 174.779 231.697 173.918C231.697 172.961 231.014 172.414 230.139 172.414C229.223 172.414 228.607 173.029 228.621 174.055H226.994C226.994 172.195 228.307 170.965 230.166 170.965C232.025 170.965 233.338 172.168 233.338 173.836C233.338 174.93 232.859 175.818 231.055 177.691L229.4 179.441V179.51H233.475V181H227.035ZM235.102 181V179.742L238.287 176.338C239.217 175.354 239.75 174.779 239.764 173.918C239.764 172.961 239.08 172.414 238.205 172.414C237.289 172.414 236.674 173.029 236.688 174.055H235.061C235.061 172.195 236.373 170.965 238.232 170.965C240.092 170.965 241.404 172.168 241.404 173.836C241.404 174.93 240.926 175.818 239.121 177.691L237.467 179.441V179.51H241.541V181H235.102Z" fill="#252525"/>
<path d="M342.902 181V179.742L346.088 176.338C347.018 175.354 347.551 174.779 347.564 173.918C347.564 172.961 346.881 172.414 346.006 172.414C345.09 172.414 344.475 173.029 344.488 174.055H342.861C342.861 172.195 344.174 170.965 346.033 170.965C347.893 170.965 349.205 172.168 349.205 173.836C349.205 174.93 348.727 175.818 346.922 177.691L345.268 179.441V179.51H349.342V181H342.902ZM354.1 181.137C351.885 181.137 350.586 179.4 350.586 176.42V175.682C350.586 172.701 351.885 170.965 354.1 170.965C356.314 170.965 357.6 172.701 357.6 175.682V176.42C357.6 179.4 356.314 181.137 354.1 181.137ZM354.1 179.646C355.303 179.646 355.918 178.553 355.918 176.434V175.682C355.918 173.549 355.303 172.455 354.1 172.455C352.896 172.455 352.281 173.549 352.281 175.682V176.434C352.281 178.553 352.896 179.646 354.1 179.646ZM359.035 181V179.742L362.221 176.338C363.15 175.354 363.684 174.779 363.697 173.918C363.697 172.961 363.014 172.414 362.139 172.414C361.223 172.414 360.607 173.029 360.621 174.055H358.994C358.994 172.195 360.307 170.965 362.166 170.965C364.025 170.965 365.338 172.168 365.338 173.836C365.338 174.93 364.859 175.818 363.055 177.691L361.4 179.441V179.51H365.475V181H359.035ZM370.219 181.137C368.236 181.137 366.732 179.715 366.732 177.828C366.732 176.748 367.211 175.723 368.086 174.41L370.287 171.102H372.16L369.576 174.998L369.645 175.039C369.836 174.834 370.253 174.602 370.875 174.602C372.543 174.602 373.719 175.969 373.719 177.773C373.719 179.701 372.215 181.137 370.219 181.137ZM370.219 179.729C371.285 179.729 372.023 178.936 372.023 177.801C372.023 176.652 371.285 175.846 370.219 175.846C369.166 175.846 368.428 176.666 368.428 177.801C368.428 178.936 369.166 179.729 370.219 179.729Z" fill="#252525"/>
<path d="M478.902 181V179.742L482.088 176.338C483.018 175.354 483.551 174.779 483.564 173.918C483.564 172.961 482.881 172.414 482.006 172.414C481.09 172.414 480.475 173.029 480.488 174.055H478.861C478.861 172.195 480.174 170.965 482.033 170.965C483.893 170.965 485.205 172.168 485.205 173.836C485.205 174.93 484.727 175.818 482.922 177.691L481.268 179.441V179.51H485.342V181H478.902ZM490.1 181.137C487.885 181.137 486.586 179.4 486.586 176.42V175.682C486.586 172.701 487.885 170.965 490.1 170.965C492.314 170.965 493.6 172.701 493.6 175.682V176.42C493.6 179.4 492.314 181.137 490.1 181.137ZM490.1 179.646C491.303 179.646 491.918 178.553 491.918 176.434V175.682C491.918 173.549 491.303 172.455 490.1 172.455C488.896 172.455 488.281 173.549 488.281 175.682V176.434C488.281 178.553 488.896 179.646 490.1 179.646ZM495.035 181V179.742L498.221 176.338C499.15 175.354 499.684 174.779 499.697 173.918C499.697 172.961 499.014 172.414 498.139 172.414C497.223 172.414 496.607 173.029 496.621 174.055H494.994C494.994 172.195 496.307 170.965 498.166 170.965C500.025 170.965 501.338 172.168 501.338 173.836C501.338 174.93 500.859 175.818 499.055 177.691L497.4 179.441V179.51H501.475V181H495.035ZM503.648 181L507.572 172.66V172.592H503.033V171.102H509.432V172.605L505.494 181H503.648Z" fill="#252525"/>
<path d="M243.307 76.1465C241.065 76.1465 239.439 74.6084 239.439 72.4844C239.439 71.2979 239.85 70.2139 240.699 68.9248L243.014 65.3945H245.548L242.853 69.4814L242.926 69.5254C243.124 69.291 243.57 68.998 244.259 68.998C245.987 68.998 247.188 70.4043 247.188 72.3672C247.188 74.5645 245.562 76.1465 243.307 76.1465ZM243.307 74.3008C244.215 74.3008 244.845 73.5391 244.845 72.4697C244.845 71.3857 244.215 70.624 243.307 70.624C242.413 70.624 241.783 71.3857 241.769 72.4697C241.783 73.5391 242.413 74.3008 243.307 74.3008ZM247.979 74.2129V72.2939L251.437 65.3945H253.824L250.455 72.1768V72.25H252.55V69.3643H254.864V72.25H256.036V74.2129H254.864V76H252.491V74.2129H247.979ZM259.098 72.9092C259.127 73.6855 259.771 74.1104 260.562 74.1104C261.383 74.1104 261.983 73.627 261.983 72.7773C261.983 71.9131 261.383 71.415 260.343 71.415H259.142V69.7598L261.148 67.5332V67.416H257.223V65.3945H264.122V67.1377L261.603 69.8623V70.0234C263.683 70.3311 264.43 71.6934 264.43 72.9678C264.43 74.8428 262.774 76.1465 260.562 76.1465C258.336 76.1465 256.798 74.8135 256.754 72.9092H259.098Z" fill="#1C6CCE"/>
<path d="M116.812 134.909C116.842 135.686 117.486 136.11 118.277 136.11C119.098 136.11 119.698 135.627 119.698 134.777C119.698 133.913 119.098 133.415 118.058 133.415H116.856V131.76L118.863 129.533V129.416H114.938V127.395H121.837V129.138L119.317 131.862V132.023C121.397 132.331 122.145 133.693 122.145 134.968C122.145 136.843 120.489 138.146 118.277 138.146C116.051 138.146 114.513 136.813 114.469 134.909H116.812ZM127.008 138.146C124.898 138.146 123.36 136.799 123.316 134.909H125.587C125.631 135.744 126.275 136.213 127.008 136.213C127.872 136.213 128.546 135.568 128.531 134.484C128.546 133.4 127.857 132.741 126.993 132.741C126.334 132.741 125.909 132.961 125.587 133.605H123.492L123.961 127.395H130.23V129.416H126.085L125.865 131.95H125.938C126.217 131.423 126.759 130.954 127.74 130.954C129.527 130.954 130.772 132.419 130.772 134.411C130.772 136.638 129.205 138.146 127.008 138.146ZM135.606 138.146C133.146 138.146 131.651 136.228 131.651 133.078V132.316C131.651 129.167 133.146 127.248 135.606 127.248C138.067 127.248 139.562 129.167 139.562 132.316V133.078C139.562 136.228 138.067 138.146 135.606 138.146ZM135.606 136.11C136.676 136.11 137.232 135.056 137.232 133.078V132.316C137.232 130.339 136.676 129.27 135.606 129.27C134.552 129.27 133.98 130.339 133.98 132.316V133.078C133.98 135.056 134.552 136.11 135.606 136.11Z" fill="#1C6CCE"/>
<path d="M197.307 44.1465C195.065 44.1465 193.439 42.6084 193.439 40.4844C193.439 39.2979 193.85 38.2139 194.699 36.9248L197.014 33.3945H199.548L196.853 37.4814L196.926 37.5254C197.124 37.291 197.57 36.998 198.259 36.998C199.987 36.998 201.188 38.4043 201.188 40.3672C201.188 42.5645 199.562 44.1465 197.307 44.1465ZM197.307 42.3008C198.215 42.3008 198.845 41.5391 198.845 40.4697C198.845 39.3857 198.215 38.624 197.307 38.624C196.413 38.624 195.783 39.3857 195.769 40.4697C195.783 41.5391 196.413 42.3008 197.307 42.3008ZM201.979 42.2129V40.2939L205.437 33.3945H207.824L204.455 40.1768V40.25H206.55V37.3643H208.864V40.25H210.036V42.2129H208.864V44H206.491V42.2129H201.979ZM214.606 44.1465C212.146 44.1465 210.651 42.2275 210.651 39.0781V38.3164C210.651 35.167 212.146 33.248 214.606 33.248C217.067 33.248 218.562 35.167 218.562 38.3164V39.0781C218.562 42.2275 217.067 44.1465 214.606 44.1465ZM214.606 42.1104C215.676 42.1104 216.232 41.0557 216.232 39.0781V38.3164C216.232 36.3389 215.676 35.2695 214.606 35.2695C213.552 35.2695 212.98 36.3389 212.98 38.3164V39.0781C212.98 41.0557 213.552 42.1104 214.606 42.1104Z" fill="#FF6F00"/>
<path d="M63.8125 102.909C63.8418 103.686 64.4863 104.11 65.2773 104.11C66.0977 104.11 66.6982 103.627 66.6982 102.777C66.6982 101.913 66.0977 101.415 65.0576 101.415H63.8564V99.7598L65.8633 97.5332V97.416H61.9375V95.3945H68.8369V97.1377L66.3174 99.8623V100.023C68.3975 100.331 69.1445 101.693 69.1445 102.968C69.1445 104.843 67.4893 106.146 65.2773 106.146C63.0508 106.146 61.5127 104.813 61.4688 102.909H63.8125ZM73.9492 106.146C71.6787 106.146 70.0381 104.828 70.0527 103.129C70.0381 101.957 70.8291 100.844 72.1914 100.536V100.448C71.0488 100.155 70.3896 99.2031 70.3896 98.1191C70.3896 96.4785 71.8984 95.248 73.9492 95.248C76 95.248 77.5234 96.4785 77.5234 98.1191C77.5234 99.2031 76.8496 100.155 75.7217 100.463V100.536C77.0693 100.844 77.8604 101.957 77.875 103.129C77.8604 104.828 76.2197 106.146 73.9492 106.146ZM73.9492 104.301C74.7988 104.301 75.4434 103.744 75.4434 102.865C75.4434 101.972 74.7842 101.415 73.9492 101.415C73.1289 101.415 72.4697 101.972 72.4697 102.865C72.4697 103.744 73.0996 104.301 73.9492 104.301ZM73.9492 99.7012C74.6523 99.7012 75.209 99.2031 75.2236 98.3828C75.209 97.5771 74.6523 97.0938 73.9492 97.0938C73.2461 97.0938 72.6895 97.5771 72.6895 98.3828C72.6895 99.2031 73.2607 99.7012 73.9492 99.7012ZM82.6064 106.146C80.1455 106.146 78.6514 104.228 78.6514 101.078V100.316C78.6514 97.167 80.1455 95.248 82.6064 95.248C85.0674 95.248 86.5615 97.167 86.5615 100.316V101.078C86.5615 104.228 85.0674 106.146 82.6064 106.146ZM82.6064 104.11C83.6758 104.11 84.2324 103.056 84.2324 101.078V100.316C84.2324 98.3389 83.6758 97.2695 82.6064 97.2695C81.5518 97.2695 80.9805 98.3389 80.9805 100.316V101.078C80.9805 103.056 81.5518 104.11 82.6064 104.11Z" fill="#FF6F00"/>
<path d="M94 132L228 56.5" stroke="#1C6CCE" stroke-width="2"/>
<path d="M94 117.5L229 56" stroke="#FF6F00" stroke-width="2"/>
<circle cx="94" cy="132" r="9" fill="#1C6CCE"/>
<circle cx="94" cy="118" r="9" fill="#FF6F00"/>
<circle cx="228" cy="56" r="9" fill="#FF6F00"/>
</svg>
